<?xml version="1.0" standalone="no"?>
<!DOCTYPE svg PUBLIC "-//W3C//DTD SVG 1.1//EN" "http://www.w3.org/Graphics/SVG/1.1/DTD/svg11.dtd" >
<svg>
<metadata>
Created by FontForge 20090622 at Thu May 19 15:29:32 2016
 By deploy user
(C)1992 The Font Company Inc., ALL Rights Reserved
</metadata>
<defs>
<font id="AlternateGothic-No2" horiz-adv-x="500" >
  <font-face 
    font-family="AlternateGothic No"
    font-weight="400"
    font-stretch="normal"
    units-per-em="1000"
    panose-1="0 0 0 0 0 0 0 0 0 0"
    ascent="750"
    descent="-250"
    x-height="496"
    cap-height="666"
    bbox="-134 -250 831 873"
    underline-thickness="20"
    underline-position="-100"
    unicode-range="U+000D-U+FB02"
  />
<missing-glyph horiz-adv-x="0" 
 />
    <glyph glyph-name=".notdef" horiz-adv-x="0" 
 />
    <glyph glyph-name=".null" horiz-adv-x="0" 
 />
    <glyph glyph-name=".null" horiz-adv-x="0" 
 />
    <glyph glyph-name="nonmarkingreturn" unicode="&#xd;" horiz-adv-x="250" 
 />
    <glyph glyph-name="space" unicode=" " horiz-adv-x="173" 
 />
    <glyph glyph-name="exclam" unicode="!" horiz-adv-x="176" 
d="M136 0h-96v103h96v-103zM57 196l-21 470h104l-21 -470h-62z" />
    <glyph glyph-name="quotedbl" unicode="&#x22;" horiz-adv-x="426" 
d="M259 390l-22 276h103l-21 -276h-60zM107 390l-22 276h103l-21 -276h-60z" />
    <glyph glyph-name="numbersign" unicode="#" horiz-adv-x="566" 
d="M245 392l-16 -105h106l16 105h-106zM502 215h-105l-34 -215h-73l33 215h-105l-34 -215h-72l33 215h-104v72h115l16 105h-103v72h115l31 202h73l-32 -202h106l32 202h74l-32 -202h93l-1 -72h-103l-17 -105h95z" />
    <glyph glyph-name="dollar" unicode="$" horiz-adv-x="385" 
d="M263 541q-30 49 -68 49q-29 0 -46 -21.5t-17 -56.5q0 -59 64 -111l45 -37q57 -47 82.5 -94t25.5 -105q0 -145 -133 -168v-98h-53v98q-82 9 -127 86l70 59q16 -35 35 -50.5t46 -15.5q33 0 51 23t18 66q0 37 -16.5 65.5t-55.5 61.5l-42 35q-53 44 -76.5 86.5t-23.5 95.5
q0 64 31 104.5t90 54.5v48h53v-47q38 -6 64 -21t49 -47z" />
    <glyph glyph-name="percent" unicode="%" horiz-adv-x="532" 
d="M386 91q0 -31 4.5 -40.5t19.5 -9.5t20 9.5t5 40.5v148q0 31 -5 40.5t-20 9.5t-19.5 -9.5t-4.5 -40.5v-148zM97 427q0 -31 4.5 -40.5t19.5 -9.5t19.5 9.5t4.5 40.5v148q0 31 -4.5 40.5t-19.5 9.5t-19.5 -9.5t-4.5 -40.5v-148zM492 91q0 -100 -82 -100q-81 0 -81 100v147
q0 102 81 102q82 0 82 -102v-147zM440 666l-289 -666h-60l289 666h60zM202 428q0 -102 -81 -102t-81 102v147q0 101 81 101t81 -101v-147z" />
    <glyph glyph-name="ampersand" unicode="&#x26;" horiz-adv-x="450" 
d="M161 250q-17 -30 -24.5 -53t-7.5 -44q0 -27 16.5 -43.5t42.5 -16.5q30 0 53 24l-10 14q-21 32 -37 59.5zM181 415q26 35 38 66.5t12 66.5q0 29 -10 45.5t-27 16.5q-20 0 -31 -21t-11 -56q0 -51 29 -118zM410 298q-5 -27 -10.5 -48.5t-12 -41.5t-15 -39.5t-19.5 -41.5
q17 -25 52 -37v-100q-38 7 -60.5 19t-45.5 39q-29 -30 -55 -42t-61 -12q-66 0 -105 40t-39 109q0 22 3.5 42t11 40t20.5 42.5t32 50.5l11 18q-26 62 -36.5 104.5t-10.5 81.5q0 67 35.5 109t92.5 42q54 0 85 -34.5t31 -94.5q0 -67 -38 -130l-11.5 -18.5l-11.5 -17.5t-14 -19
l-20 -25q17 -36 36 -68.5t41 -64.5q11 26 17.5 50t15.5 67z" />
    <glyph glyph-name="quotesingle" unicode="'" horiz-adv-x="217" 
d="M79 390l-22 276h103l-21 -276h-60z" />
    <glyph glyph-name="parenleft" unicode="(" horiz-adv-x="282" 
d="M177 -123l-23 35t-17.5 28.5t-14 27l-14.5 30.5q-69 144 -69 292q0 147 69 292l14.5 30.5t14 27t17.5 28.5l23 35l65 -35l-19 -33t-14.5 -26.5t-12.5 -26.5l-14 -32q-28 -68 -40.5 -128t-11.5 -132q0 -72 12 -132.5t40 -127.5l14 -31.5t12.5 -26.5t14.5 -27l19 -32z" />
    <glyph glyph-name="parenright" unicode=")" horiz-adv-x="282" 
d="M105 703q14 -20 23.5 -35t17 -28.5t14 -27l14.5 -30.5q68 -143 68 -292q0 -74 -16.5 -147t-51.5 -145l-14.5 -30.5t-14 -27t-17 -28.5t-23.5 -35l-65 36l19 32t14.5 27l13 26.5t13.5 31.5q28 67 40 127.5t12 132.5q0 71 -12 131.5t-40 128.5q-7 18 -13.5 31.5l-13 26.5
t-14.5 27l-19 33z" />
    <glyph glyph-name="asterisk" unicode="*" horiz-adv-x="312" 
d="M40 555l22 70l61 -24l-4 65h74l-4 -65l61 24l22 -70l-63 -17l42 -50l-60 -43l-35 54l-35 -54l-60 43l42 50z" />
    <glyph glyph-name="plus" unicode="+" horiz-adv-x="503" 
d="M210 381v190h82v-189h201v-82h-200v-189h-82v189h-202v81h201z" />
    <glyph glyph-name="comma" unicode="," horiz-adv-x="176" 
d="M136 0l-52 -115h-44l35 115h-35v103h96v-103z" />
    <glyph glyph-name="hyphen" unicode="-" horiz-adv-x="219" 
d="M179 208h-139v90h139v-90z" />
    <glyph glyph-name="period" unicode="." horiz-adv-x="176" 
d="M136 0h-96v103h96v-103z" />
    <glyph glyph-name="slash" unicode="/" horiz-adv-x="451" 
d="M411 700l-300 -733h-71l300 733h71z" />
    <glyph glyph-name="zero" unicode="0" horiz-adv-x="364" 
d="M127 184q0 -32 2 -52.5t8 -32.5t16 -16.5t26 -4.5t26 4.5t16 16.5t8 32.5t2 52.5v297q0 32 -2 53t-8 33t-16 16.5t-26 4.5t-26 -4.5t-16 -16.5t-8 -33t-2 -53v-297zM326 186q0 -28 -1.5 -48.5t-5 -36t-9 -28.5t-14.5 -25q-20 -28 -51 -43t-66 -15q-35 1 -66.5 16
t-50.5 42q-9 13 -15 26t-9 28.5t-4.5 36t-1.5 47.5v294q0 55 6.5 84t23.5 54q20 28 51 43t66 15t66.5 -15.5t50.5 -42.5q9 -13 15 -26t9 -28.5t4.5 -36t1.5 -47.5v-294z" />
    <glyph glyph-name="one" unicode="1" horiz-adv-x="236" 
d="M196 0h-95v523h-82v62q33 10 60.5 29.5t53.5 51.5h63v-666z" />
    <glyph glyph-name="two" unicode="2" horiz-adv-x="379" 
d="M330 0h-292v91l18 26q51 74 86.5 133t58 106.5t32.5 86.5t10 73q0 35 -12.5 53.5t-36.5 18.5q-58 0 -58 -101v-8.5t1 -11.5h-93q-1 8 -1 14v10q0 90 39.5 137.5t113.5 47.5q67 0 105.5 -43.5t38.5 -119.5q0 -35 -9.5 -74t-30.5 -85t-53.5 -101t-77.5 -122l-29 -43h190
v-88z" />
    <glyph glyph-name="three" unicode="3" horiz-adv-x="371" 
d="M139 390q29 2 46.5 6.5t28 16t14 31t3.5 50.5q0 50 -11 72t-35 22q-25 0 -35.5 -19.5t-10.5 -67.5v-16h-91v15q0 82 37 129t102 47t99.5 -47t34.5 -135q0 -61 -13.5 -94t-45.5 -54q20 -11 33 -24.5t21 -32t11.5 -44.5t3.5 -61q0 -100 -35.5 -147t-108.5 -47
q-148 2 -148 181q0 3 0.5 7.5t0.5 11.5h93v-20q0 -92 52 -92q29 0 41 24.5t12 82.5q0 36 -4 59t-15 35.5t-30.5 17.5t-49.5 5v88z" />
    <glyph glyph-name="four" unicode="4" horiz-adv-x="380" 
d="M193 501l-93 -250h93v250zM20 163v89l169 414h96v-415h62v-88h-62v-163h-92v163h-173z" />
    <glyph glyph-name="five" unicode="5" horiz-adv-x="370" 
d="M307 578h-170l-6 -164q20 25 41 36t49 11q24 0 44.5 -10t33.5 -27q16 -22 22 -49t6 -78v-120q0 -54 -8 -85.5t-28 -54.5q-39 -47 -109 -47q-72 0 -109 46t-37 135v17h95v-15q0 -51 12 -73t40 -22t38.5 20.5t10.5 74.5v107q0 29 -1.5 47.5t-6.5 28.5t-13.5 13.5t-22.5 3.5
q-22 0 -34.5 -12.5t-22.5 -41.5l-88 5l11 342h253v-88z" />
    <glyph glyph-name="six" unicode="6" horiz-adv-x="368" 
d="M132 166q0 -48 11.5 -68t40.5 -20q28 0 40 20t12 68v89q0 38 -9.5 54t-33.5 16q-42 0 -61 -49v-110zM230 488v22q0 41 -11.5 59.5t-37.5 18.5q-27 0 -38 -20.5t-11 -69.5v-135q37 47 91 47q108 0 108 -139v-91q0 -54 -7.5 -83.5t-27.5 -54.5t-49.5 -38.5t-62.5 -13.5
q-34 1 -63 14t-49 38t-27.5 54.5t-7.5 82.5v303q0 30 1.5 52.5t6 39.5t12 30t19.5 26q41 46 105 46q68 0 106 -45.5t38 -126.5v-16h-95z" />
    <glyph glyph-name="seven" unicode="7" horiz-adv-x="376" 
d="M329 666v-67l-124 -599h-95l122 578h-185v88h282z" />
    <glyph glyph-name="eight" unicode="8" horiz-adv-x="375" 
d="M238 189q0 63 -11 87.5t-40 24.5q-29 -1 -40 -25t-11 -87t11 -87t40 -24t40 24t11 87zM236 493q0 50 -11.5 72.5t-37.5 22.5t-37.5 -22.5t-11.5 -72.5t11.5 -72.5t37.5 -22.5t37.5 22.5t11.5 72.5zM267 354q38 -22 53 -57.5t15 -103.5q0 -203 -148 -203q-148 2 -148 201
q0 69 15 105t53 58q-32 27 -45.5 59.5t-13.5 86.5q0 86 36 131t103 45t103 -45t36 -129q0 -55 -13 -87.5t-46 -60.5z" />
    <glyph glyph-name="nine" unicode="9" horiz-adv-x="368" 
d="M236 501q0 47 -12 67t-40 20q-29 0 -40.5 -20t-11.5 -68v-88q0 -40 9.5 -55.5t33.5 -15.5q43 0 61 49v111zM138 178v-22q0 -41 11.5 -59.5t37.5 -18.5q27 0 38 20.5t11 69.5v135q-20 -25 -41 -36t-50 -11q-108 0 -108 139v92q0 53 7.5 82.5t27.5 54.5t49 38.5t63 13.5
q33 0 62.5 -13.5t49.5 -38.5t27.5 -54.5t7.5 -82.5v-303q0 -30 -1.5 -52.5t-6 -39.5t-12 -30.5t-19.5 -26.5q-42 -45 -106 -45q-67 0 -105 45.5t-38 126.5v16h95z" />
    <glyph glyph-name="colon" unicode=":" horiz-adv-x="176" 
d="M136 393h-96v103h96v-103zM136 0h-96v103h96v-103z" />
    <glyph glyph-name="semicolon" unicode=";" horiz-adv-x="176" 
d="M136 0l-52 -115h-44l35 115h-35v103h96v-103zM136 393h-96v103h96v-103z" />
    <glyph glyph-name="less" unicode="&#x3c;" 
d="M491 500l-377 -165l377 -152v-89l-483 195v90l483 209v-88z" />
    <glyph glyph-name="equal" unicode="=" horiz-adv-x="503" 
d="M493 304v-82h-484v82h484zM493 458v-81h-484v81h484z" />
    <glyph glyph-name="greater" unicode="&#x3e;" 
d="M8 183l377 164l-377 152v89l483 -195v-90l-483 -209v89z" />
    <glyph glyph-name="question" unicode="?" horiz-adv-x="352" 
d="M219 0h-96v103h96v-103zM130 196q-1 8 -1 13v8q0 37 3.5 71.5t9.5 58.5q4 15 8 28.5t10.5 28t16 33t23.5 43.5q13 23 17.5 36t4.5 28q0 47 -37 47q-20 0 -35 -16t-29 -55l-81 32q19 63 53 92t91 29q60 0 94 -33t34 -91q0 -17 -2 -31t-8 -30t-16.5 -36t-27.5 -49
q-14 -24 -23 -44t-14.5 -40t-8 -42.5t-2.5 -49.5v-13v-18h-80z" />
    <glyph glyph-name="at" unicode="@" horiz-adv-x="705" 
d="M339 214q44 0 72 35.5t28 91.5q0 41 -21 64.5t-58 23.5q-22 0 -41 -9.5t-33.5 -26t-22.5 -39t-8 -48.5q0 -41 23 -66.5t61 -25.5zM645 132l-28.5 -34.5t-23.5 -25t-21.5 -18.5t-24.5 -17q-75 -48 -183 -48q-77 0 -142 25.5t-112.5 71t-74 108t-26.5 136.5q0 75 27 138.5
t74.5 110t112.5 73t141 26.5q70 0 129 -21.5t101.5 -59.5t66.5 -90t24 -114q0 -86 -43 -150.5t-121 -94.5q-17 -7 -32.5 -10.5t-26.5 -3.5q-25 0 -38.5 13.5t-12.5 38.5q-40 -48 -100 -48q-32 0 -58.5 12t-45.5 33.5t-29.5 51.5t-10.5 66q0 44 14 82.5t38.5 66.5t58.5 44
t73 16q78 0 112 -64l10 52h72l-46 -260q-2 -8 -2.5 -13.5t-1.5 -8.5v-5q0 -17 15 -17q14 0 35.5 15t41.5 39q23 26 35 60t12 70q0 53 -19.5 98t-55 77.5t-84 51t-106.5 18.5q-61 0 -114 -22.5t-92 -61.5t-61.5 -92t-22.5 -115q0 -61 22.5 -114t61.5 -92t92.5 -61t115.5 -22
q64 0 119 26q23 11 39.5 23.5t44.5 39.5h71z" />
    <glyph glyph-name="A" unicode="A" horiz-adv-x="381" 
d="M227 240l-40 266l-38 -266h78zM135 146l-23 -146h-99l109 666h130l116 -666h-102l-24 146h-107z" />
    <glyph glyph-name="B" unicode="B" horiz-adv-x="389" 
d="M176 93q43 0 61.5 22.5t18.5 73.5q0 59 -21 83.5t-70 24.5h-25v-204h36zM161 390q45 0 65 23t20 76q0 43 -16.5 63.5t-52.5 20.5h-37v-183h21zM40 666h138q167 0 167 -172q0 -54 -16.5 -88.5t-53.5 -61.5q43 -22 62 -60.5t19 -103.5q0 -102 -49 -147q-21 -19 -45.5 -26
t-74.5 -7h-147v666z" />
    <glyph glyph-name="C" unicode="C" horiz-adv-x="366" 
d="M239 446q-1 5 -1 9v7q0 36 -2.5 59.5t-8.5 37t-17 19t-28 5.5t-28 -5.5t-17 -21.5t-8.5 -44t-2.5 -73v-211q0 -45 2.5 -73.5t8.5 -44.5t17 -21.5t28 -5.5q30 0 41.5 21t13.5 76l1 36v20h101v-24v-13q0 -27 -1 -46t-3.5 -33.5t-6.5 -26.5t-11 -25q-20 -38 -54.5 -58
t-79.5 -20q-35 0 -66 13.5t-51 38.5q-12 16 -20 30.5t-12.5 34t-6 46.5t-1.5 67v226q0 40 1.5 67t6 46.5t12.5 34t20 29.5q21 26 51.5 39.5t65.5 13.5q44 0 79.5 -19.5t54.5 -53.5q7 -13 11 -24.5t6.5 -25t3.5 -31t1 -42.5v-12v-22h-100z" />
    <glyph glyph-name="D" unicode="D" horiz-adv-x="377" 
d="M171 93q45 0 62 25t17 88v253q0 64 -17 89t-62 25h-31v-480h31zM40 666h142q86 0 127 -45.5t41 -142.5v-289q0 -97 -41 -143t-127 -46h-142v666z" />
    <glyph glyph-name="E" unicode="E" horiz-adv-x="332" 
d="M312 573h-172v-181h123v-93h-123v-205h172v-94h-272v666h272v-93z" />
    <glyph glyph-name="F" unicode="F" horiz-adv-x="322" 
d="M309 573h-169v-181h122v-93h-122v-299h-100v666h269v-93z" />
    <glyph glyph-name="G" unicode="G" horiz-adv-x="367" 
d="M340 0h-48l-20 52q-21 -35 -45 -48.5t-61 -13.5q-36 0 -64.5 15t-44.5 42q-17 29 -24 65.5t-7 99.5v234q0 40 1.5 67t6 46.5t12.5 34t20 29.5q44 53 118 53q44 0 79 -19.5t54 -53.5q7 -13 11.5 -24.5t7 -25t3.5 -30.5t1 -40v-15v-19h-100q-1 5 -1 8.5v6.5q0 35 -2.5 58
t-9 36.5t-17 19t-27.5 5.5q-18 0 -29 -6t-17 -21.5t-8.5 -43.5t-2.5 -73v-211q0 -44 2.5 -72.5t9 -44.5t17.5 -22t28 -6q18 0 29 5.5t17 21.5t8.5 44t2.5 73v27h-61v83h161v-337z" />
    <glyph glyph-name="H" unicode="H" horiz-adv-x="390" 
d="M140 300v-300h-100v666h100v-272h110v272h100v-666h-100v300h-110z" />
    <glyph glyph-name="I" unicode="I" horiz-adv-x="180" 
d="M140 0h-100v666h100v-666z" />
    <glyph glyph-name="J" unicode="J" horiz-adv-x="229" 
d="M189 666v-456q0 -36 -1.5 -62t-4.5 -45t-8.5 -33t-13.5 -26q-30 -44 -100 -44h-48v93h24q30 0 41 21.5t11 78.5v473h100z" />
    <glyph glyph-name="K" unicode="K" horiz-adv-x="390" 
d="M140 666v-266l117 266h105l-115 -232l130 -434h-106l-85 309l-46 -92v-217h-100v666h100z" />
    <glyph glyph-name="L" unicode="L" horiz-adv-x="319" 
d="M306 0h-266v666h100v-573h166v-93z" />
    <glyph glyph-name="M" unicode="M" horiz-adv-x="508" 
d="M375 0v454l-93 -454h-51l-98 454v-454h-93v666h134l82 -393l77 393h135v-666h-93z" />
    <glyph glyph-name="N" unicode="N" horiz-adv-x="410" 
d="M277 0l-144 401v-401h-93v666h101l136 -385v385h93v-666h-93z" />
    <glyph glyph-name="O" unicode="O" horiz-adv-x="366" 
d="M126 228q0 -45 2.5 -73.5t8.5 -44.5t17 -21.5t29 -5.5t29 5.5t17 21.5t8.5 44t2.5 73v212q0 45 -2.5 73t-8.5 44t-17 21.5t-29 5.5q-30 0 -42.5 -21.5t-13.5 -75.5q-1 -21 -1 -33v-14v-211zM340 217q0 -38 -1.5 -64.5t-6 -46t-12.5 -34.5t-20 -30q-21 -25 -51.5 -38.5
t-65.5 -13.5t-66 13.5t-51 38.5q-12 15 -19.5 30.5t-12 35t-6.5 46t-2 63.5v232q0 38 2 64.5t6.5 46t12 34.5t19.5 29q21 26 51.5 39.5t65.5 13.5t66 -14t51 -39q12 -15 20 -30t12.5 -34.5t6 -45.5t1.5 -64v-232z" />
    <glyph glyph-name="P" unicode="P" horiz-adv-x="373" 
d="M172 368q47 0 64 20t17 78q0 33 -3.5 53.5t-12.5 32.5t-25 16.5t-40 4.5h-32v-205h32zM140 0h-100v666h140q49 0 77.5 -8t48.5 -28q24 -25 35.5 -61t11.5 -93q0 -66 -11 -103.5t-36 -61.5q-22 -20 -50 -28t-76 -8h-40v-275z" />
    <glyph glyph-name="Q" unicode="Q" horiz-adv-x="370" 
d="M126 228q0 -45 2.5 -73.5t8.5 -44.5t17 -21.5t29 -5.5t29 5.5t17 21.5t8.5 44t2.5 73v212q0 45 -2.5 73t-8.5 44t-17 21.5t-29 5.5q-30 0 -42.5 -21.5t-13.5 -75.5q-1 -21 -1 -33v-14v-211zM361 -50q-46 1 -69.5 12.5t-42.5 41.5q-20 -8 -32.5 -11t-33.5 -3
q-35 0 -66 13.5t-51 38.5q-12 15 -19.5 30.5t-12 35t-6.5 46t-2 63.5v232q0 38 2 64.5t6.5 46t12 34.5t19.5 29q21 26 51.5 39.5t65.5 13.5t66 -14t51 -39q12 -15 20 -30t12.5 -34.5t6 -45.5t1.5 -64v-232q0 -31 -1 -53.5t-3.5 -39.5t-7 -30t-11.5 -25q9 -11 18 -15t26 -6
v-98z" />
    <glyph glyph-name="R" unicode="R" horiz-adv-x="377" 
d="M172 371q42 0 58.5 22t16.5 79t-16.5 79t-58.5 22h-32v-202h32zM140 0h-100v666h140q87 0 127 -46t40 -146q0 -66 -15 -103.5t-52 -65.5l77 -305h-106l-64 278h-47v-278z" />
    <glyph glyph-name="S" unicode="S" horiz-adv-x="364" 
d="M240 502q-5 45 -18 63t-41 18q-26 0 -41 -18t-15 -48q0 -17 4 -31.5t13.5 -30t27 -34t44.5 -42.5l36.5 -34l27 -27t20 -23t15.5 -22q31 -50 31 -113q0 -38 -11.5 -69t-32.5 -53.5t-50.5 -35t-64.5 -12.5q-73 0 -118 48.5t-47 131.5l95 16q4 -103 70 -103q29 0 45.5 19.5
t16.5 52.5q0 18 -3.5 32.5t-15 30.5t-32 36.5l-53.5 51.5t-52 52.5t-33 44.5q-30 51 -30 108q0 75 43 120t114 45q133 0 151 -159z" />
    <glyph glyph-name="T" unicode="T" horiz-adv-x="341" 
d="M219 0h-100v573h-106v93h314v-93h-108v-573z" />
    <glyph glyph-name="U" unicode="U" horiz-adv-x="393" 
d="M353 666v-449q0 -38 -1.5 -64.5t-6 -46t-12.5 -34.5t-20 -30q-21 -25 -51.5 -38.5t-65.5 -13.5t-66 13.5t-51 38.5q-12 15 -19.5 30.5t-12 35t-6 46t-1.5 63.5v449h100v-439q0 -45 2 -73t8 -44t17 -21.5t29 -5.5t29 5.5t17 21.5t8.5 44t2.5 73v439h100z" />
    <glyph glyph-name="V" unicode="V" horiz-adv-x="372" 
d="M141 0l-128 666h102l77 -427l68 427h99l-114 -666h-104z" />
    <glyph glyph-name="W" unicode="W" horiz-adv-x="536" 
d="M334 0l-68 397l-66 -397h-87l-100 666h100l50 -392l63 392h83l66 -392l51 392h97l-102 -666h-87z" />
    <glyph glyph-name="X" unicode="X" horiz-adv-x="387" 
d="M244 342l129 -342h-105l-78 215l-74 -215h-103l125 342l-120 324h105l69 -196l65 196h104z" />
    <glyph glyph-name="Y" unicode="Y" horiz-adv-x="371" 
d="M238 0h-100v269l-125 397h104l71 -262l69 262h101l-120 -397v-269z" />
    <glyph glyph-name="Z" unicode="Z" horiz-adv-x="338" 
d="M318 0h-298v93l192 480h-178v93h284v-93l-191 -480h191v-93z" />
    <glyph glyph-name="bracketleft" unicode="[" horiz-adv-x="240" 
d="M200 580h-66v-588h66v-86h-160v760h160v-86z" />
    <glyph glyph-name="backslash" unicode="\" horiz-adv-x="451" 
d="M111 700l300 -733h-71l-300 733h71z" />
    <glyph glyph-name="bracketright" unicode="]" horiz-adv-x="240" 
d="M40 -8h66v588h-66v86h160v-760h-160v86z" />
    <glyph glyph-name="asciicircum" unicode="^" 
d="M11 373l192 293h93l193 -293h-90l-150 220l-148 -220h-90z" />
    <glyph glyph-name="underscore" unicode="_" 
d="M500 -167h-500v96h500v-96z" />
    <glyph glyph-name="grave" unicode="`" horiz-adv-x="275" 
d="M139 580l-73 80h97l46 -80h-70z" />
    <glyph glyph-name="a" unicode="a" horiz-adv-x="342" 
d="M209 253q-49 -32 -69.5 -60t-20.5 -66q0 -25 8.5 -39t22.5 -14q31 0 59 46v133zM219 0q-3 18 -4 27t-3 29q-29 -32 -54 -47t-50 -15q-38 0 -60 31t-22 85q0 51 22.5 87.5t76.5 73.5l17 11.5t17 11t21 12l29 16.5v32q0 40 -7 53.5t-30 13.5q-21 0 -30 -15.5t-11 -51.5h-91
q4 72 40.5 110.5t100.5 38.5q30 0 55 -11t39 -31q8 -11 12.5 -21t7 -23t3.5 -30.5t1 -43.5v-164q0 -43 0.5 -69.5t1.5 -44.5t3 -32.5t5 -32.5h-90z" />
    <glyph glyph-name="b" unicode="b" horiz-adv-x="330" 
d="M130 96q22 -22 45 -22t31 15t8 59v200q0 43 -8 58t-31 15q-22 0 -45 -21v-304zM130 448q24 29 45.5 42t47.5 13q45 0 63 -34.5t18 -121.5v-198q0 -87 -18 -121t-63 -34q-26 0 -47.5 12t-45.5 42v-48h-90v666h90v-218z" />
    <glyph glyph-name="c" unicode="c" horiz-adv-x="318" 
d="M201 325v16q0 49 -8 64.5t-33 15.5q-44 0 -44 -68v-209q0 -70 43 -70q26 0 34 17.5t8 71.5v18h90v-14v-8q0 -23 -1 -39.5t-3.5 -28.5t-6.5 -21.5t-11 -20.5q-17 -26 -45.5 -40.5t-61.5 -14.5q-32 0 -61 13.5t-46 36.5q-16 20 -22.5 46.5t-6.5 70.5v174q0 43 6.5 69.5
t22.5 47.5q17 23 46.5 37t61.5 14q33 0 61 -14t45 -40q13 -20 17.5 -42t4.5 -64v-6v-12h-90z" />
    <glyph glyph-name="d" unicode="d" horiz-adv-x="330" 
d="M200 400q-22 21 -45 21t-31 -15t-8 -58v-200q0 -44 8 -59t31 -15t45 22v304zM290 666v-666h-90v48q-25 -30 -46 -42t-47 -12q-45 0 -63 34t-18 121v198q0 87 18 121.5t63 34.5q26 0 47 -13t46 -42v218h90z" />
    <glyph glyph-name="e" unicode="e" horiz-adv-x="322" 
d="M206 353q0 68 -45 68t-45 -68v-46h90v46zM117 232v-88q-1 -70 44 -70q26 0 34.5 16t8.5 65v16h92v-12v-11q0 -21 -1 -36t-3.5 -26.5t-7 -20.5t-11.5 -19q-18 -25 -47 -38.5t-62 -13.5q-32 0 -62 13.5t-47 36.5q-16 20 -22.5 47t-6.5 70v174q0 43 6.5 69.5t21.5 47.5
q18 23 47 37t61 14t60 -13.5t46 -37.5q15 -21 21.5 -47t6.5 -70v-103h-179z" />
    <glyph glyph-name="f" unicode="f" horiz-adv-x="253" 
d="M223 415h-57v-415h-90v415h-56v81h56v58q0 63 25.5 91t82.5 28q27 0 49 -7v-76q-10 1 -14.5 1h-9.5q-24 0 -33.5 -14t-9.5 -49v-32h57v-81z" />
    <glyph glyph-name="g" unicode="g" horiz-adv-x="314" 
d="M134 -13q-38 -17 -38 -46q0 -21 19 -34t51 -13q38 0 60 14t22 37q0 20 -13 28t-47 10l-32 3zM106 266q0 -34 9.5 -49t32.5 -15q22 0 31.5 14.5t9.5 49.5v96q0 35 -9.5 49.5t-31.5 14.5q-23 0 -32.5 -14.5t-9.5 -49.5v-96zM323 424h-3q-30 0 -51 -20q1 -9 1.5 -14.5
t0.5 -14.5v-23v-84q0 -70 -30.5 -106.5t-88.5 -36.5h-11.5t-14.5 2q-21 -16 -21 -34q0 -13 12 -18.5t44 -7.5q34 -2 57 -4.5t38.5 -6.5t25.5 -10.5t19 -15.5q27 -28 27 -76q0 -63 -45 -97t-130 -34q-73 0 -112.5 23t-39.5 65q0 27 17 44.5t64 40.5q-30 12 -43.5 27t-13.5 36
q0 20 13.5 39.5t43.5 41.5q-32 23 -44.5 50.5t-12.5 77.5v92q0 143 126 143q35 0 59 -13t44 -42q14 26 29.5 37.5t39.5 14.5v-76z" />
    <glyph glyph-name="h" unicode="h" horiz-adv-x="339" 
d="M130 443q31 34 53.5 47t48.5 13q39 0 53 -24.5t14 -92.5v-386h-90v365q0 35 -4.5 45.5t-18.5 10.5q-27 0 -56 -42v-379h-90v666h90v-223z" />
    <glyph glyph-name="i" unicode="i" horiz-adv-x="170" 
d="M130 576h-90v90h90v-90zM130 0h-90v496h90v-496z" />
    <glyph glyph-name="j" unicode="j" horiz-adv-x="180" 
d="M140 576h-90v90h90v-90zM140 496v-509q0 -45 -5.5 -75t-18 -48t-33 -26t-50.5 -8q-12 0 -22 1.5t-24 5.5v86q8 -2 11.5 -2.5t8.5 -0.5q23 0 33 13.5t10 43.5v519h90z" />
    <glyph glyph-name="k" unicode="k" horiz-adv-x="348" 
d="M130 306l92 190h91l-90 -166l98 -330h-88l-64 231l-39 -73v-158h-90v666h90v-360z" />
    <glyph glyph-name="l" unicode="l" horiz-adv-x="170" 
d="M130 0h-90v666h90v-666z" />
    <glyph glyph-name="m" unicode="m" horiz-adv-x="508" 
d="M130 443q31 34 53.5 47t48.5 13q56 0 65 -60q32 34 55 47t50 13q38 0 52 -24.5t14 -92.5v-386h-90v365q0 35 -4 45.5t-18 10.5q-27 0 -57 -42v-379h-90v365q0 35 -4.5 45.5t-18.5 10.5q-27 0 -56 -42v-379h-90v496h90v-53z" />
    <glyph glyph-name="n" unicode="n" horiz-adv-x="339" 
d="M130 443q31 34 53.5 47t48.5 13q39 0 53 -24.5t14 -92.5v-386h-90v365q0 35 -4.5 45.5t-18.5 10.5q-27 0 -56 -42v-379h-90v496h90v-53z" />
    <glyph glyph-name="o" unicode="o" horiz-adv-x="319" 
d="M116 144q0 -70 43 -69q43 0 43 68v210q0 68 -43 68t-43 -68v-209zM292 162q0 -45 -6.5 -71.5t-21.5 -46.5q-17 -23 -45.5 -36.5t-59.5 -13.5t-59.5 13.5t-45.5 36.5q-15 20 -21.5 46.5t-6.5 70.5v174q0 43 6.5 69.5t21.5 47.5q17 23 45.5 37t59.5 14t59.5 -14t45.5 -37
q15 -21 21.5 -47.5t6.5 -69.5v-173z" />
    <glyph glyph-name="p" unicode="p" horiz-adv-x="330" 
d="M130 96q22 -22 45 -22t31 15t8 59v200q0 43 -8 58t-31 15q-22 0 -45 -21v-304zM130 496v-48q24 29 45.5 42t47.5 13q45 0 63 -34.5t18 -121.5v-198q0 -87 -18 -121t-63 -34q-26 0 -47.5 12t-45.5 42v-218h-90v666h90z" />
    <glyph glyph-name="q" unicode="q" horiz-adv-x="330" 
d="M200 400q-22 21 -45 21t-31 -15t-8 -58v-200q0 -44 8 -59t31 -15t45 22v304zM290 -170h-90v218q-25 -30 -46 -42t-47 -12q-45 0 -63 34t-18 121v198q0 87 18 121.5t63 34.5q26 0 47 -13t46 -42v48h90v-666z" />
    <glyph glyph-name="r" unicode="r" horiz-adv-x="251" 
d="M130 496v-71q26 44 48.5 60t58.5 18v-98q-11 2 -16.5 3.5t-14.5 1.5q-76 0 -76 -110v-300h-90v496h90z" />
    <glyph glyph-name="s" unicode="s" horiz-adv-x="321" 
d="M211 359q-8 35 -18.5 48.5t-31.5 13.5q-20 0 -31 -12t-11 -32t13 -37t53 -48q51 -39 73.5 -62.5t32.5 -47.5q5 -12 7.5 -27t2.5 -31q0 -60 -36.5 -95t-99.5 -35t-98.5 34.5t-46.5 106.5l84 20q10 -45 23.5 -63t39.5 -18q20 0 32 13t12 34q0 11 -2.5 20t-9.5 18.5t-19 20
t-31 24.5q-40 30 -60 48.5t-34 38.5q-26 33 -26 83q0 58 37 93.5t98 35.5q114 0 132 -124z" />
    <glyph glyph-name="t" unicode="t" horiz-adv-x="259" 
d="M239 415h-74v-247q0 -52 9.5 -68.5t38.5 -16.5q7 0 12 0.5t14 3.5v-85q-19 -5 -34 -6.5t-29 -1.5q-54 0 -77.5 32t-23.5 107v282h-55v81h55v137h90v-137h74v-81z" />
    <glyph glyph-name="u" unicode="u" horiz-adv-x="339" 
d="M299 0h-90v53q-32 -34 -54 -46.5t-49 -12.5q-38 0 -52 24.5t-14 91.5v386h90v-365q0 -36 4 -46.5t18 -10.5t27.5 10.5t29.5 31.5v380h90v-496z" />
    <glyph glyph-name="v" unicode="v" horiz-adv-x="313" 
d="M120 0l-107 496h92l55 -307l51 307h89l-96 -496h-84z" />
    <glyph glyph-name="w" unicode="w" horiz-adv-x="462" 
d="M284 0l-52 283l-49 -283h-79l-91 496h85l48 -289l50 289h70l55 -283l45 283h82l-85 -496h-79z" />
    <glyph glyph-name="x" unicode="x" horiz-adv-x="319" 
d="M206 261l100 -261h-92l-57 156l-54 -156h-90l97 261l-97 235h95l50 -136l48 136h91z" />
    <glyph glyph-name="y" unicode="y" horiz-adv-x="313" 
d="M300 496l-102 -508q-7 -37 -11.5 -58.5t-9 -34.5t-9.5 -20t-13 -16q-17 -18 -42 -26.5t-62 -8.5h-16t-16 2v87q5 1 9.5 1h8.5q35 0 50.5 16t26.5 65l-101 501h91l54 -320l53 320h89z" />
    <glyph glyph-name="z" unicode="z" horiz-adv-x="291" 
d="M271 0h-251v76l152 339h-139v81h238v-81l-149 -334h149v-81z" />
    <glyph glyph-name="braceleft" unicode="{" horiz-adv-x="308" 
d="M128 248q34 -21 47 -47.5t13 -75.5v-139v-33q1 -38 18 -50.5t66 -12.5h14v-74h-14q-8 -1 -14.5 -1h-11.5q-81 0 -115.5 33.5t-34.5 111.5v159q0 44 -12.5 64t-43.5 27v75q32 8 44 27.5t12 64.5v164q0 77 34.5 109t117.5 32h16.5t21.5 -1v-73l-12 -1q-51 0 -68 -12.5
t-18 -50.5v-32v-142q0 -25 -3 -43t-9.5 -32t-18 -25t-29.5 -22z" />
    <glyph glyph-name="bar" unicode="|" 
d="M289 666v-841h-79v841h79z" />
    <glyph glyph-name="braceright" unicode="}" horiz-adv-x="308" 
d="M180 248q-34 21 -47 47.5t-13 75.5v140l-1 33q0 38 -17 50.5t-66 12.5h-14v74q15 1 23 1h16q82 0 116.5 -33t34.5 -112v-159q0 -45 12.5 -65t43.5 -27v-74q-32 -8 -44 -28t-12 -65v-164q0 -76 -35 -108t-117 -32h-16.5t-21.5 1v73l12 1q51 0 68 12.5t18 50.5v32v142
q0 25 3 43t9.5 31.5t18 24.5t29.5 22z" />
    <glyph glyph-name="asciitilde" unicode="~" horiz-adv-x="499" 
d="M497 632q-38 -63 -68.5 -89t-68.5 -26q-10 0 -18.5 1t-20 4.5t-29 11l-46.5 19.5l-44 19q-23 10 -35 13.5t-23 3.5q-27 0 -47 -19t-49 -69l-46 50q38 65 69 91.5t70 26.5q11 0 22 -1.5t25 -6t32.5 -12t44.5 -19.5l39.5 -16.5l25 -10.5t16 -5t12.5 -1q25 0 45.5 19
t46.5 65z" />
    <glyph glyph-name="nonbreakingspace" unicode="&#xa0;" horiz-adv-x="173" 
 />
    <glyph glyph-name="exclamdown" unicode="&#xa1;" horiz-adv-x="176" 
d="M40 496h96v-103h-96v103zM119 300l21 -470h-103l20 470h62z" />
    <glyph glyph-name="cent" unicode="&#xa2;" horiz-adv-x="359" 
d="M208 700v-107q57 -12 80.5 -48.5t23.5 -109.5v-6v-13h-90v16q0 49 -8 64.5t-34 15.5q-43 0 -43 -68v-209q0 -36 10 -52.5t33 -16.5q26 0 34 17t8 72v17h90v-13v-8q0 -67 -15 -100t-56 -53q-8 -5 -14.5 -7t-18.5 -4v-120h-53v120q-58 13 -83 51.5t-25 113.5v174
q0 66 18 101.5t61 54.5q8 4 13.5 5.5t15.5 3.5v109h53z" />
    <glyph glyph-name="sterling" unicode="&#xa3;" horiz-adv-x="397" 
d="M300 291h-85q6 -25 8.5 -43.5t2.5 -38.5q0 -27 -5.5 -46.5t-20.5 -45.5l9 -4l21 -9q12 -5 19 -7.5t13 -2.5q17 0 27 22t10 60l85 -4q-1 -85 -30.5 -132t-81.5 -47q-19 0 -39 6.5t-57 24.5q-17 9 -23.5 11t-14.5 2q-15 0 -30 -11t-33 -36l-57 61q26 40 48 56.5t54 21.5
q11 21 15 38t4 39q0 19 -3.5 37.5t-12.5 47.5h-84v61h65l-6 16q-10 29 -16.5 49.5t-10.5 36.5t-5.5 29t-1.5 28q0 76 41 120.5t111 44.5q69 0 108 -47t39 -132v-9l-94 -3q-1 53 -13.5 76.5t-39.5 23.5q-25 0 -40 -19.5t-15 -51.5q0 -19 4 -43t12 -50l14 -51l5 -18h104v-61z
" />
    <glyph glyph-name="currency" unicode="&#xa4;" horiz-adv-x="697" 
d="M350 519q-31 0 -59 -12t-48 -32t-32 -47.5t-12 -58.5t12 -58.5t32 -48t47 -32.5t58 -12t58.5 12t47.5 32.5t32 48t12 58.5t-11.5 58t-32 47.5t-47.5 32.5t-57 12zM149 230q-47 65 -47 139q0 39 11 71.5t36 67.5l-100 101l58 58l100 -101q36 25 69 36t73 11q38 0 71 -10.5
t68 -34.5l99 98l57 -58l-98 -98q26 -35 37 -68.5t11 -73.5q0 -38 -10.5 -70.5t-35.5 -67.5l100 -99l-57 -58l-100 99q-66 -48 -143 -48q-38 0 -71 11t-71 37l-99 -99l-58 58z" />
    <glyph glyph-name="yen" unicode="&#xa5;" horiz-adv-x="0" 
 />
    <glyph glyph-name="section" unicode="&#xa7;" horiz-adv-x="389" 
d="M169 404q-40 -17 -40 -43q0 -9 4 -17t16 -22l76 -90q34 14 34 48q0 10 -5.5 19.5t-19.5 26.5zM231 521v22q0 52 -36 52q-14 0 -22.5 -8t-8.5 -20q0 -14 15 -31l9 -9l126 -155q35 -42 35 -91q0 -78 -75 -110l10 -12q12 -16 19.5 -38t7.5 -42q0 -51 -33.5 -81.5
t-88.5 -30.5q-61 0 -95.5 34t-34.5 94v8t1 11h92l-1.5 -10.5t-0.5 -7.5q0 -23 10.5 -35.5t28.5 -12.5q14 0 23 9t9 23q0 8 -3.5 14.5t-14.5 20.5l-108 130q-32 39 -44 62.5t-12 50.5q0 37 20.5 62t64.5 43l-10 11q-40 46 -40 94t34 78t89 30q57 0 91 -34t34 -91v-11.5
t-1 -18.5h-90z" />
    <glyph glyph-name="dieresis" unicode="&#xa8;" horiz-adv-x="360" 
d="M293 578h-86v88h86v-88zM153 578h-86v88h86v-88z" />
    <glyph glyph-name="copyright" unicode="&#xa9;" horiz-adv-x="782" 
d="M582 296q-6 -77 -56 -122t-129 -45q-44 0 -80.5 15t-62.5 42.5t-40.5 66t-14.5 85.5q0 46 15 84.5t41.5 66t63.5 43t81 15.5q36 0 67.5 -11t55 -30t38 -45.5t17.5 -57.5h-76q-8 38 -35 59t-69 21q-55 0 -87.5 -39.5t-32.5 -105.5q0 -67 32 -106t88 -39q46 0 73.5 26.5
t33.5 76.5h77zM390 623q-60 0 -112 -23t-91 -62t-61.5 -92t-22.5 -113t22.5 -113t61.5 -92t91 -62t111 -23t111 23t91 62t61.5 92t22.5 113t-22.5 113t-61 92t-90.5 62t-111 23zM391 681q72 0 135.5 -27.5t110.5 -74.5t74.5 -110.5t27.5 -135.5t-27.5 -135t-74.5 -110.5
t-110.5 -74.5t-135.5 -27t-136 27t-111 74.5t-74.5 110.5t-27.5 135t27.5 135.5t74.5 110.5t111 74.5t136 27.5z" />
    <glyph glyph-name="ordfeminine" unicode="&#xaa;" horiz-adv-x="410" 
d="M263 525q-13 -7 -34 -10l-29 -3q-35 -5 -50.5 -15.5t-15.5 -30.5t13.5 -31.5t37.5 -11.5q78 0 78 83v19zM362 276h-299v47h299v-47zM271 383q-4 9 -5 15l-1 7l-1 9q-28 -23 -47.5 -31t-49.5 -8q-50 0 -78 23t-28 65t30.5 63.5t97.5 28.5q26 3 41 5t22.5 5t9.5 8.5t2 14.5
q0 44 -58 44q-31 0 -45 -11.5t-18 -40.5h-67q6 101 132 101q66 0 95.5 -23.5t29.5 -74.5v-14v-37q-1 -6 -1 -15v-22v-28q0 -36 2.5 -51.5t9.5 -32.5h-73z" />
    <glyph glyph-name="guillemotleft" unicode="&#xab;" horiz-adv-x="314" 
d="M40 181v143l89 76v-112l-30 -35l30 -34v-113zM184 181v143l90 82v-119l-31 -34l31 -34v-119z" />
    <glyph glyph-name="logicalnot" unicode="&#xac;" 
d="M418 199h-409v73h483v-272h-74v199z" />
    <glyph glyph-name="macron" unicode="&#xaf;" horiz-adv-x="326" 
d="M66 656h193v-73h-193v73z" />
    <glyph glyph-name="degree" unicode="&#xb0;" horiz-adv-x="516" 
d="M257 621q-38 0 -64.5 -27t-26.5 -65t26.5 -65t64.5 -27t65 27t27 65t-27 65t-65 27zM258 681q33 0 61.5 -12t49.5 -32.5t33.5 -48t12.5 -59.5q0 -31 -12.5 -59t-33.5 -48.5t-49.5 -32.5t-61.5 -12t-61.5 12t-49.5 32.5t-33.5 48.5t-12.5 59q0 32 12.5 59.5t33.5 48
t49.5 32.5t61.5 12z" />
    <glyph glyph-name="plusminus" unicode="&#xb1;" horiz-adv-x="503" 
d="M493 136v-82h-484v82h484zM210 440v189h82v-189h201v-81h-200v-180h-82v179h-202v82h201z" />
    <glyph glyph-name="acute" unicode="&#xb4;" horiz-adv-x="275" 
d="M112 660h97l-73 -80h-70z" />
    <glyph glyph-name="mu" unicode="&#xb5;" 
d="M37 485h99v-265q0 -74 28.5 -112t83.5 -38q53 0 83 41.5t30 113.5v260h100v-485h-99v68q-23 -45 -49 -63t-66 -18q-38 0 -63 15.5t-48 53.5v-226h-99v655z" />
    <glyph glyph-name="paragraph" unicode="&#xb6;" horiz-adv-x="576" 
d="M236 320q-5 -1 -8 -1h-5q-40 0 -73 12.5t-57 35t-37 54.5t-13 70q0 58 29.5 101.5t80.5 59.5q24 8 54 12t62 4h240v-49h-48v-712h-65v711h-92v-711h-68v413z" />
    <glyph glyph-name="periodcentered" unicode="&#xb7;" horiz-adv-x="188" 
d="M148 289h-108v115h108v-115z" />
    <glyph glyph-name="cedilla" unicode="&#xb8;" horiz-adv-x="346" 
d="M212 -114l-21 -56h-47l17 56h-27v68h78v-68z" />
    <glyph glyph-name="ordmasculine" unicode="&#xba;" horiz-adv-x="422" 
d="M210 628q-36 0 -57 -26.5t-21 -73.5t20.5 -73t58.5 -26q37 0 57.5 26t20.5 73t-21 73.5t-58 26.5zM364 276h-300v47h300v-47zM212 681q67 0 108 -42t41 -111t-41 -111t-109 -42q-69 0 -110 42t-41 111t41.5 111t110.5 42z" />
    <glyph glyph-name="guillemotright" unicode="&#xbb;" horiz-adv-x="314" 
d="M274 324v-143l-90 -75v113l31 34l-31 34v113zM129 324v-143l-89 -81v119l30 34l-30 34v119z" />
    <glyph glyph-name="questiondown" unicode="&#xbf;" horiz-adv-x="352" 
d="M132 496h97v-103h-97v103zM222 300v-21q0 -37 -3.5 -71.5t-9.5 -59.5q-4 -15 -8 -28t-10.5 -27.5t-16 -32.5l-23.5 -44q-13 -23 -17.5 -35.5t-4.5 -27.5q0 -23 10 -35.5t27 -12.5q21 0 35.5 16.5t29.5 54.5l81 -31q-20 -63 -54 -92t-91 -29q-60 0 -94 33t-34 91
q0 17 2.5 31t8.5 30t16.5 36t27.5 48q14 24 23 44t14.5 40.5t8 42.5t2.5 49v12l-1 19h81z" />
    <glyph glyph-name="Agrave" unicode="&#xc0;" horiz-adv-x="381" 
d="M227 240l-40 266l-38 -266h78zM135 146l-23 -146h-99l109 666h130l116 -666h-102l-24 146h-107zM171 733l-73 80h97l46 -80h-70z" />
    <glyph glyph-name="Aacute" unicode="&#xc1;" horiz-adv-x="381" 
d="M227 240l-40 266l-38 -266h78zM135 146l-23 -146h-99l109 666h130l116 -666h-102l-24 146h-107zM164 813h97l-73 -80h-70z" />
    <glyph glyph-name="Acircumflex" unicode="&#xc2;" horiz-adv-x="381" 
d="M227 240l-40 266l-38 -266h78zM135 146l-23 -146h-99l109 666h130l116 -666h-102l-24 146h-107zM240 813l58 -80h-80l-28 30l-29 -30h-80l59 80h100z" />
    <glyph glyph-name="Atilde" unicode="&#xc3;" horiz-adv-x="381" 
d="M227 240l-40 266l-38 -266h78zM135 146l-23 -146h-99l109 666h130l116 -666h-102l-24 146h-107zM104 807q15 8 27 11.5t29 3.5q11 0 20 -1.5t22 -6.5q22 -8 29.5 -10t18.5 -2q12 0 20.5 3t26.5 14v-69q-18 -11 -26.5 -14t-20.5 -3q-11 0 -18.5 2t-29.5 10q-13 5 -22 6.5
t-20 1.5q-17 0 -29 -3.5t-27 -11.5v69z" />
    <glyph glyph-name="Adieresis" unicode="&#xc4;" horiz-adv-x="381" 
d="M227 240l-40 266l-38 -266h78zM135 146l-23 -146h-99l109 666h130l116 -666h-102l-24 146h-107zM303 733h-86v88h86v-88zM163 733h-86v88h86v-88z" />
    <glyph glyph-name="Aring" unicode="&#xc5;" horiz-adv-x="381" 
d="M227 240l-40 266l-38 -266h78zM135 146l-23 -146h-99l109 666h130l116 -666h-102l-24 146h-107zM190 838q-16 0 -26.5 -10.5t-10.5 -24.5t10.5 -24.5t26.5 -10.5q15 0 25.5 10.5t10.5 24.5t-10.5 24.5t-25.5 10.5zM190 873q30 0 51.5 -20.5t21.5 -49.5t-21.5 -49.5
t-51.5 -20.5q-31 0 -52.5 20.5t-21.5 49.5t21.5 49.5t52.5 20.5z" />
    <glyph glyph-name="AE" unicode="&#xc6;" horiz-adv-x="607" 
d="M295 506l-79 -266h79v266zM188 146l-45 -146h-103l207 666h320v-93h-172v-181h124v-93h-123v-205h172v-94h-273v146h-107z" />
    <glyph glyph-name="Ccedilla" unicode="&#xc7;" horiz-adv-x="392" 
d="M235 -114l-21 -56h-47l17 56h-27v68h78v-68zM252 446q-1 5 -1 9v7q0 36 -2.5 59.5t-8.5 37t-17 19t-28 5.5t-28 -5.5t-17 -21.5t-8.5 -44t-2.5 -73v-211q0 -45 2.5 -73.5t8.5 -44.5t17 -21.5t28 -5.5q30 0 41.5 21t13.5 76l1 36v20h101v-24v-13q0 -27 -1 -46t-3.5 -33.5
t-6.5 -26.5t-11 -25q-20 -38 -54.5 -58t-79.5 -20q-35 0 -66 13.5t-51 38.5q-12 16 -20 30.5t-12.5 34t-6 46.5t-1.5 67v226q0 40 1.5 67t6 46.5t12.5 34t20 29.5q21 26 51.5 39.5t65.5 13.5q44 0 79.5 -19.5t54.5 -53.5q7 -13 11 -24.5t6.5 -25t3.5 -31t1 -42.5v-12v-22
h-100z" />
    <glyph glyph-name="Egrave" unicode="&#xc8;" horiz-adv-x="332" 
d="M312 573h-172v-181h123v-93h-123v-205h172v-94h-272v666h272v-93zM177 733l-73 80h97l46 -80h-70z" />
    <glyph glyph-name="Eacute" unicode="&#xc9;" horiz-adv-x="332" 
d="M312 573h-172v-181h123v-93h-123v-205h172v-94h-272v666h272v-93zM150 813h97l-73 -80h-70z" />
    <glyph glyph-name="Ecircumflex" unicode="&#xca;" horiz-adv-x="332" 
d="M312 573h-172v-181h123v-93h-123v-205h172v-94h-272v666h272v-93zM225 813l58 -80h-80l-28 30l-29 -30h-80l59 80h100z" />
    <glyph glyph-name="Edieresis" unicode="&#xcb;" horiz-adv-x="332" 
d="M312 573h-172v-181h123v-93h-123v-205h172v-94h-272v666h272v-93zM290 733h-86v88h86v-88zM150 733h-86v88h86v-88z" />
    <glyph glyph-name="Igrave" unicode="&#xcc;" horiz-adv-x="180" 
d="M140 0h-100v666h100v-666zM92 733l-73 80h97l46 -80h-70z" />
    <glyph glyph-name="Iacute" unicode="&#xcd;" horiz-adv-x="180" 
d="M140 0h-100v666h100v-666zM65 813h97l-73 -80h-70z" />
    <glyph glyph-name="Icircumflex" unicode="&#xce;" horiz-adv-x="180" 
d="M140 0h-100v666h100v-666zM140 813l58 -80h-80l-28 30l-29 -30h-80l59 80h100z" />
    <glyph glyph-name="Idieresis" unicode="&#xcf;" horiz-adv-x="180" 
d="M140 0h-100v666h100v-666zM203 733h-86v88h86v-88zM63 733h-86v88h86v-88z" />
    <glyph glyph-name="Ntilde" unicode="&#xd1;" horiz-adv-x="410" 
d="M277 0l-144 401v-401h-93v666h101l136 -385v385h93v-666h-93zM108 807q15 8 27 11.5t29 3.5q11 0 20 -1.5t22 -6.5q22 -8 29.5 -10t18.5 -2q12 0 20.5 3t26.5 14v-69q-18 -11 -26.5 -14t-20.5 -3q-11 0 -18.5 2t-29.5 10q-13 5 -22 6.5t-20 1.5q-17 0 -29 -3.5t-27 -11.5
v69z" />
    <glyph glyph-name="Ograve" unicode="&#xd2;" horiz-adv-x="366" 
d="M126 228q0 -45 2.5 -73.5t8.5 -44.5t17 -21.5t29 -5.5t29 5.5t17 21.5t8.5 44t2.5 73v212q0 45 -2.5 73t-8.5 44t-17 21.5t-29 5.5q-30 0 -42.5 -21.5t-13.5 -75.5q-1 -21 -1 -33v-14v-211zM340 217q0 -38 -1.5 -64.5t-6 -46t-12.5 -34.5t-20 -30q-21 -25 -51.5 -38.5
t-65.5 -13.5t-66 13.5t-51 38.5q-12 15 -19.5 30.5t-12 35t-6.5 46t-2 63.5v232q0 38 2 64.5t6.5 46t12 34.5t19.5 29q21 26 51.5 39.5t65.5 13.5t66 -14t51 -39q12 -15 20 -30t12.5 -34.5t6 -45.5t1.5 -64v-232zM184 743l-73 80h97l46 -80h-70z" />
    <glyph glyph-name="Oacute" unicode="&#xd3;" horiz-adv-x="366" 
d="M126 228q0 -45 2.5 -73.5t8.5 -44.5t17 -21.5t29 -5.5t29 5.5t17 21.5t8.5 44t2.5 73v212q0 45 -2.5 73t-8.5 44t-17 21.5t-29 5.5q-30 0 -42.5 -21.5t-13.5 -75.5q-1 -21 -1 -33v-14v-211zM340 217q0 -38 -1.5 -64.5t-6 -46t-12.5 -34.5t-20 -30q-21 -25 -51.5 -38.5
t-65.5 -13.5t-66 13.5t-51 38.5q-12 15 -19.5 30.5t-12 35t-6.5 46t-2 63.5v232q0 38 2 64.5t6.5 46t12 34.5t19.5 29q21 26 51.5 39.5t65.5 13.5t66 -14t51 -39q12 -15 20 -30t12.5 -34.5t6 -45.5t1.5 -64v-232zM157 823h97l-73 -80h-70z" />
    <glyph glyph-name="Ocircumflex" unicode="&#xd4;" horiz-adv-x="366" 
d="M126 228q0 -45 2.5 -73.5t8.5 -44.5t17 -21.5t29 -5.5t29 5.5t17 21.5t8.5 44t2.5 73v212q0 45 -2.5 73t-8.5 44t-17 21.5t-29 5.5q-30 0 -42.5 -21.5t-13.5 -75.5q-1 -21 -1 -33v-14v-211zM340 217q0 -38 -1.5 -64.5t-6 -46t-12.5 -34.5t-20 -30q-21 -25 -51.5 -38.5
t-65.5 -13.5t-66 13.5t-51 38.5q-12 15 -19.5 30.5t-12 35t-6.5 46t-2 63.5v232q0 38 2 64.5t6.5 46t12 34.5t19.5 29q21 26 51.5 39.5t65.5 13.5t66 -14t51 -39q12 -15 20 -30t12.5 -34.5t6 -45.5t1.5 -64v-232zM233 823l58 -80h-80l-28 30l-29 -30h-80l59 80h100z" />
    <glyph glyph-name="Otilde" unicode="&#xd5;" horiz-adv-x="367" 
d="M126 228q0 -45 2.5 -73.5t8.5 -44.5t17 -21.5t29 -5.5t29 5.5t17 21.5t8.5 44t2.5 73v212q0 45 -2.5 73t-8.5 44t-17 21.5t-29 5.5q-30 0 -42.5 -21.5t-13.5 -75.5q-1 -21 -1 -33v-14v-211zM340 217q0 -38 -1.5 -64.5t-6 -46t-12.5 -34.5t-20 -30q-21 -25 -51.5 -38.5
t-65.5 -13.5t-66 13.5t-51 38.5q-12 15 -19.5 30.5t-12 35t-6.5 46t-2 63.5v232q0 38 2 64.5t6.5 46t12 34.5t19.5 29q21 26 51.5 39.5t65.5 13.5t66 -14t51 -39q12 -15 20 -30t12.5 -34.5t6 -45.5t1.5 -64v-232zM89 817q15 8 27 11.5t29 3.5q11 0 20 -1.5t22 -6.5
q22 -8 29.5 -10t18.5 -2q12 0 20.5 3t26.5 14v-69q-18 -11 -26.5 -14t-20.5 -3q-11 0 -18.5 2t-29.5 10q-13 5 -22 6.5t-20 1.5q-17 0 -29 -3.5t-27 -11.5v69z" />
    <glyph glyph-name="Odieresis" unicode="&#xd6;" horiz-adv-x="366" 
d="M126 228q0 -45 2.5 -73.5t8.5 -44.5t17 -21.5t29 -5.5t29 5.5t17 21.5t8.5 44t2.5 73v212q0 45 -2.5 73t-8.5 44t-17 21.5t-29 5.5q-30 0 -42.5 -21.5t-13.5 -75.5q-1 -21 -1 -33v-14v-211zM340 217q0 -38 -1.5 -64.5t-6 -46t-12.5 -34.5t-20 -30q-21 -25 -51.5 -38.5
t-65.5 -13.5t-66 13.5t-51 38.5q-12 15 -19.5 30.5t-12 35t-6.5 46t-2 63.5v232q0 38 2 64.5t6.5 46t12 34.5t19.5 29q21 26 51.5 39.5t65.5 13.5t66 -14t51 -39q12 -15 20 -30t12.5 -34.5t6 -45.5t1.5 -64v-232zM296 743h-86v88h86v-88zM156 743h-86v88h86v-88z" />
    <glyph glyph-name="Oslash" unicode="&#xd8;" horiz-adv-x="401" 
d="M151 140q8 -57 54 -57q18 0 29 5.5t17 21.5t8.5 44t2.5 73v200zM255 546q-15 37 -50 37q-30 0 -42.5 -21.5t-13.5 -75.5q0 -21 -0.5 -33t-0.5 -14v-167zM359 678l-27 -69q9 -15 15 -29t9 -31.5t4.5 -41.5t1.5 -58v-232q0 -38 -1.5 -64.5t-6 -46t-12.5 -34.5t-20 -30
q-20 -25 -50.5 -38.5t-65.5 -13.5q-29 0 -53 8t-47 26l-13 -35h-53l31 80q-7 13 -11.5 26t-7 29.5t-3.5 39t-1 53.5v232q0 38 2 64.5t6.5 46t12 34.5t19.5 29q44 53 118 53q50 0 88 -27l11 29h54z" />
    <glyph glyph-name="Ugrave" unicode="&#xd9;" horiz-adv-x="393" 
d="M353 666v-449q0 -38 -1.5 -64.5t-6 -46t-12.5 -34.5t-20 -30q-21 -25 -51.5 -38.5t-65.5 -13.5t-66 13.5t-51 38.5q-12 15 -19.5 30.5t-12 35t-6 46t-1.5 63.5v449h100v-439q0 -45 2 -73t8 -44t17 -21.5t29 -5.5t29 5.5t17 21.5t8.5 44t2.5 73v439h100zM197 733l-73 80
h97l46 -80h-70z" />
    <glyph glyph-name="Uacute" unicode="&#xda;" horiz-adv-x="393" 
d="M353 666v-449q0 -38 -1.5 -64.5t-6 -46t-12.5 -34.5t-20 -30q-21 -25 -51.5 -38.5t-65.5 -13.5t-66 13.5t-51 38.5q-12 15 -19.5 30.5t-12 35t-6 46t-1.5 63.5v449h100v-439q0 -45 2 -73t8 -44t17 -21.5t29 -5.5t29 5.5t17 21.5t8.5 44t2.5 73v439h100zM170 813h97
l-73 -80h-70z" />
    <glyph glyph-name="Ucircumflex" unicode="&#xdb;" horiz-adv-x="393" 
d="M353 666v-449q0 -38 -1.5 -64.5t-6 -46t-12.5 -34.5t-20 -30q-21 -25 -51.5 -38.5t-65.5 -13.5t-66 13.5t-51 38.5q-12 15 -19.5 30.5t-12 35t-6 46t-1.5 63.5v449h100v-439q0 -45 2 -73t8 -44t17 -21.5t29 -5.5t29 5.5t17 21.5t8.5 44t2.5 73v439h100zM246 813l58 -80
h-80l-28 30l-29 -30h-80l59 80h100z" />
    <glyph glyph-name="Udieresis" unicode="&#xdc;" horiz-adv-x="393" 
d="M353 666v-449q0 -38 -1.5 -64.5t-6 -46t-12.5 -34.5t-20 -30q-21 -25 -51.5 -38.5t-65.5 -13.5t-66 13.5t-51 38.5q-12 15 -19.5 30.5t-12 35t-6 46t-1.5 63.5v449h100v-439q0 -45 2 -73t8 -44t17 -21.5t29 -5.5t29 5.5t17 21.5t8.5 44t2.5 73v439h100zM309 733h-86v88
h86v-88zM169 733h-86v88h86v-88z" />
    <glyph glyph-name="germandbls" unicode="&#xdf;" horiz-adv-x="346" 
d="M40 0v530q0 66 34 104.5t94 38.5q57 0 89 -32.5t32 -89.5q0 -36 -12 -57t-40 -33q20 -10 33 -25.5t21 -40.5t11.5 -61.5t3.5 -87.5q0 -63 -5 -102.5t-18 -72.5q-13 -34 -36 -52.5t-52 -18.5h-31v81h11q12 0 20 8.5t12.5 28.5t6.5 54t2 86q0 43 -2.5 72t-8.5 47
t-16.5 26.5t-25.5 11.5v81q23 2 33 13t10 35q0 47 -37 47q-22 0 -30.5 -15t-8.5 -51v-525h-90z" />
    <glyph glyph-name="agrave" unicode="&#xe0;" horiz-adv-x="342" 
d="M209 253q-49 -32 -69.5 -60t-20.5 -66q0 -25 8.5 -39t22.5 -14q31 0 59 46v133zM219 0q-3 18 -4 27t-3 29q-29 -32 -54 -47t-50 -15q-38 0 -60 31t-22 85q0 51 22.5 87.5t76.5 73.5l17 11.5t17 11t21 12l29 16.5v32q0 40 -7 53.5t-30 13.5q-21 0 -30 -15.5t-11 -51.5h-91
q4 72 40.5 110.5t100.5 38.5q30 0 55 -11t39 -31q8 -11 12.5 -21t7 -23t3.5 -30.5t1 -43.5v-164q0 -43 0.5 -69.5t1.5 -44.5t3 -32.5t5 -32.5h-90zM169 570l-73 80h97l46 -80h-70z" />
    <glyph glyph-name="aacute" unicode="&#xe1;" horiz-adv-x="342" 
d="M209 253q-49 -32 -69.5 -60t-20.5 -66q0 -25 8.5 -39t22.5 -14q31 0 59 46v133zM219 0q-3 18 -4 27t-3 29q-29 -32 -54 -47t-50 -15q-38 0 -60 31t-22 85q0 51 22.5 87.5t76.5 73.5l17 11.5t17 11t21 12l29 16.5v32q0 40 -7 53.5t-30 13.5q-21 0 -30 -15.5t-11 -51.5h-91
q4 72 40.5 110.5t100.5 38.5q30 0 55 -11t39 -31q8 -11 12.5 -21t7 -23t3.5 -30.5t1 -43.5v-164q0 -43 0.5 -69.5t1.5 -44.5t3 -32.5t5 -32.5h-90zM142 650h97l-73 -80h-70z" />
    <glyph glyph-name="acircumflex" unicode="&#xe2;" horiz-adv-x="342" 
d="M209 253q-49 -32 -69.5 -60t-20.5 -66q0 -25 8.5 -39t22.5 -14q31 0 59 46v133zM219 0q-3 18 -4 27t-3 29q-29 -32 -54 -47t-50 -15q-38 0 -60 31t-22 85q0 51 22.5 87.5t76.5 73.5l17 11.5t17 11t21 12l29 16.5v32q0 40 -7 53.5t-30 13.5q-21 0 -30 -15.5t-11 -51.5h-91
q4 72 40.5 110.5t100.5 38.5q30 0 55 -11t39 -31q8 -11 12.5 -21t7 -23t3.5 -30.5t1 -43.5v-164q0 -43 0.5 -69.5t1.5 -44.5t3 -32.5t5 -32.5h-90zM218 650l58 -80h-80l-28 30l-29 -30h-80l59 80h100z" />
    <glyph glyph-name="atilde" unicode="&#xe3;" horiz-adv-x="342" 
d="M209 253q-49 -32 -69.5 -60t-20.5 -66q0 -25 8.5 -39t22.5 -14q31 0 59 46v133zM219 0q-3 18 -4 27t-3 29q-29 -32 -54 -47t-50 -15q-38 0 -60 31t-22 85q0 51 22.5 87.5t76.5 73.5l17 11.5t17 11t21 12l29 16.5v32q0 40 -7 53.5t-30 13.5q-21 0 -30 -15.5t-11 -51.5h-91
q4 72 40.5 110.5t100.5 38.5q30 0 55 -11t39 -31q8 -11 12.5 -21t7 -23t3.5 -30.5t1 -43.5v-164q0 -43 0.5 -69.5t1.5 -44.5t3 -32.5t5 -32.5h-90zM70 644q15 8 27 11.5t29 3.5q11 0 20 -1.5t22 -6.5q22 -8 29.5 -10t18.5 -2q12 0 20.5 3t26.5 14v-69q-18 -11 -26.5 -14
t-20.5 -3q-11 0 -18.5 2t-29.5 10q-13 5 -22 6.5t-20 1.5q-17 0 -29 -3.5t-27 -11.5v69z" />
    <glyph glyph-name="adieresis" unicode="&#xe4;" horiz-adv-x="342" 
d="M209 253q-49 -32 -69.5 -60t-20.5 -66q0 -25 8.5 -39t22.5 -14q31 0 59 46v133zM219 0q-3 18 -4 27t-3 29q-29 -32 -54 -47t-50 -15q-38 0 -60 31t-22 85q0 51 22.5 87.5t76.5 73.5l17 11.5t17 11t21 12l29 16.5v32q0 40 -7 53.5t-30 13.5q-21 0 -30 -15.5t-11 -51.5h-91
q4 72 40.5 110.5t100.5 38.5q30 0 55 -11t39 -31q8 -11 12.5 -21t7 -23t3.5 -30.5t1 -43.5v-164q0 -43 0.5 -69.5t1.5 -44.5t3 -32.5t5 -32.5h-90zM281 570h-86v88h86v-88zM141 570h-86v88h86v-88z" />
    <glyph glyph-name="aring" unicode="&#xe5;" horiz-adv-x="342" 
d="M209 253q-49 -32 -69.5 -60t-20.5 -66q0 -25 8.5 -39t22.5 -14q31 0 59 46v133zM219 0q-3 18 -4 27t-3 29q-29 -32 -54 -47t-50 -15q-38 0 -60 31t-22 85q0 51 22.5 87.5t76.5 73.5l17 11.5t17 11t21 12l29 16.5v32q0 40 -7 53.5t-30 13.5q-21 0 -30 -15.5t-11 -51.5h-91
q4 72 40.5 110.5t100.5 38.5q30 0 55 -11t39 -31q8 -11 12.5 -21t7 -23t3.5 -30.5t1 -43.5v-164q0 -43 0.5 -69.5t1.5 -44.5t3 -32.5t5 -32.5h-90zM168 675q-16 0 -26.5 -10.5t-10.5 -24.5t10.5 -24.5t26.5 -10.5q15 0 25.5 10.5t10.5 24.5t-10.5 24.5t-25.5 10.5zM168 710
q30 0 51.5 -20.5t21.5 -49.5t-21.5 -49.5t-51.5 -20.5q-31 0 -52.5 20.5t-21.5 49.5t21.5 49.5t52.5 20.5z" />
    <glyph glyph-name="ae" unicode="&#xe6;" horiz-adv-x="532" 
d="M402 353q0 68 -45 68q-44 0 -44 -68v-46h89v46zM223 253q-50 -32 -70 -60t-20 -66q0 -25 8 -39t23 -14q30 0 59 46v133zM313 232v-88q0 -70 44 -70q27 0 35.5 16t8.5 65v16h91v-12v-11q0 -21 -1 -36t-3.5 -26.5t-7 -20.5t-11.5 -19q-18 -25 -47 -38.5t-62 -13.5
q-76 0 -117 62q-30 -32 -57.5 -47t-54.5 -15q-42 0 -67 31.5t-25 86.5q0 50 23 86.5t77 72.5q9 6 16.5 11.5t16.5 11t21 12l30 16.5v32q0 40 -7.5 53.5t-29.5 13.5q-21 0 -30.5 -15.5t-11.5 -51.5h-91q4 72 40.5 110.5t99.5 38.5q49 0 82 -27q38 27 83 27q32 0 60.5 -13.5
t45.5 -37.5q16 -21 22 -47t6 -70v-103h-179z" />
    <glyph glyph-name="ccedilla" unicode="&#xe7;" horiz-adv-x="345" 
d="M212 -114l-21 -56h-47l17 56h-27v68h78v-68zM214 325v16q0 49 -8 64.5t-33 15.5q-44 0 -44 -68v-209q0 -70 43 -70q26 0 34 17.5t8 71.5v18h90v-14v-8q0 -23 -1 -39.5t-3.5 -28.5t-6.5 -21.5t-11 -20.5q-17 -26 -45.5 -40.5t-61.5 -14.5q-32 0 -61 13.5t-46 36.5
q-16 20 -22.5 46.5t-6.5 70.5v174q0 43 6.5 69.5t22.5 47.5q17 23 46.5 37t61.5 14q33 0 61 -14t45 -40q13 -20 17.5 -42t4.5 -64v-6v-12h-90z" />
    <glyph glyph-name="egrave" unicode="&#xe8;" horiz-adv-x="322" 
d="M206 353q0 68 -45 68t-45 -68v-46h90v46zM117 232v-88q-1 -70 44 -70q26 0 34.5 16t8.5 65v16h92v-12v-11q0 -21 -1 -36t-3.5 -26.5t-7 -20.5t-11.5 -19q-18 -25 -47 -38.5t-62 -13.5q-32 0 -62 13.5t-47 36.5q-16 20 -22.5 47t-6.5 70v174q0 43 6.5 69.5t21.5 47.5
q18 23 47 37t61 14t60 -13.5t46 -37.5q15 -21 21.5 -47t6.5 -70v-103h-179zM162 570l-73 80h97l46 -80h-70z" />
    <glyph glyph-name="eacute" unicode="&#xe9;" horiz-adv-x="322" 
d="M206 353q0 68 -45 68t-45 -68v-46h90v46zM117 232v-88q-1 -70 44 -70q26 0 34.5 16t8.5 65v16h92v-12v-11q0 -21 -1 -36t-3.5 -26.5t-7 -20.5t-11.5 -19q-18 -25 -47 -38.5t-62 -13.5q-32 0 -62 13.5t-47 36.5q-16 20 -22.5 47t-6.5 70v174q0 43 6.5 69.5t21.5 47.5
q18 23 47 37t61 14t60 -13.5t46 -37.5q15 -21 21.5 -47t6.5 -70v-103h-179zM135 650h97l-73 -80h-70z" />
    <glyph glyph-name="ecircumflex" unicode="&#xea;" horiz-adv-x="322" 
d="M206 353q0 68 -45 68t-45 -68v-46h90v46zM117 232v-88q-1 -70 44 -70q26 0 34.5 16t8.5 65v16h92v-12v-11q0 -21 -1 -36t-3.5 -26.5t-7 -20.5t-11.5 -19q-18 -25 -47 -38.5t-62 -13.5q-32 0 -62 13.5t-47 36.5q-16 20 -22.5 47t-6.5 70v174q0 43 6.5 69.5t21.5 47.5
q18 23 47 37t61 14t60 -13.5t46 -37.5q15 -21 21.5 -47t6.5 -70v-103h-179zM212 650l58 -80h-80l-28 30l-29 -30h-80l59 80h100z" />
    <glyph glyph-name="edieresis" unicode="&#xeb;" horiz-adv-x="322" 
d="M206 353q0 68 -45 68t-45 -68v-46h90v46zM117 232v-88q-1 -70 44 -70q26 0 34.5 16t8.5 65v16h92v-12v-11q0 -21 -1 -36t-3.5 -26.5t-7 -20.5t-11.5 -19q-18 -25 -47 -38.5t-62 -13.5q-32 0 -62 13.5t-47 36.5q-16 20 -22.5 47t-6.5 70v174q0 43 6.5 69.5t21.5 47.5
q18 23 47 37t61 14t60 -13.5t46 -37.5q15 -21 21.5 -47t6.5 -70v-103h-179zM275 570h-86v88h86v-88zM135 570h-86v88h86v-88z" />
    <glyph glyph-name="igrave" unicode="&#xec;" horiz-adv-x="170" 
d="M130 0h-90v496h90v-496zM87 563l-73 80h97l46 -80h-70z" />
    <glyph glyph-name="iacute" unicode="&#xed;" horiz-adv-x="170" 
d="M130 0h-90v496h90v-496zM60 643h97l-73 -80h-70z" />
    <glyph glyph-name="icircumflex" unicode="&#xee;" horiz-adv-x="170" 
d="M130 0h-90v496h90v-496zM135 643l58 -80h-80l-28 30l-29 -30h-80l59 80h100z" />
    <glyph glyph-name="idieresis" unicode="&#xef;" horiz-adv-x="170" 
d="M130 0h-90v496h90v-496zM198 563h-86v88h86v-88zM58 563h-86v88h86v-88z" />
    <glyph glyph-name="ntilde" unicode="&#xf1;" horiz-adv-x="339" 
d="M130 443q31 34 53.5 47t48.5 13q39 0 53 -24.5t14 -92.5v-386h-90v365q0 35 -4.5 45.5t-18.5 10.5q-27 0 -56 -42v-379h-90v496h90v-53zM72 644q15 8 27 11.5t29 3.5q11 0 20 -1.5t22 -6.5q22 -8 29.5 -10t18.5 -2q12 0 20.5 3t26.5 14v-69q-18 -11 -26.5 -14t-20.5 -3
q-11 0 -18.5 2t-29.5 10q-13 5 -22 6.5t-20 1.5q-17 0 -29 -3.5t-27 -11.5v69z" />
    <glyph glyph-name="ograve" unicode="&#xf2;" horiz-adv-x="319" 
d="M116 144q0 -70 43 -69q43 0 43 68v210q0 68 -43 68t-43 -68v-209zM292 162q0 -45 -6.5 -71.5t-21.5 -46.5q-17 -23 -45.5 -36.5t-59.5 -13.5t-59.5 13.5t-45.5 36.5q-15 20 -21.5 46.5t-6.5 70.5v174q0 43 6.5 69.5t21.5 47.5q17 23 45.5 37t59.5 14t59.5 -14t45.5 -37
q15 -21 21.5 -47.5t6.5 -69.5v-173zM160 570l-73 80h97l46 -80h-70z" />
    <glyph glyph-name="oacute" unicode="&#xf3;" horiz-adv-x="319" 
d="M116 144q0 -70 43 -69q43 0 43 68v210q0 68 -43 68t-43 -68v-209zM292 162q0 -45 -6.5 -71.5t-21.5 -46.5q-17 -23 -45.5 -36.5t-59.5 -13.5t-59.5 13.5t-45.5 36.5q-15 20 -21.5 46.5t-6.5 70.5v174q0 43 6.5 69.5t21.5 47.5q17 23 45.5 37t59.5 14t59.5 -14t45.5 -37
q15 -21 21.5 -47.5t6.5 -69.5v-173zM133 650h97l-73 -80h-70z" />
    <glyph glyph-name="ocircumflex" unicode="&#xf4;" horiz-adv-x="319" 
d="M116 144q0 -70 43 -69q43 0 43 68v210q0 68 -43 68t-43 -68v-209zM292 162q0 -45 -6.5 -71.5t-21.5 -46.5q-17 -23 -45.5 -36.5t-59.5 -13.5t-59.5 13.5t-45.5 36.5q-15 20 -21.5 46.5t-6.5 70.5v174q0 43 6.5 69.5t21.5 47.5q17 23 45.5 37t59.5 14t59.5 -14t45.5 -37
q15 -21 21.5 -47.5t6.5 -69.5v-173zM210 650l58 -80h-80l-28 30l-29 -30h-80l59 80h100z" />
    <glyph glyph-name="otilde" unicode="&#xf5;" horiz-adv-x="319" 
d="M116 144q0 -70 43 -69q43 0 43 68v210q0 68 -43 68t-43 -68v-209zM292 162q0 -45 -6.5 -71.5t-21.5 -46.5q-17 -23 -45.5 -36.5t-59.5 -13.5t-59.5 13.5t-45.5 36.5q-15 20 -21.5 46.5t-6.5 70.5v174q0 43 6.5 69.5t21.5 47.5q17 23 45.5 37t59.5 14t59.5 -14t45.5 -37
q15 -21 21.5 -47.5t6.5 -69.5v-173zM63 644q15 8 27 11.5t29 3.5q11 0 20 -1.5t22 -6.5q22 -8 29.5 -10t18.5 -2q12 0 20.5 3t26.5 14v-69q-18 -11 -26.5 -14t-20.5 -3q-11 0 -18.5 2t-29.5 10q-13 5 -22 6.5t-20 1.5q-17 0 -29 -3.5t-27 -11.5v69z" />
    <glyph glyph-name="odieresis" unicode="&#xf6;" horiz-adv-x="319" 
d="M116 144q0 -70 43 -69q43 0 43 68v210q0 68 -43 68t-43 -68v-209zM292 162q0 -45 -6.5 -71.5t-21.5 -46.5q-17 -23 -45.5 -36.5t-59.5 -13.5t-59.5 13.5t-45.5 36.5q-15 20 -21.5 46.5t-6.5 70.5v174q0 43 6.5 69.5t21.5 47.5q17 23 45.5 37t59.5 14t59.5 -14t45.5 -37
q15 -21 21.5 -47.5t6.5 -69.5v-173zM273 570h-86v88h86v-88zM133 570h-86v88h86v-88z" />
    <glyph glyph-name="divide" unicode="&#xf7;" horiz-adv-x="503" 
d="M493 381v-81h-484v81h484zM251 218q26 0 44.5 -18.5t18.5 -44.5q0 -27 -18.5 -45.5t-44.5 -18.5t-45 18.5t-19 45.5q0 26 19 44.5t45 18.5zM251 589q26 0 44.5 -18.5t18.5 -44.5t-18.5 -45t-44.5 -19t-45 19t-19 45t19 44.5t45 18.5z" />
    <glyph glyph-name="oslash" unicode="&#xf8;" horiz-adv-x="345" 
d="M152 80q6 -4 9.5 -5t10.5 -1q43 0 43 69v190zM196 414q-7 5 -11.5 6t-11.5 1q-43 0 -43 -68v-201zM264 526l-13 -49q30 -22 42 -53.5t12 -88.5v-173q0 -45 -6 -71.5t-21 -46.5q-17 -23 -45.5 -36.5t-60.5 -13.5q-12 0 -19.5 1t-21.5 5l-10 -41h-40l15 58q-16 12 -27 25
t-17.5 29.5t-9 38.5t-2.5 51v174q0 43 6 69.5t21 47.5q17 23 45.5 37t60.5 14q13 0 21 -1t22 -6l8 30h40z" />
    <glyph glyph-name="ugrave" unicode="&#xf9;" horiz-adv-x="339" 
d="M299 0h-90v53q-32 -34 -54 -46.5t-49 -12.5q-38 0 -52 24.5t-14 91.5v386h90v-365q0 -36 4 -46.5t18 -10.5t27.5 10.5t29.5 31.5v380h90v-496zM170 563l-73 80h97l46 -80h-70z" />
    <glyph glyph-name="uacute" unicode="&#xfa;" horiz-adv-x="339" 
d="M299 0h-90v53q-32 -34 -54 -46.5t-49 -12.5q-38 0 -52 24.5t-14 91.5v386h90v-365q0 -36 4 -46.5t18 -10.5t27.5 10.5t29.5 31.5v380h90v-496zM143 643h97l-73 -80h-70z" />
    <glyph glyph-name="ucircumflex" unicode="&#xfb;" horiz-adv-x="339" 
d="M299 0h-90v53q-32 -34 -54 -46.5t-49 -12.5q-38 0 -52 24.5t-14 91.5v386h90v-365q0 -36 4 -46.5t18 -10.5t27.5 10.5t29.5 31.5v380h90v-496zM220 643l58 -80h-80l-28 30l-29 -30h-80l59 80h100z" />
    <glyph glyph-name="udieresis" unicode="&#xfc;" horiz-adv-x="339" 
d="M299 0h-90v53q-32 -34 -54 -46.5t-49 -12.5q-38 0 -52 24.5t-14 91.5v386h90v-365q0 -36 4 -46.5t18 -10.5t27.5 10.5t29.5 31.5v380h90v-496zM283 563h-86v88h86v-88zM143 563h-86v88h86v-88z" />
    <glyph glyph-name="ydieresis" unicode="&#xff;" horiz-adv-x="313" 
d="M300 496l-102 -508q-7 -37 -11.5 -58.5t-9 -34.5t-9.5 -20t-13 -16q-17 -18 -42 -26.5t-62 -8.5h-16t-16 2v87q5 1 9.5 1h8.5q35 0 50.5 16t26.5 65l-101 501h91l54 -320l53 320h89zM270 563h-86v88h86v-88zM130 563h-86v88h86v-88z" />
    <glyph glyph-name="dotlessi" unicode="&#x131;" horiz-adv-x="170" 
d="M130 0h-90v496h90v-496z" />
    <glyph glyph-name="OE" unicode="&#x152;" horiz-adv-x="563" 
d="M250 573h-31q-45 0 -62 -22t-17 -78v-279q0 -57 17 -79t62 -22h31v480zM523 573h-172v-181h123v-93h-123v-205h172v-94h-314q-88 0 -128.5 45.5t-40.5 142.5v290q0 97 40.5 142.5t127.5 45.5h315v-93z" />
    <glyph glyph-name="oe" unicode="&#x153;" horiz-adv-x="525" 
d="M395 353q0 68 -45 68t-45 -68v-46h90v46zM130 144q0 -70 42 -69q43 0 43 68v210q0 68 -43 68q-42 0 -42 -68v-209zM306 232v-88q-1 -70 44 -70q26 0 34.5 16t8.5 65v16h92v-12v-11q0 -21 -1 -36t-3.5 -26.5t-7 -20.5t-11.5 -19q-18 -25 -47 -38.5t-62 -13.5q-51 0 -92 32
q-20 -17 -42 -24.5t-47 -7.5q-31 0 -59.5 13.5t-45.5 36.5q-15 20 -21 46.5t-6 70.5v174q0 43 6 69.5t21 47.5q17 23 45.5 37t60.5 14q25 0 46 -8t42 -25q21 17 42.5 25t47.5 8q32 0 60 -13.5t46 -37.5q15 -21 21.5 -47t6.5 -70v-103h-179z" />
    <glyph glyph-name="Ydieresis" unicode="&#x178;" horiz-adv-x="371" 
d="M238 0h-100v269l-125 397h104l71 -262l69 262h101l-120 -397v-269zM298 733h-86v88h86v-88zM158 733h-86v88h86v-88z" />
    <glyph glyph-name="florin" unicode="&#x192;" horiz-adv-x="454" 
d="M355 483l-16 -82h-77l-111 -571h-90l111 571h-76l15 82h77l26 137q12 63 43.5 91.5t88.5 28.5q27 0 47 -8l-15 -76l-13.5 1.5t-9.5 0.5q-24 0 -36.5 -14t-19.5 -50l-21 -111h77z" />
    <glyph glyph-name="circumflex" unicode="&#x2c6;" horiz-adv-x="350" 
d="M225 660l58 -80h-80l-28 30l-29 -30h-80l59 80h100z" />
    <glyph glyph-name="caron" unicode="&#x2c7;" horiz-adv-x="350" 
d="M125 580l-59 80h81l28 -31l28 31h80l-58 -80h-100z" />
    <glyph glyph-name="breve" unicode="&#x2d8;" horiz-adv-x="349" 
d="M283 628q-36 -50 -109 -50q-72 0 -108 50l57 33q14 -10 25.5 -13.5t25.5 -3.5t26 4t26 13z" />
    <glyph glyph-name="dotaccent" unicode="&#x2d9;" horiz-adv-x="220" 
d="M153 578h-86v88h86v-88z" />
    <glyph glyph-name="ring" unicode="&#x2da;" horiz-adv-x="280" 
d="M140 643q-16 0 -26.5 -10.5t-10.5 -24.5t10.5 -24.5t26.5 -10.5q15 0 25.5 10.5t10.5 24.5t-10.5 24.5t-25.5 10.5zM140 678q30 0 51.5 -20.5t21.5 -49.5t-21.5 -49.5t-51.5 -20.5q-31 0 -52.5 20.5t-21.5 49.5t21.5 49.5t52.5 20.5z" />
    <glyph glyph-name="ogonek" unicode="&#x2db;" horiz-adv-x="0" 
 />
    <glyph glyph-name="tilde" unicode="&#x2dc;" horiz-adv-x="326" 
d="M66 649q15 8 27 11.5t29 3.5q11 0 20 -1.5t22 -6.5q22 -8 29.5 -10t18.5 -2q12 0 20.5 3t26.5 14v-69q-18 -11 -26.5 -14t-20.5 -3q-11 0 -18.5 2t-29.5 10q-13 5 -22 6.5t-20 1.5q-17 0 -29 -3.5t-27 -11.5v69z" />
    <glyph glyph-name="hungarumlaut" unicode="&#x2dd;" horiz-adv-x="415" 
d="M252 660h97l-73 -80h-70zM112 660h97l-73 -80h-70z" />
    <glyph glyph-name="pi" unicode="&#x3c0;" horiz-adv-x="629" 
d="M112 416h-65v81h535v-80h-64v-417h-100v416h-205v-416h-101v416z" />
    <glyph glyph-name="endash" unicode="&#x2013;" horiz-adv-x="503" 
d="M493 381v-81h-484v81h484z" />
    <glyph glyph-name="emdash" unicode="&#x2014;" horiz-adv-x="508" 
d="M468 208h-428v90h428v-90z" />
    <glyph glyph-name="quoteleft" unicode="&#x2018;" horiz-adv-x="176" 
d="M40 551l52 115h44l-35 -115h35v-104h-96v104z" />
    <glyph glyph-name="quoteright" unicode="&#x2019;" horiz-adv-x="176" 
d="M136 563l-52 -116h-44l35 116h-35v103h96v-103z" />
    <glyph glyph-name="quotedblleft" unicode="&#x201c;" horiz-adv-x="313" 
d="M40 551l52 115h44l-35 -115h35v-104h-96v104zM176 551l52 115h45l-35 -115h35v-104h-97v104z" />
    <glyph glyph-name="quotedblright" unicode="&#x201d;" horiz-adv-x="313" 
d="M273 563l-52 -116h-44l35 116h-35v103h96v-103zM136 563l-52 -116h-44l35 116h-35v103h96v-103z" />
    <glyph glyph-name="quotedblbase" unicode="&#x201e;" horiz-adv-x="313" 
d="M273 0l-52 -115h-44l35 115h-35v103h96v-103zM136 0l-52 -115h-44l35 115h-35v103h96v-103z" />
    <glyph glyph-name="dagger" unicode="&#x2020;" horiz-adv-x="387" 
d="M347 421h-108v-421h-90v420h-109v82h109v164h90v-164h108v-81z" />
    <glyph glyph-name="daggerdbl" unicode="&#x2021;" horiz-adv-x="387" 
d="M347 421h-108v-174h108v-82h-108v-165h-90v164h-109v82h109v174h-109v82h109v164h90v-164h108v-81z" />
    <glyph glyph-name="bullet" unicode="&#x2022;" horiz-adv-x="416" 
d="M208 435q41 0 69 -28.5t28 -69.5t-28 -69.5t-69 -28.5q-20 0 -38 7.5t-31.5 21t-21 31.5t-7.5 38t7.5 38t21 31.5t31.5 21t38 7.5z" />
    <glyph glyph-name="ellipsis" unicode="&#x2026;" horiz-adv-x="530" 
d="M490 0h-96v103h96v-103zM313 0h-96v103h96v-103zM136 0h-96v103h96v-103z" />
    <glyph glyph-name="perthousand" unicode="&#x2030;" horiz-adv-x="741" 
d="M626 289q-16 -2 -20 -10.5t-4 -39.5v-148q0 -31 5 -40.5t19 -9.5q15 0 20 9.5t5 40.5v148q0 26 -2.5 35.5t-9.5 11.5zM386 91q0 -31 4.5 -40.5t19.5 -9.5t20 9.5t5 40.5v148q0 31 -5 40.5t-20 9.5t-19.5 -9.5t-4.5 -40.5v-148zM97 427q0 -31 4.5 -40.5t19.5 -9.5
t19.5 9.5t4.5 40.5v148q0 31 -4.5 40.5t-19.5 9.5t-19.5 -9.5t-4.5 -40.5v-148zM708 91q0 -100 -82 -100q-81 0 -81 100v147q0 102 81 102q82 0 82 -102v-147zM492 91q0 -100 -82 -100q-81 0 -81 100v147q0 102 81 102q82 0 82 -102v-147zM440 666l-289 -666h-60l289 666h60
zM202 428q0 -102 -81 -102t-81 102v147q0 101 81 101t81 -101v-147z" />
    <glyph glyph-name="guilsinglleft" unicode="&#x2039;" horiz-adv-x="169" 
d="M40 181v143l89 76v-112l-30 -35l30 -34v-113z" />
    <glyph glyph-name="guilsinglright" unicode="&#x203a;" horiz-adv-x="169" 
d="M129 324v-143l-89 -75v113l30 34l-30 34v113z" />
    <glyph glyph-name="fraction" unicode="&#x2044;" horiz-adv-x="172" 
d="M307 654l-376 -654h-65l377 654h64z" />
    <glyph glyph-name="trademark" unicode="&#x2122;" horiz-adv-x="884" 
d="M342 602h-126v-335h-79v335h-126v64h331v-64zM831 267h-70v331l-129 -332h-43l-127 332v-331h-72v399h115l105 -264l109 264h112v-399z" />
    <glyph glyph-name="Omega" unicode="&#x2126;" horiz-adv-x="666" 
d="M4 91h170q-45 26 -71.5 51t-46.5 58q-41 68 -41 164q0 68 24 126.5t66.5 101t100.5 66.5t127 24q68 0 126.5 -24t101 -66.5t66.5 -101t24 -126.5q0 -132 -81 -214q-18 -19 -33.5 -30.5t-44.5 -28.5h170v-91h-280v86q43 24 68 45.5t45 52.5q47 71 47 169q0 52 -15.5 95.5
t-43.5 75t-66 49t-83 17.5q-46 0 -85 -17.5t-66.5 -48.5t-43 -74.5t-15.5 -96.5q0 -93 39 -157.5t122 -109.5v-86h-281v91z" />
    <glyph glyph-name="partialdiff" unicode="&#x2202;" 
d="M244 356q-29 0 -54.5 -11t-44 -30.5t-29.5 -46t-11 -56.5t11 -56t29.5 -45.5t44 -31t53.5 -11.5q29 0 53.5 11.5t43.5 31t29.5 46t10.5 56.5q0 31 -10.5 57.5t-28.5 45.5t-43 29.5t-54 10.5zM378 373q-3 29 -7 45t-14 39q-16 35 -37.5 63t-46.5 45q-35 24 -80 38.5
t-96 19.5l18 53q18 -1 30.5 -2.5t22.5 -3t19 -3.5t19 -5q18 -5 38.5 -14t41 -20.5t38.5 -24t31 -24.5q29 -27 54.5 -69t39.5 -86q11 -31 15.5 -66.5t4.5 -74.5q0 -69 -15.5 -123t-45 -92t-72 -58t-95.5 -20q-48 0 -89 17t-71 47t-47 71t-17 88q0 46 17 86.5t47 70.5
t69.5 47.5t84.5 17.5q42 0 74.5 -14t68.5 -48z" />
    <glyph glyph-name="Delta" unicode="&#x2206;" horiz-adv-x="666" 
d="M535 76l-205 501l-202 -501h407zM5 0l269 666h112l274 -666h-655z" />
    <glyph glyph-name="product" unicode="&#x220f;" horiz-adv-x="666" 
d="M673 750v-66h-96v-867h96v-67h-279v66h96v867h-313v-866h95v-67h-277v66h97v867h-97v67h678z" />
    <glyph glyph-name="radical" unicode="&#x221a;" horiz-adv-x="666" 
d="M641 728h-140l-295 -743l-109 311h-73v67h128l58 -195l233 626h198v-66z" />
    <glyph glyph-name="infinity" unicode="&#x221e;" horiz-adv-x="666" 
d="M282 338q-38 44 -67.5 62t-62.5 18q-35 0 -56.5 -22.5t-21.5 -57.5q0 -36 21 -58.5t56 -22.5q62 0 131 81zM384 338q68 -81 129 -81q36 0 57.5 21t21.5 57q0 38 -22 60.5t-58 22.5q-33 0 -62.5 -18.5t-65.5 -61.5zM333 397q42 52 84.5 76t93.5 24q35 0 64.5 -11.5
t50.5 -32.5t32.5 -50t11.5 -64q0 -36 -11.5 -65.5t-32 -50.5t-49 -33t-62.5 -12q-97 0 -181 100q-43 -52 -86.5 -76t-94.5 -24q-34 0 -63 12t-49.5 33t-32 50t-11.5 64t11.5 64.5t32.5 50.5t50 33t64 12q93 0 178 -100z" />
    <glyph glyph-name="integral" unicode="&#x222b;" 
d="M367 596v18q0 55 -7.5 73.5t-29.5 18.5q-20 0 -28 -14.5t-8 -49.5v-30v-42v-618v-48q0 -154 -114 -154q-68 0 -96 53q-11 21 -15.5 45.5t-5.5 68.5h72l1 -10q0 -33 2 -55t6.5 -34.5t13 -17.5t20.5 -5q13 0 20.5 3.5t11 16t4.5 37.5t1 69v605q0 37 0.5 61.5t1.5 41t3.5 28
t6.5 23.5q12 33 38 51.5t61 18.5q29 0 48.5 -7.5t32.5 -25.5t20 -47.5t10 -73.5h-70z" />
    <glyph glyph-name="approxequal" unicode="&#x2248;" horiz-adv-x="499" 
d="M493 291q-37 -63 -67 -89t-68 -26q-10 0 -18 1t-19.5 4.5t-29 11l-45.5 19.5l-43 19q-22 9 -34.5 12.5t-23.5 3.5q-26 0 -46.5 -18.5t-47.5 -68.5l-45 50q37 64 67.5 90.5t68.5 26.5q11 0 22 -1.5t25 -6t32.5 -12t43.5 -19.5l39 -16.5t24.5 -10t15.5 -4.5t12 -1
q25 0 45 18.5t46 65.5zM493 479q-37 -63 -67 -89t-68 -26q-10 0 -18 1t-19.5 4.5t-28.5 11l-46 19.5l-43 19q-23 9 -35 12.5t-23 3.5q-26 0 -46 -18.5t-48 -68.5l-45 50q37 64 67.5 90.5t68.5 26.5q11 0 22 -1.5t25 -6t32.5 -12t43.5 -19.5l38.5 -16.5t24.5 -10t16 -4.5
t12 -1q25 0 45 18.5t46 65.5z" />
    <glyph glyph-name="notequal" unicode="&#x2260;" 
d="M333 583l71 -32l-45 -90h134v-79h-173l-51 -101h224v-79h-263l-66 -133l-71 33l49 99h-136v80h176l50 100h-226v80h266z" />
    <glyph glyph-name="lessequal" unicode="&#x2264;" 
d="M491 15h-483v96h483v-96zM491 542l-377 -166l377 -152v-89l-483 195v91l483 209v-88z" />
    <glyph glyph-name="greaterequal" unicode="&#x2265;" 
d="M491 15h-483v96h483v-96zM8 224l377 165l-377 152v89l483 -195v-90l-483 -210v89z" />
    <glyph glyph-name="lozenge" unicode="&#x25ca;" horiz-adv-x="666" 
d="M332 565l-157 -231l157 -230l160 230zM332 682l254 -348l-254 -349l-251 349z" />
    <glyph glyph-name="fi" unicode="&#xfb01;" horiz-adv-x="0" 
 />
    <glyph glyph-name="fl" unicode="&#xfb02;" horiz-adv-x="0" 
 />
    <glyph glyph-name="apple" horiz-adv-x="0" 
 />
    <glyph glyph-name="quotesinglebase" horiz-adv-x="176" 
d="M136 0l-52 -115h-44l35 115h-35v103h96v-103z" />
    <glyph glyph-name="register" horiz-adv-x="514" 
d="M219 578h39q43 0 43 27q0 26 -40 26h-42v-53zM269 666q76 0 76 -58q0 -12 -3.5 -20.5t-14.5 -19.5q-6 -6 -6 -8q0 -1 10 -10q9 -8 14 -56v-10q2 -6 3 -10q0 -3 0.5 -4l1.5 -3h-43q-4 5 -4.5 10.5t-2.5 19.5q-2 31 -9.5 39.5t-34.5 8.5h-37v-78h-45v199h95zM257 724
q-33 0 -62.5 -12.5t-51.5 -34.5t-34.5 -51t-12.5 -62t12.5 -62.5t34.5 -51t51.5 -34t62.5 -12.5t62.5 12.5t51 34t34 51t12.5 62.5t-12.5 62t-34 51t-51 34.5t-62.5 12.5zM257 765q42 0 79 -16t64.5 -43t43.5 -63.5t16 -78.5t-16 -78.5t-43.5 -64t-64.5 -43.5t-79 -16
t-79 16t-65 43.5t-44 64t-16 78.5t16 78.5t44 63.5t65 43t79 16z" />
    <glyph glyph-name="sumnation" horiz-adv-x="666" 
d="M609 517h-71l-10 166h-400l253 -412l-256 -454h415l6 168h73v-235h-596v70l259 453l-260 408v69h587v-233z" />
  </font>
</defs>
</svg>
