<svg width="184" height="123" xmlns="http://www.w3.org/2000/svg"><g fill="none" fill-rule="evenodd"><path d="M72.863 116.674c1.447 0 2.133-.438 2.133-1.496 0-1.258-.65-1.658-2.082-1.658h-.687v3.154h.636zM69 111h3.811c1.743 0 3.087.019 4.16.806.919.674 1.414 1.695 1.414 2.938 0 1.861-.987 3.055-2.824 3.422L79 123h-3.88l-2.893-4.699V123H69v-12zm19 0h7v2.637h-3.963v2.081h3.74v2.564h-3.74v2.032H95V123h-7zm18.86 9.314c2.548 0 3.76-.955 3.76-3.306 0-2.382-1.248-3.324-3.76-3.324h-.563v6.63h.563zM103 111h2.94c2.273 0 4.098.034 5.706 1.141 1.536 1.06 2.354 2.72 2.354 4.867 0 2.132-.818 3.793-2.354 4.867-1.521 1.058-3.213 1.125-5.247 1.125H103v-12z" fill="#F022AB"/><path d="M7.008 96.628h3.313v-4.434H7.008v4.434zm0-8.3h3.313v-3.957H7.008v3.958zM0 80h10.35c1.718 0 3.785 0 4.85 1.34.71.89.8 2.17.8 3.658 0 3.153-.415 4.64-3.195 5.145 2.869.803 3.195 2.083 3.195 4.581 0 2.945-.208 4.253-1.005 5.146-1.037 1.13-2.72 1.13-4.585 1.13H0v-4.372h1.392V84.372H0V80zm34.91 16.628h3.216V84.372H34.91v12.256zM38.367 80c2.052 0 3.98.089 4.988 1.815.644 1.1.644 2.498.644 4.224v8.685c0 1.19 0 2.469-.273 3.482-.768 2.767-3.278 2.794-5.145 2.794h-3.918c-1.349 0-3.123-.027-4.318-.98C29 98.917 29 97.313 29 95.946V85.683c0-1.22 0-2.439.46-3.48C30.38 80 32.52 80 34.146 80h4.223zM76 80v4.371h-1.37v12.256H76V101h-6.712l-4.295-8.179c-1.103-2.202-1.252-2.619-1.7-4.014.09.831.09 1.158.12 1.96l.12 10.233H57v-4.373h1.37V84.371H57V80h6.741l4.713 9.222c.746 1.428.867 1.784 1.282 3.062-.177-1.782-.177-2.23-.177-3.867V80H76zm14 0h15v6.663h-4.902V84.37h-3.065v3.958h4.23v3.806h-4.23v4.492h1.313V101H90v-4.373h1.373V84.371H90zm27 0h9v4.371h-1.48v12.256H126V101h-9v-4.373h1.447V84.371H117zm28.982 8.537h3.153V84.37h-3.153v4.166zM139 80h10.75c1.255.031 2.744.031 3.855 1.071 1.108 1.042 1.108 2.408 1.108 3.774 0 2.77-.026 4.616-2.95 5.596.731.178 1.464.357 2.075 1.102.702.893.76 1.872.792 2.824v2.26H156V101h-3.886c-2.132-.027-2.949-.208-2.98-2.17v-6.367h-3.152V101H139v-4.372h1.315V84.372H139V80zm30 0h14.677v6.87h-4.748v-2.499h-3.003v3.988h4.242v3.867h-4.242v4.401h3.003v-2.706H184V101h-15v-4.373h1.354V84.371H169zM72.907 29.907a.935.935 0 000-.814l-2.18-3.925c-.124-.224-.328-.224-.452 0l-2.182 3.925a.935.935 0 000 .814l2.182 3.925c.124.224.328.224.452 0l2.18-3.925zm31.995-23.976c.13-.237.13-.625 0-.863l-2.667-4.89c-.13-.237-.341-.237-.47 0l-2.668 4.89c-.13.238-.13.626 0 .863l2.667 4.891c.13.237.342.237.471 0l2.667-4.89z" fill="#06852A"/><path d="M109.724 33.947a.903.903 0 010-.83l2.763-4.708a.903.903 0 000-.83l-6.426-10.947c-.135-.228-.353-.228-.487 0l-2.764 4.707c-.134.23-.353.23-.487 0L92.243 4.171c-.133-.228-.353-.228-.487 0l-9.283 15.812c-.134.228-.353.228-.487 0l-4.387-7.472c-.134-.228-.353-.228-.487 0l-4.387 7.472a.907.907 0 000 .83l4.387 7.473a.903.903 0 010 .83L71.1 39.356a.907.907 0 000 .83l5.412 9.218c.134.229.45.49.702.58l8.35 2.985c.252.09.35-.023.215-.251l-7.357-12.532a.905.905 0 010-.83l13.334-22.713c.134-.228.354-.228.488 0l13.333 22.713a.902.902 0 010 .83L98.22 52.718c-.134.228-.038.341.214.251l8.352-2.986c.252-.09.568-.35.702-.58l5.411-9.217a.905.905 0 000-.83l-3.175-5.41z" fill="#06852A"/><path d="M85.103 40.422a.914.914 0 010-.843l6.148-10.405c.137-.232.362-.232.499 0l6.147 10.405a.917.917 0 010 .843L91.75 50.826c-.137.232-.362.232-.499 0l-6.148-10.404z" fill="#F022AB"/><path d="M111.07 71l-.03-.009-41.01-14.743a.068.068 0 01-.03-.012L71.928 51c.012.004.021.005.033.01l41.009 14.74c.009.003.018.009.03.014L111.07 71zm-7.644-11l10.543-3.73a.15.15 0 00.031-.012L112.03 51c-.012.005-.022.006-.031.01L95 57.02l8.426 2.98zm-22.853 2L70.03 65.728l-.03.012L71.969 71l.033-.009L89 64.981 80.573 62z" fill="#06852A"/></g></svg>