<svg width="30" height="47" xmlns="http://www.w3.org/2000/svg" xmlns:xlink="http://www.w3.org/1999/xlink"><defs><path id="a" d="M.23.162h3.676V6.95H.23z"/></defs><g fill="none" fill-rule="evenodd"><path d="M8.68 41l-6.661 2.487c-.007.002-.014.003-.019.007L3.244 47l.02-.005L14 42.988 8.68 41zm20.063 5c-.006 0-.012-.004-.02-.005L2.02 36.413c-.007-.003-.014-.004-.019-.009L3.256 33c.007.005.013.005.02.007L29.98 42.59c.006.002.012.003.019.008L28.743 46zm-5.421-7l6.66-2.485c.005-.002.011-.004.018-.01L28.755 33c-.005.005-.012.005-.02.007L18 37.015 23.322 39z" fill="#FEFEFE"/><path d="M12.063 25.731a.605.605 0 000 .537l3.783 6.62c.086.149.223.149.308 0l3.782-6.62a.593.593 0 000-.537l-3.782-6.62c-.085-.148-.222-.148-.308 0l-3.783 6.62z" fill="#F05A22"/><path d="M3.927 19.27a.537.537 0 000-.54L2.18 16.11c-.101-.148-.262-.148-.362 0L.073 18.73a.537.537 0 000 .54l1.746 2.618c.1.15.26.15.362 0l1.746-2.617z" fill="#FEFEFE"/><g transform="translate(21)"><mask id="b" fill="#fff"><use xlink:href="#a"/></mask><path d="M3.847 3.822a.626.626 0 00-.001-.532L2.212.272c-.079-.147-.208-.147-.289 0L.29 3.29a.62.62 0 000 .532L1.923 6.84c.08.146.21.146.289 0l1.635-3.018z" fill="#FEFEFE" mask="url(#b)"/></g><path d="M5.676 32.58c.088.152.3.328.467.388l5.568 2.011c.168.06.232-.015.143-.168L6.95 26.37a.613.613 0 010-.56l8.888-15.297c.09-.153.235-.153.326 0l4.277 7.365a98.926 98.926 0 01.324.56l4.285 7.372.162.28v-.003c.002.003-.073.13-.162.282l-4.903 8.44c-.09.154-.025.23.143.169l5.566-2.01c.17-.061.38-.237.47-.39l3.607-6.209a.618.618 0 000-.56l-2.118-3.641a.622.622 0 010-.56l1.842-3.17a.605.605 0 000-.559l-4.283-7.373c-.088-.154-.235-.154-.324 0l-1.844 3.17c-.088.153-.234.153-.323 0l-6.72-11.563c-.09-.152-.234-.152-.325 0L9.65 12.764c-.09.153-.238.153-.326 0L6.4 7.732c-.088-.154-.235-.154-.324 0L3.15 12.764a.622.622 0 000 .56l2.926 5.033c.09.153.09.404 0 .557l-4.008 6.897a.61.61 0 000 .56l3.608 6.208z" fill="#FEFEFE"/></g></svg>