<svg width="68" height="108" xmlns="http://www.w3.org/2000/svg" xmlns:xlink="http://www.w3.org/1999/xlink"><defs><path id="a" d="M0 .414h7.68V14.53H0z"/><path id="c" d="M.59.608h27.878v13.755H.59z"/><path id="e" d="M.147.58H27.67V14H.147z"/></defs><g fill="none" fill-rule="evenodd"><g transform="translate(0 36.066)"><mask id="b" fill="#fff"><use xlink:href="#a"/></mask><path d="M7.538 8.11c.19-.352.19-.926 0-1.277L4.188.677c-.19-.35-.503-.35-.694 0L.144 6.833c-.192.351-.192.925 0 1.277l3.35 6.155c.191.352.504.352.695 0L7.538 8.11z" fill="#443F35" mask="url(#b)"/></g><path d="M55.854 8.693c.195-.345.195-.91 0-1.255L51.853.325c-.195-.345-.512-.345-.706 0l-4.002 7.113c-.193.345-.193.91 0 1.255l4.002 7.114c.194.345.511.345.706 0l4-7.114zm5.31 42.599c-.199-.346-.199-.909 0-1.254l4.08-7.11c.198-.344.198-.908 0-1.253l-9.487-16.532c-.199-.345-.522-.345-.72 0l-4.08 7.11c-.196.344-.52.344-.719 0L35.36 6.323c-.198-.344-.522-.344-.72 0l-13.703 23.88c-.198.344-.522.344-.72 0L13.74 18.918c-.197-.345-.52-.345-.72 0L6.547 30.203c-.198.345-.198.91 0 1.254l6.476 11.285c.199.345.199.909 0 1.254L4.148 59.46c-.197.344-.197.908 0 1.253l7.988 13.921c.199.346.665.74 1.037.875L25.5 80.02c.372.135.515-.035.317-.38L14.956 60.714c-.198-.345-.198-.91 0-1.253L34.64 25.159c.198-.344.522-.344.72 0l19.682 34.302c.199.344.199.908 0 1.253L44.182 79.64c-.198.345-.056.515.315.38l12.33-4.51c.372-.136.838-.53 1.036-.875l7.988-13.921c.199-.345.199-.91 0-1.253l-4.687-8.17z" fill="#443F35"/><path d="M26.15 61.198c-.2-.347-.2-.917 0-1.264l8.987-15.607c.2-.348.527-.348.728 0l8.985 15.607c.2.347.2.917 0 1.264l-8.985 15.608c-.2.347-.528.347-.728 0L26.15 61.198z" fill="#F05A22"/><path d="M64.127 107.066l-.045-.013L3.044 84.938A.1.1 0 013 84.92l2.87-7.854c.017.006.031.008.049.014l61.036 22.113c.014.005.027.013.045.02l-2.873 7.853z" fill="#443F35"/><g transform="translate(39 76.066)"><mask id="d" fill="#fff"><use xlink:href="#c"/></mask><path d="M12.952 14.363l15.471-5.7a.216.216 0 00.045-.019L25.577.607c-.016.008-.031.009-.045.016L.589 9.81l12.363 4.553z" fill="#443F35" mask="url(#d)"/></g><g transform="translate(3 93.066)"><mask id="f" fill="#fff"><use xlink:href="#e"/></mask><path d="M15.463.58L.19 6.14c-.015.004-.031.012-.043.017L2.999 14l.048-.013 24.624-8.96L15.463.58z" fill="#443F35" mask="url(#f)"/></g></g></svg>