<svg width="205" height="53" xmlns="http://www.w3.org/2000/svg" xmlns:xlink="http://www.w3.org/1999/xlink"><defs><path id="a" d="M0 .254h205v53H0z"/></defs><g transform="translate(0 -1)" fill="none" fill-rule="evenodd"><mask id="b" fill="#fff"><use xlink:href="#a"/></mask><path d="M49.257 34.13h2.484v-3.165h-2.484v3.164zm0-5.926h2.484v-2.828h-2.484v2.828zM44 22.254h7.763c1.286 0 2.84 0 3.637.958.532.637.6 1.55.6 2.613 0 2.25-.311 3.311-2.395 3.674 2.15.572 2.395 1.488 2.395 3.273 0 2.102-.155 3.037-.756 3.674-.775.808-2.038.808-3.436.808H44V34.13h1.042v-8.753H44v-3.122zM64.94 34.13h2.143v-8.754h-2.144v8.753zm2.304-11.876c1.368 0 2.656.061 3.328 1.296.428.786.428 1.785.428 3.018v6.204c0 .849 0 1.76-.182 2.486-.51 1.975-2.185 1.996-3.43 1.996h-2.613c-.896 0-2.08-.021-2.877-.702C61 35.764 61 34.62 61 33.642v-7.33c0-.869 0-1.74.305-2.485.614-1.573 2.042-1.573 3.123-1.573h2.816zM90 22.254v3.122h-1.011v8.754H90v3.124h-4.944l-3.165-5.843c-.813-1.57-.924-1.87-1.254-2.867.067.592.067.829.089 1.4l.088 7.31H76V34.13h1.014v-8.754H76v-3.122h4.967l3.475 6.587c.547 1.021.637 1.277.943 2.187-.132-1.272-.132-1.594-.132-2.76v-6.014H90zM95 22.254h11v4.757h-3.596v-1.635h-2.246v2.828h3.104v2.717h-3.104v3.209h.962v3.124H95V34.13h1.006v-8.754H95zM111 22.254h6v3.122h-.984v8.754H117v3.124h-6V34.13h.966v-8.754H111zM127.34 28.35h2.413v-2.974h-2.413v2.975zM122 22.255h8.219c.963.022 2.103.022 2.95.764.85.744.85 1.72.85 2.697 0 1.977-.023 3.297-2.256 3.996.559.13 1.117.257 1.587.789.534.634.582 1.338.602 2.016v1.613H135v3.125h-2.97c-1.63-.021-2.257-.15-2.277-1.553v-4.546h-2.413v6.1H122v-3.126h1.004v-8.753H122v-3.122zM140 22.254h10.763v4.907h-3.482v-1.785h-2.203v2.848h3.111v2.764h-3.111v3.142h2.203v-1.933H151v5.057h-11V34.13h.994v-8.754H140z" fill="#443F35" mask="url(#b)"/><path d="M165.34 28.354h2.41v-2.975h-2.41v2.975zm-5.34-6.1h8.22c.961.025 2.099.025 2.948.767.85.743.85 1.72.85 2.698 0 1.976-.025 3.29-2.257 3.994.558.125 1.117.255 1.585.785.538.637.582 1.338.604 2.02v1.614H173v3.122h-2.972c-1.63-.02-2.255-.148-2.278-1.55v-4.547h-2.41v6.097H160v-3.122h1.006V25.38H160v-3.125zM177 22.254h10.762v4.909h-3.48v-1.784h-2.203v2.845h3.112v2.762h-3.112v3.147h2.202v-1.936H188v5.057h-11v-3.121h.995v-8.754H177zM198.327 34.132h2.359V25.38h-2.359v8.753zM193 22.254h8.046c.83 0 1.755 0 2.474.361 1.459.725 1.48 2.316 1.48 3.548v7.012c0 .915-.021 1.828-.381 2.572-.696 1.488-2.178 1.507-3.46 1.507H193v-3.122h1.01V25.38H193v-3.125zM13.071 30.56a.696.696 0 010-.613l4.257-7.567c.095-.168.25-.168.345 0l4.256 7.567a.696.696 0 010 .614l-4.256 7.566c-.095.17-.25.17-.345 0l-4.257-7.566z" fill="#F05A22" mask="url(#b)"/><path d="M3.926 22.07a.71.71 0 000-.632L2.18 18.385c-.099-.174-.262-.174-.361 0L.075 21.438c-.1.174-.1.459 0 .632l1.745 3.054c.1.174.262.174.361 0l1.745-3.054zM27.919 5.568a.648.648 0 000-.628l-2.223-3.556c-.108-.173-.284-.173-.392 0L23.08 4.94a.648.648 0 000 .628l2.223 3.557c.108.172.284.172.392 0l2.223-3.557z" fill="#443F35" mask="url(#b)"/><path d="M30.582 26.256a.663.663 0 010-.61l2.04-3.458a.663.663 0 000-.61l-4.743-8.043c-.1-.168-.262-.168-.36 0l-2.04 3.459c-.1.168-.26.168-.36 0L17.68 4.38c-.099-.168-.26-.168-.36 0l-6.852 11.617c-.099.168-.26.168-.36 0l-3.237-5.49c-.099-.167-.26-.167-.36 0l-3.238 5.49a.665.665 0 000 .61l3.238 5.49a.663.663 0 010 .61L2.074 30.23a.668.668 0 000 .61l3.994 6.772c.1.168.332.36.518.425l6.164 2.195c.186.066.257-.017.158-.185l-5.43-9.207a.663.663 0 010-.61l9.842-16.687c.1-.168.261-.168.36 0l9.841 16.687c.1.168.1.442 0 .61l-5.43 9.207c-.1.168-.028.25.158.185l6.165-2.195c.185-.065.419-.257.518-.425l3.994-6.772a.663.663 0 000-.61l-2.344-3.974zM31.608 53.254l-.021-.006L2.02 42.19A.053.053 0 012 42.18l1.39-3.927c.008.004.015.005.024.007l29.564 11.057c.007.002.013.006.022.01l-1.392 3.926zM25.208 45.254l7.77-2.9.022-.01-1.452-4.09c-.008.004-.016.005-.023.008L19 42.937l6.208 2.317zM8.79 46.254l-7.767 2.9c-.008.002-.016.007-.023.009l1.451 4.091.024-.006L15 48.573l-6.21-2.319z" fill="#443F35" mask="url(#b)"/></g></svg>