<svg width="141" height="139" xmlns="http://www.w3.org/2000/svg" xmlns:xlink="http://www.w3.org/1999/xlink"><defs><path id="a" d="M0 .314h20.916v21.634H0z"/><path id="c" d="M.083.198h21.792v21.74H.083z"/><path id="e" d="M.123.204h7.611V12.97H.124z"/></defs><g fill="none" fill-rule="evenodd"><path d="M49.862 131.281c1.448 0 2.134-.472 2.134-1.62 0-1.363-.652-1.797-2.08-1.797h-.689v3.417h.635zM46 125.135h3.811c1.745 0 3.086.02 4.16.873.92.73 1.412 1.835 1.412 3.182 0 2.017-.986 3.309-2.822 3.708L56 138.135h-3.88l-2.893-5.09v5.09H46v-13zM65 125.135h9v2.855h-5.097v2.255h4.81v2.78h-4.81v2.2H74v2.91h-9zM86.212 135.226c2.777 0 4.099-1.037 4.099-3.582 0-2.581-1.36-3.6-4.099-3.6h-.614v7.182h.614zM82 125.135H85.207c2.48 0 4.47.036 6.222 1.236 1.676 1.147 2.571 2.946 2.571 5.273 0 2.31-.895 4.11-2.571 5.272-1.659 1.146-3.502 1.219-5.72 1.219H82v-13z" fill="#F05A22"/><g transform="translate(0 113.135)"><mask id="b" fill="#fff"><use xlink:href="#a"/></mask><path d="M11.43 12.157l2.518 2.878 2.127-1.926-2.521-2.878-2.124 1.926zM6.983 7.08L9.23 9.648l2.127-1.926-2.249-2.568L6.983 7.08zM0 8.318l6.643-6.019C7.745 1.301 9.073.098 10.517.348c.962.166 1.746.945 2.59 1.91 1.792 2.046 2.372 3.252.876 5.197 2.298-1.146 3.233-.505 4.653 1.117 1.672 1.91 2.286 2.881 2.28 3.924-.022 1.335-1.104 2.315-2.3 3.4l-6.68 6.052-2.486-2.837.893-.81-6.966-7.953-.893.808L0 8.318z" fill="#443F35" mask="url(#b)"/></g><path d="M26.794 105.477l-2.209 1.245 4.662 9.082 2.209-1.246-4.662-9.081zm-1.495-3.335c1.409-.794 2.768-1.476 4.118-.589.858.566 1.39 1.602 2.048 2.881l3.302 6.437c.452.88.94 1.828 1.135 2.684.528 2.346-1.187 3.341-2.47 4.065l-2.69 1.518c-.924.522-2.155 1.188-3.337.945-1.343-.293-1.954-1.484-2.474-2.497l-3.903-7.604c-.465-.904-.929-1.81-1.008-2.757-.207-1.988 1.264-2.818 2.379-3.446l2.9-1.637zM56.923 92.135l.85 3.618-1.15.262L59 106.156l1.15-.262.85 3.62-5.625 1.278-5.186-5.95c-1.354-1.611-1.56-1.927-2.206-2.999.238.672.3.943.482 1.602l2.087 8.444-5.476 1.246-.848-3.619 1.15-.26L43 99.112l-1.15.262-.85-3.618 5.65-1.285 5.738 6.732c.902 1.04 1.073 1.312 1.673 2.29-.497-1.442-.585-1.81-.903-3.165l-1.634-6.967 5.4-1.227zM67.736 90.135L81 90.657l-.234 5.62-4.337-.171.08-1.933-2.706-.107-.14 3.337 3.742.148-.134 3.21-3.74-.147-.16 3.788 1.162.046-.154 3.687-7.379-.29.154-3.688 1.212.048.43-10.335-1.214-.047zM91.26 93.135L98 94.921l-.886 3.584-1.107-.293-2.486 10.046 1.107.292-.885 3.585L87 110.35l.887-3.584 1.085.287 2.485-10.046-1.083-.288zM112.75 105.046l-1.61 3.06 2.402 1.22 1.61-3.06-2.402-1.22zm-3.627-5.911l8.19 4.158c.944.507 2.08 1.084 2.522 2.278.443 1.194-.088 2.199-.616 3.203-1.072 2.032-1.806 3.376-4.412 2.967.487.413.974.827 1.155 1.61.188.927-.147 1.67-.492 2.382l-.875 1.66 1.046.53-1.693 3.212-2.958-1.504c-1.612-.846-2.168-1.293-1.429-2.747l2.461-4.675-2.402-1.22-3.303 6.27-5.317-2.7 1.69-3.211 1 .508 4.743-9.001-1-.509 1.69-3.211z" fill="#443F35"/><g transform="translate(119 112.135)"><mask id="d" fill="#fff"><use xlink:href="#c"/></mask><path fill="#443F35" mask="url(#d)" d="M12.32.198l9.556 8.39-4.004 4.308-3.09-2.714 1.456-1.566-1.956-1.718-2.322 2.499 2.762 2.426-2.254 2.425-2.763-2.427-2.564 2.76L9.098 16.3l1.578-1.698 3.298 2.898-4.125 4.438-9.766-8.575 2.547-2.741.883.774 7.143-7.681-.884-.776z"/></g><path d="M63.119 48.633c-.159-.274-.159-.723 0-.996l7.094-12.297c.158-.273.417-.273.576 0l7.092 12.297c.159.273.159.722 0 .996L70.79 60.93c-.16.275-.418.275-.576 0L63.12 48.633z" fill="#F05A22"/><path d="M48.87 34.587a.85.85 0 000-.904l-3.053-4.361c-.173-.25-.458-.25-.632 0l-3.054 4.36a.843.843 0 000 .905l3.054 4.361c.174.25.459.25.632 0l3.053-4.361z" fill="#443F35"/><g transform="translate(79 .135)"><mask id="f" fill="#fff"><use xlink:href="#e"/></mask><path d="M7.61 7.087c.165-.275.165-.726 0-1.001L4.229.411c-.165-.276-.434-.276-.598 0L.247 6.086c-.165.275-.165.726 0 1.001l3.383 5.676c.164.276.433.276.598 0L7.61 7.087z" fill="#443F35" mask="url(#f)"/></g><path d="M91.178 41.582c-.157-.27-.157-.712 0-.982l3.224-5.572c.157-.27.157-.713 0-.983l-7.497-12.957c-.157-.271-.413-.271-.569 0l-3.224 5.572c-.156.27-.411.27-.569 0L70.785 6.338c-.157-.27-.412-.27-.57 0l-10.83 18.716c-.156.27-.412.27-.568 0L53.7 16.209c-.156-.27-.412-.27-.568 0l-5.12 8.845c-.155.27-.155.712 0 .982l5.12 8.846c.156.27.156.712 0 .982l-7.014 12.12c-.156.271-.156.713 0 .983l6.313 10.911c.157.271.525.58.82.686l9.742 3.535c.294.106.408-.028.25-.298L54.66 48.967c-.157-.27-.157-.712 0-.982L70.216 21.1c.157-.27.412-.27.569 0L86.34 47.985c.157.27.157.712 0 .982l-8.583 14.834c-.157.27-.045.404.25.298l9.744-3.535c.294-.107.662-.415.819-.686l6.313-10.91c.156-.271.156-.713 0-.983l-3.705-6.403zM93.755 84.135l-.035-.01-47.686-17.692A.08.08 0 0146 66.42l2.243-6.284c.013.006.024.007.037.011l47.685 17.69c.01.004.02.011.035.017l-2.245 6.282zM83.756 71.135l12.209-4.144c.01-.002.02-.007.035-.014l-2.282-5.842c-.012.005-.024.006-.036.01L74 67.825l9.756 3.31zM57.242 74.135l-12.207 4.142-.035.013 2.28 5.845.038-.01L67 77.449l-9.758-3.313z" fill="#443F35"/></g></svg>