<svg width="184" height="47" xmlns="http://www.w3.org/2000/svg" xmlns:xlink="http://www.w3.org/1999/xlink"><defs><path id="a" d="M.23.162h3.676V6.95H.23z"/><path id="c" d="M0 47.793h184v-47H0z"/></defs><g transform="translate(0 -.793)" fill="none" fill-rule="evenodd"><path d="M8.68 41.793L2.018 44.28c-.007.002-.014.003-.019.007l1.244 3.506c.007 0 .013-.004.02-.005L14 43.781l-5.32-1.988zM28.743 46.793c-.006 0-.012-.004-.02-.005L2.02 37.206c-.007-.002-.014-.004-.019-.009l1.256-3.404c.007.005.013.005.02.007l26.705 9.583c.006.002.012.003.019.008l-1.257 3.402zM23.322 39.793l6.66-2.485c.005-.002.011-.004.018-.009l-1.245-3.506c-.005.005-.012.005-.02.007L18 37.808l5.322 1.985z" fill="#FEFEFE"/><path d="M12.063 26.524a.605.605 0 000 .538l3.783 6.62c.086.148.223.148.308 0l3.782-6.62a.593.593 0 000-.538l-3.782-6.62c-.085-.148-.222-.148-.308 0l-3.783 6.62z" fill="#F05A22"/><path d="M3.927 20.064a.537.537 0 000-.541L2.18 16.904c-.101-.148-.262-.148-.362 0L.073 19.523a.537.537 0 000 .54l1.746 2.618c.1.15.26.15.362 0l1.746-2.617z" fill="#FEFEFE"/><g transform="translate(21 .793)"><mask id="b" fill="#fff"><use xlink:href="#a"/></mask><path d="M3.847 3.822a.626.626 0 00-.001-.532L2.212.272c-.079-.147-.208-.147-.289 0L.29 3.29a.62.62 0 000 .532L1.923 6.84c.08.146.21.146.289 0l1.635-3.018z" fill="#FEFEFE" mask="url(#b)"/></g><path d="M5.676 33.372c.088.153.3.329.467.39l5.568 2.01c.168.06.232-.015.143-.168l-4.904-8.44a.613.613 0 010-.56l8.888-15.297c.09-.153.235-.153.326 0l4.277 7.365a98.926 98.926 0 01.324.56l4.285 7.372.162.28v-.003c.002.003-.073.13-.162.282l-4.903 8.44c-.09.154-.025.23.143.17l5.566-2.012c.17-.06.38-.236.47-.389l3.607-6.209a.618.618 0 000-.56l-2.118-3.641a.622.622 0 010-.56l1.842-3.17a.605.605 0 000-.558L25.374 11.3c-.088-.154-.235-.154-.324 0l-1.844 3.17c-.088.153-.234.153-.323 0l-6.72-11.563c-.09-.152-.234-.152-.325 0L9.65 13.557c-.09.153-.238.153-.326 0L6.4 8.525c-.088-.154-.235-.154-.324 0L3.15 13.557a.622.622 0 000 .56l2.926 5.033c.09.153.09.404 0 .557l-4.008 6.897a.61.61 0 000 .56l3.608 6.208z" fill="#FEFEFE"/><mask id="d" fill="#fff"><use xlink:href="#c"/></mask><path d="M43.381 30.877h2.07v-2.954h-2.07v2.954zm0-5.531h2.07v-2.64h-2.07v2.64zM39 19.793h6.469c1.072 0 2.366 0 3.03.894.445.594.501 1.446.501 2.44 0 2.099-.26 3.089-1.996 3.428C48.796 27.09 49 27.944 49 29.61c0 1.961-.13 2.834-.63 3.428-.646.755-1.698.755-2.863.755H39v-2.916h.868v-8.17H39v-2.914zM58.545 30.877h1.929v-8.17h-1.93v8.17zm2.074-11.084c1.231 0 2.39.057 2.995 1.21.386.733.386 1.665.386 2.816v5.79c0 .793 0 1.644-.164 2.32-.459 1.844-1.966 1.864-3.087 1.864h-2.351c-.808 0-1.873-.02-2.59-.655C55 32.403 55 31.334 55 30.42v-6.84c0-.812 0-1.625.274-2.32.552-1.468 1.838-1.468 2.81-1.468h2.535zM81 19.793v2.914h-.867v8.17H81v2.916h-4.238l-2.713-5.454c-.697-1.465-.792-1.744-1.074-2.675.057.552.057.773.075 1.306l.076 6.823H69v-2.916h.87v-8.17H69v-2.914h4.257l2.978 6.147c.47.954.547 1.193.81 2.042-.114-1.187-.114-1.488-.114-2.576v-5.613H81zM86 19.793h10v4.44h-3.27v-1.526h-2.04v2.64h2.821v2.535h-2.822v2.995h.875v2.916H86v-2.916h.914v-8.17H86zM99 19.793h6v2.914h-.984v8.17H105v2.916h-6v-2.916h.966v-8.17H99zM114.518 25.483h2.042v-2.777h-2.042v2.777zM110 19.793h6.954c.815.02 1.78.02 2.497.713.718.695.718 1.605.718 2.518 0 1.844-.018 3.076-1.908 3.729.472.12.945.239 1.342.736.453.592.493 1.248.51 1.882v1.506H121v2.916h-2.512c-1.38-.02-1.911-.14-1.928-1.45v-4.242h-2.042v5.692H110v-2.916h.85v-8.17H110v-2.914zM125 19.793h9.784v4.58h-3.165v-1.666h-2.003v2.658h2.83v2.58h-2.83v2.932h2.003v-1.804H135v4.72h-10v-2.916h.904v-8.17H125z" fill="#FEFEFE" mask="url(#d)"/><path d="M147.518 25.486h2.04v-2.777h-2.04v2.777zM143 19.793h6.956c.813.023 1.775.023 2.494.716.719.693.719 1.606.719 2.518 0 1.844-.02 3.07-1.91 3.727.472.118.946.238 1.341.733.456.595.493 1.25.511 1.885v1.507H154v2.914h-2.515c-1.379-.018-1.908-.138-1.927-1.446v-4.245h-2.04v5.691H143V30.88h.851v-8.17H143v-2.916zM159 19.793h9.784v4.581h-3.165V22.71h-2.002v2.656h2.829v2.578h-2.829v2.937h2.002v-1.807H169v4.72h-10V30.88h.904v-8.17H159zM178.44 30.88h1.965v-8.17h-1.965v8.17zM174 19.792h6.705c.692 0 1.463 0 2.062.337 1.216.677 1.233 2.162 1.233 3.312v6.544c0 .854-.017 1.706-.317 2.4-.58 1.389-1.816 1.407-2.884 1.407H174V30.88h.841v-8.17H174v-2.916z" fill="#F05A22" mask="url(#d)"/></g></svg>