<svg width="184" height="123" xmlns="http://www.w3.org/2000/svg" xmlns:xlink="http://www.w3.org/1999/xlink"><defs><path id="a" d="M.249.241h7.452V12.43H.249z"/><path id="c" d="M0 122.982h183.85V0H0z"/></defs><g fill="none" fill-rule="evenodd"><path d="M73.139 116.558c1.396 0 2.057-.445 2.057-1.52 0-1.277-.627-1.684-2.008-1.684h-.663v3.204h.614zm-3.726-5.763h3.676c1.681 0 2.977.019 4.013.819.886.684 1.363 1.72 1.363 2.983 0 1.89-.952 3.103-2.724 3.476l3.317 4.91h-3.741l-2.792-4.773v4.772h-3.112v-12.187z" fill="#231F20"/><g transform="translate(87.293 110.554)"><mask id="b" fill="#fff"><use xlink:href="#a"/></mask><path fill="#231F20" mask="url(#b)" d="M.249.241h7.452V2.92H3.48v2.114h3.982v2.604H3.482V9.7H7.7v2.728H.249z"/></g><path d="M107.321 120.255c2.538 0 3.747-.97 3.747-3.358 0-2.42-1.244-3.376-3.747-3.376h-.56v6.734h.56zm-3.846-9.46h2.929c2.265 0 4.084.034 5.685 1.16 1.531 1.075 2.346 2.762 2.346 4.942 0 2.165-.815 3.852-2.346 4.943-1.515 1.074-3.2 1.142-5.227 1.142h-3.387v-12.187z" fill="#231F20"/><mask id="d" fill="#fff"><use xlink:href="#c"/></mask><path d="M7.096 97.077h3.353v-4.469H7.096v4.47zm0-8.365h3.353v-3.989H7.096v3.99zM0 80.317h10.48c1.738 0 3.83 0 4.91 1.35.718.899.808 2.188.808 3.688 0 3.178-.42 4.677-3.234 5.186 2.905.809 3.234 2.1 3.234 4.618 0 2.968-.21 4.287-1.017 5.187-1.05 1.139-2.754 1.139-4.642 1.139H0v-4.408h1.41V84.723H0v-4.406zM34.946 97.077h3.146V84.723h-3.146v12.354zm3.383-16.76c2.006 0 3.892.09 4.878 1.83.63 1.108.63 2.517.63 4.257v8.755c0 1.2 0 2.488-.268 3.51-.75 2.788-3.205 2.816-5.03 2.816h-3.833c-1.319 0-3.054-.028-4.223-.988-1.316-1.112-1.316-2.73-1.316-4.107V86.045c0-1.23 0-2.458.45-3.508.899-2.22 2.993-2.22 4.581-2.22h4.131zM76.303 80.317v4.406h-1.375v12.354h1.375v4.408h-6.735l-4.31-8.244c-1.108-2.22-1.257-2.64-1.707-4.047.09.838.09 1.167.122 1.977l.12 10.314h-6.556v-4.408h1.375V84.723h-1.375v-4.406H64l4.73 9.296c.748 1.439.87 1.798 1.286 3.087-.178-1.797-.178-2.249-.178-3.899v-8.484h6.464zM90.129 80.317h15.389v6.716h-5.03v-2.31h-3.143v3.99h4.338v3.836h-4.338v4.528h1.346v4.408H90.13v-4.408h1.409V84.723h-1.41zM117.362 80.317h8.565v4.406h-1.41v12.354h1.41v4.408h-8.565v-4.408h1.377V84.723h-1.377zM146.05 88.922h3.233v-4.199h-3.232v4.199zm-7.155-8.605h11.019c1.285.031 2.812.031 3.95 1.08C155 82.446 155 83.823 155 85.2c0 2.791-.027 4.652-3.024 5.64.75.18 1.501.36 2.127 1.111.72.9.778 1.887.812 2.847v2.278h1.404v4.408h-3.983c-2.185-.028-3.023-.21-3.053-2.187V92.88h-3.232v8.605h-7.156v-4.408h1.348V84.723h-1.348v-4.406zM168.612 80.317h14.91v6.925H178.7v-2.519h-3.051v4.02h4.31v3.898h-4.31v4.436h3.051V94.35h5.152v7.136h-15.24v-4.408h1.376V84.723h-1.375zM73.498 29.55a.934.934 0 000-.838l-2.33-4.045c-.132-.23-.35-.23-.482 0l-2.33 4.045a.934.934 0 000 .839l2.33 4.045c.133.231.35.231.483 0l2.329-4.045zM105.332 5.765a.928.928 0 000-.839L102.595.173c-.133-.23-.35-.23-.483 0l-2.737 4.753a.934.934 0 000 .839l2.737 4.754c.133.23.35.23.483 0l2.737-4.754z" fill="#231F20" mask="url(#d)"/><path d="M109.441 34.432a.928.928 0 010-.839l2.739-4.756a.927.927 0 000-.838l-6.368-11.061c-.134-.23-.35-.23-.483 0l-2.739 4.757c-.132.23-.35.23-.482 0L92.12 4.348c-.133-.23-.35-.23-.483 0l-9.199 15.976c-.132.23-.35.23-.483 0l-4.346-7.55c-.133-.23-.35-.23-.484 0l-4.347 7.55a.934.934 0 000 .838l4.347 7.55a.928.928 0 010 .839L71.17 39.897a.934.934 0 000 .838l5.362 9.314c.133.231.446.494.696.585l8.274 3.017c.25.09.346-.023.213-.254l-7.29-12.662a.93.93 0 010-.838L91.637 16.95c.133-.231.35-.231.483 0l13.212 22.947a.928.928 0 010 .838l-7.29 12.662c-.133.23-.038.345.212.254l8.276-3.017c.25-.09.563-.354.696-.585l5.362-9.314a.93.93 0 000-.838l-3.147-5.465z" fill="#231F20" mask="url(#d)"/><path d="M85.68 40.735a.93.93 0 010-.838l5.957-10.346c.133-.23.35-.23.483 0l5.957 10.346a.934.934 0 010 .838L92.12 51.081c-.133.231-.35.231-.483 0l-5.958-10.346zM111.341 71.365l-.03-.009-40.788-14.87a.063.063 0 01-.029-.012l1.918-5.281c.012.004.021.005.033.01l40.787 14.868c.009.003.018.009.03.013l-1.92 5.28zM102.959 60.232l10.273-3.746a.144.144 0 00.03-.012l-1.92-5.282c-.011.005-.021.006-.03.01L94.75 57.24l8.209 2.992zM80.793 62.327l-10.27 3.744c-.01.003-.02.009-.029.012l1.918 5.282.032-.009 16.558-6.035-8.209-2.994z" fill="#231F20" mask="url(#d)"/></g></svg>