<svg width="250" height="167" xmlns="http://www.w3.org/2000/svg" xmlns:xlink="http://www.w3.org/1999/xlink"><defs><path id="a" d="M0 166.836h249.797V0H0z"/></defs><g fill="none" fill-rule="evenodd"><path d="M99.373 158.12c1.897 0 2.796-.603 2.796-2.06 0-1.734-.853-2.286-2.729-2.286h-.9v4.347h.833zm-5.062-7.817H99.305c2.285 0 4.046.025 5.453 1.11 1.204.929 1.852 2.335 1.852 4.048 0 2.564-1.293 4.209-3.7 4.714l4.506 6.66h-5.084l-3.793-6.473v6.474h-4.228v-16.533zM118.943 150.303h10.124v3.632h-5.731v2.868h5.409v3.533h-5.41v2.8h5.733v3.7h-10.125zM145.817 163.136c3.449 0 5.09-1.317 5.09-4.555 0-3.283-1.69-4.58-5.09-4.58h-.763v9.135h.763zm-5.226-12.833h3.98c3.077 0 5.548.046 7.724 1.572 2.08 1.46 3.187 3.748 3.187 6.706 0 2.937-1.107 5.226-3.187 6.705-2.059 1.457-4.35 1.55-7.103 1.55h-4.601v-16.533z" fill="#F05A22"/><mask id="b" fill="#fff"><use xlink:href="#a"/></mask><path d="M9.64 131.694h4.558v-6.063H9.64v6.063zm0-11.349h4.558v-5.411H9.64v5.411zM0 108.956h14.238c2.363 0 5.206 0 6.672 1.832.975 1.219 1.1 2.968 1.1 5.003 0 4.312-.572 6.345-4.395 7.036 3.945 1.097 4.394 2.848 4.394 6.264 0 4.027-.285 5.815-1.383 7.036-1.425 1.546-3.742 1.546-6.307 1.546H0v-5.98h1.915v-16.759H0v-5.978zM47.481 131.694h4.275v-16.76H47.48v16.76zm4.597-22.738c2.725 0 5.287.122 6.627 2.483.856 1.503.856 3.414.856 5.775v11.877c0 1.628 0 3.376-.363 4.76-1.02 3.784-4.355 3.822-6.836 3.822h-5.207c-1.792 0-4.15-.038-5.738-1.341-1.788-1.508-1.788-3.702-1.788-5.57v-14.035c0-1.669 0-3.335.612-4.758 1.221-3.013 4.067-3.013 6.224-3.013h5.613zM103.672 108.957v5.977h-1.868v16.76h1.868v5.979h-9.15l-5.857-11.184c-1.504-3.01-1.707-3.581-2.319-5.49.123 1.137.123 1.584.166 2.682l.163 13.992h-8.908v-5.98h1.87v-16.76h-1.87v-5.976h9.191l6.427 12.61c1.016 1.952 1.18 2.44 1.747 4.188-.242-2.438-.242-3.05-.242-5.29v-11.508h8.782zM122.458 108.957h20.908v9.11h-6.832v-3.133h-4.272v5.412h5.894v5.205h-5.894v6.142h1.83v5.98h-11.634v-5.98h1.914v-16.76h-1.914zM159.46 108.957h11.636v5.977h-1.914v16.76h1.914v5.979H159.46v-5.98h1.872v-16.76h-1.872zM198.439 120.63h4.391v-5.696h-4.391v5.696zm-9.723-11.674h14.971c1.747.043 3.821.043 5.368 1.465 1.543 1.424 1.543 3.293 1.543 5.161 0 3.787-.036 6.312-4.108 7.652 1.018.244 2.04.488 2.89 1.507.978 1.22 1.057 2.559 1.102 3.861v3.092h1.908v5.979h-5.412c-2.968-.038-4.106-.285-4.148-2.967V126h-4.391v11.674h-9.723v-5.98h1.832v-16.759h-1.832v-5.978zM229.091 108.957h20.26v9.394h-6.554v-3.417h-4.146v5.453h5.856v5.288h-5.856v6.018h4.146v-3.7h7v9.68H229.09v-5.98h1.87v-16.76h-1.87zM99.86 40.088c.181-.313.181-.825 0-1.138l-3.163-5.488c-.18-.312-.476-.312-.656 0l-3.166 5.488c-.18.313-.18.825 0 1.138l3.166 5.488c.18.313.476.313.656 0l3.164-5.488zM143.114 7.82c.182-.313.182-.825 0-1.137L139.396.234c-.18-.312-.476-.312-.656 0l-3.719 6.449c-.18.312-.18.824 0 1.137l3.719 6.45c.18.312.475.312.656 0l3.718-6.45z" fill="#443F35" mask="url(#b)"/><path d="M148.698 46.71c-.182-.314-.182-.825 0-1.139l3.72-6.452c.181-.313.181-.824 0-1.138l-8.652-15.003c-.181-.314-.476-.314-.656 0l-3.721 6.452c-.18.313-.475.313-.656 0l-13.57-23.532c-.18-.312-.476-.312-.656 0L112.009 27.57c-.18.313-.476.313-.657 0l-5.906-10.241c-.18-.313-.475-.313-.656 0L98.884 27.57c-.18.313-.18.825 0 1.137l5.906 10.243c.181.313.181.824 0 1.138l-8.093 14.035c-.18.312-.18.825 0 1.137l7.285 12.635c.181.314.606.67.946.794l11.242 4.092c.34.124.47-.031.29-.344l-9.906-17.177c-.18-.312-.18-.825 0-1.137l17.953-31.13c.18-.313.475-.313.656 0l17.95 31.13c.182.312.182.825 0 1.137l-9.904 17.177c-.18.313-.051.468.288.344l11.245-4.092c.34-.123.764-.48.945-.794l7.286-12.635c.18-.312.18-.825 0-1.137l-4.275-7.414z" fill="#443F35" mask="url(#b)"/><path d="M116.412 55.26c-.18-.312-.18-.825 0-1.137l8.095-14.035c.18-.314.475-.314.656 0l8.094 14.035c.18.312.18.825 0 1.137l-8.094 14.036c-.18.313-.476.313-.656 0l-8.095-14.036z" fill="#F05A22" mask="url(#b)"/><path d="M151.28 96.812l-.041-.012-55.42-20.172a.09.09 0 01-.039-.017l2.606-7.164c.016.006.029.007.044.013l55.417 20.17.041.019-2.609 7.163zM139.89 81.71l13.957-5.082a.196.196 0 00.041-.017l-2.609-7.164c-.014.006-.028.007-.04.013l-22.503 8.19 11.154 4.06zM109.774 84.552L95.82 89.63c-.014.004-.028.011-.04.015l2.606 7.166.044-.012 22.497-8.186-11.153-4.062z" fill="#443F35" mask="url(#b)"/></g></svg>