<svg width="171" height="139" xmlns="http://www.w3.org/2000/svg"><g fill="none" fill-rule="evenodd"><path d="M82.014 115.851c1.253-.723 1.628-1.446 1.1-2.362-.63-1.09-1.394-1.111-2.633-.396l-.595.344 1.577 2.732.55-.318zm-6.183-2.983l3.114-1.797.187-.108c1.51-.872 2.683-1.528 4.006-1.383 1.132.125 2.071.762 2.693 1.838.93 1.612.673 3.139-.735 4.375l5.396 2.468-3.36 1.94-4.856-2.623 2.35 4.07-2.795 1.613-6-10.393zM92.286 103.368l6.062-3.5 1.318 2.284-3.432 1.981 1.041 1.803 3.239-1.87 1.282 2.22-3.239 1.87 1.016 1.76 3.432-1.981 1.343 2.326-6.062 3.5zM113.276 102.005c2.207-1.274 2.78-2.708 1.604-4.744-1.191-2.063-2.743-2.255-4.919-.999l-.487.282 3.315 5.742.487-.281zm-8-6.137l2.205-1.273.341-.197c1.969-1.136 3.566-2.02 5.512-1.864 1.86.15 3.4 1.178 4.473 3.038 1.066 1.846 1.188 3.693.394 5.391-.788 1.677-2.22 2.581-3.981 3.598l-.739.426-2.205 1.274-6-10.393z" fill="#F05A22"/><path d="M14.959 131.417l2.869-1.656-2.217-3.84-2.869 1.656 2.217 3.84zm-4.15-7.187l2.87-1.656-1.98-3.428-2.868 1.657 1.978 3.427zM.576 120.521l8.964-5.175c1.487-.859 3.277-1.892 4.87-1.265 1.06.417 1.777 1.48 2.521 2.77 1.577 2.73 1.96 4.225-.194 6.052 2.885-.74 3.808.207 5.057 2.37 1.473 2.55 1.947 3.787 1.702 4.96-.332 1.496-1.79 2.338-3.405 3.27l-9.015 5.205-2.187-3.787 1.206-.696-6.128-10.614-1.206.696-2.185-3.786zM39.122 117.467l2.786-1.609-6.128-10.614-2.786 1.609 6.128 10.614zm-5.318-16.13c1.776-1.025 3.49-1.912 5.227-.921 1.107.63 1.806 1.84 2.67 3.335l4.342 7.522c.595 1.03 1.234 2.138 1.504 3.152.719 2.78-1.441 4.058-3.058 4.992l-3.394 1.96c-1.167.673-2.718 1.537-4.23 1.309-1.716-.282-2.518-1.671-3.202-2.855l-5.131-8.888c-.61-1.057-1.22-2.112-1.341-3.244-.306-2.367 1.549-3.438 2.955-4.25l3.658-2.112zM66.394 82.521l2.185 3.786-1.186.685 6.128 10.614 1.186-.685 2.187 3.787-5.813 3.356-7.809-4.935c-2.057-1.356-2.394-1.643-3.48-2.627.493.675.657.958 1.086 1.638l5.219 8.801-5.658 3.267-2.186-3.787 1.187-.685-6.128-10.614-1.187.685-2.186-3.786 5.838-3.37 8.693 5.63c1.36.863 1.642 1.112 2.641 2.01-1.045-1.454-1.269-1.842-2.087-3.26l-4.209-7.289 5.579-3.22zM78.518 75.521l12.99-7.5 3.332 5.77-4.245 2.452-1.146-1.985-2.654 1.532 1.978 3.428 3.663-2.115 1.903 3.297-3.662 2.114 2.246 3.89 1.136-.656 2.187 3.787-7.228 4.173-2.186-3.787 1.189-.687-6.128-10.614-1.19.687zM101.9 62.021l7.795-4.5 2.185 3.786-1.282.74 6.128 10.614 1.282-.74 2.187 3.787-7.794 4.5-2.187-3.787 1.254-.724-6.128-10.614-1.254.724zM131.268 54.923l2.73-1.576-2.082-3.608-2.73 1.577 2.082 3.607zm-10.315-3.902l9.31-5.375c1.102-.6 2.392-1.345 3.874-1 1.48.348 2.164 1.532 2.847 2.715 1.384 2.398 2.285 4.01.243 6.321.722-.21 1.447-.423 2.348-.083 1.055.422 1.593 1.241 2.097 2.05l1.13 1.957 1.187-.685 2.187 3.787-3.366 1.943c-1.86 1.042-2.657 1.294-3.665-.389l-3.183-5.515-2.73 1.577 4.268 7.393-6.047 3.491-2.186-3.787 1.139-.657-6.128-10.614-1.139.657-2.186-3.786zM146.934 36.021l12.71-7.338 3.436 5.95-4.112 2.374-1.25-2.165-2.6 1.502 1.993 3.454 3.674-2.121 1.933 3.349-3.673 2.12 2.2 3.812 2.601-1.502-1.353-2.343 4.392-2.536 3.54 6.131-12.991 7.5-2.186-3.787 1.172-.677-6.128-10.614-1.172.677z" fill="#443F35"/><g><path d="M38.668 40.686a.935.935 0 00-.407-.705l-3.85-2.309c-.22-.132-.396-.03-.392.226l.074 4.49a.935.935 0 00.406.705l3.852 2.308c.22.132.396.03.392-.226l-.075-4.489zM54.39 3.925c-.007-.271-.2-.607-.432-.747L49.203.276c-.23-.14-.414-.035-.408.235l.135 5.57c.007.27.201.605.432.747l4.755 2.901c.23.141.414.035.408-.235l-.136-5.57z" fill="#443F35"/><path d="M72.573 25.776a.903.903 0 01-.415-.719l.039-5.458a.903.903 0 00-.415-.72l-11.039-6.266c-.23-.13-.42-.021-.421.243l-.04 5.459c-.002.265-.192.374-.422.244l-17.313-9.83c-.23-.13-.42-.02-.423.244l-.133 18.336c-.002.264-.192.374-.422.243l-7.535-4.277c-.23-.131-.42-.022-.422.243l-.064 8.665a.907.907 0 00.415.718L41.5 37.18c.23.13.417.453.415.719l-.086 11.874a.907.907 0 00.415.718l9.296 5.277c.23.132.634.2.897.151l8.725-1.59c.263-.047.29-.193.06-.324L48.585 46.83a.905.905 0 01-.415-.718l.191-26.338c.002-.264.192-.373.423-.243l22.903 13.003c.23.13.417.454.415.719l-.106 14.532c-.002.264.138.314.311.11l5.74-6.762a1.55 1.55 0 00.319-.853l.077-10.688a.905.905 0 00-.415-.719l-5.454-3.097z" fill="#443F35"/><path d="M54.488 43.694a.914.914 0 01-.422-.73l.123-12.085c.002-.27.196-.381.432-.249l10.526 5.937c.234.132.424.46.421.73l-.121 12.084c-.004.27-.198.382-.432.25l-10.527-5.937z" fill="#F05A22"/><path d="M92.265 57.192l-.03.008-42.888 7.737a.068.068 0 01-.031.004l-.949-5.498c.013-.003.021-.007.033-.009l42.886-7.737.033-.004.946 5.5zM80.145 51.488l7.266-8.501a.15.15 0 00.02-.026l-4.335-3.569c-.007.01-.016.015-.022.024L71.36 53.12l8.786-1.633zM61.354 64.647l-7.267 8.5-.02.025 4.336 3.57.024-.023 11.716-13.704-8.79 1.632z" fill="#443F35"/></g></g></svg>