<svg width="80" height="96" xmlns="http://www.w3.org/2000/svg" xmlns:xlink="http://www.w3.org/1999/xlink"><defs><path id="a" d="M.447.13h74.309v88.251H.446z"/></defs><g fill="none" fill-rule="evenodd"><path d="M9.36 52.678c.233-.41.233-1.083 0-1.492l-4.162-7.215c-.24-.408-.625-.408-.863 0L.173 51.186c-.23.41-.23 1.081 0 1.492l4.162 7.212c.238.412.623.412.863 0l4.162-7.212zM66.193 10.274c.238-.407.238-1.084-.002-1.495L61.304.308c-.233-.41-.625-.41-.862 0l-4.884 8.471c-.241.41-.241 1.088 0 1.495l4.884 8.479c.237.409.629.409.862 0l4.89-8.479z" fill="#FEFEFE"/><g transform="translate(4.571 7.314)"><mask id="b" fill="#fff"><use xlink:href="#a"/></mask><path d="M10.202 81.907c.234.41.795.879 1.243 1.04l14.775 5.378c.445.163.615-.04.379-.448L13.582 65.304c-.239-.411-.239-1.085 0-1.496l23.587-40.907c.242-.412.627-.412.865 0l11.354 19.694.432.747s.192.34.428.75l11.371 19.716c.236.413.43.752.43.747v-.004c.003.004-.194.342-.43.753L48.61 87.877c-.24.409-.069.61.376.448l14.773-5.378c.45-.161 1.007-.63 1.246-1.04l9.575-16.603c.236-.411.236-1.085 0-1.496l-5.62-9.74c-.237-.41-.237-1.088 0-1.499l4.888-8.477c.242-.41.242-1.083 0-1.493L62.479 22.878c-.234-.409-.624-.409-.86 0l-4.894 8.479c-.233.411-.622.411-.857 0L38.034.436c-.238-.408-.623-.408-.865 0L20.75 28.916c-.239.408-.63.408-.867 0l-7.759-13.46c-.235-.41-.625-.41-.86 0L3.5 28.917c-.236.408-.236 1.086 0 1.496l7.765 13.46c.235.41.235 1.082 0 1.493L.627 63.808c-.24.41-.24 1.085 0 1.496l9.575 16.603z" fill="#FEFEFE" mask="url(#b)"/></g></g></svg>