<svg width="53" height="16" xmlns="http://www.w3.org/2000/svg" xmlns:xlink="http://www.w3.org/1999/xlink"><defs><path id="a" d="M.043.028h9.122V15H.043z"/></defs><g fill="none" fill-rule="evenodd"><path d="M4.636 8.06c1.736 0 2.56-.547 2.56-1.87 0-1.573-.782-2.073-2.5-2.073h-.824V8.06h.764zM0 .967h4.573c2.092 0 3.705.023 4.994 1.008 1.102.842 1.695 2.118 1.695 3.672 0 2.327-1.184 3.818-3.389 4.277L12 15.967H7.345l-3.473-5.873v5.873H0v-15z" fill="#F05A22"/><g transform="translate(21 .967)"><mask id="b" fill="#fff"><use xlink:href="#a"/></mask><path fill="#F05A22" mask="url(#b)" d="M.043.028h9.122v3.29H4.001v2.597h4.873v3.199H4.001v2.535h5.164V15H.043z"/></g><path d="M44.562 12.61c3.01 0 4.444-1.194 4.444-4.133 0-2.978-1.475-4.155-4.444-4.155h-.666v8.288h.666zM40 .967H43.474c2.686 0 4.844.042 6.743 1.427C52.034 3.719 53 5.794 53 8.477c0 2.665-.966 4.742-2.783 6.084-1.797 1.322-3.796 1.406-6.2 1.406H40v-15z" fill="#F05A22"/></g></svg>