<svg width="626" height="241" xmlns="http://www.w3.org/2000/svg" xmlns:xlink="http://www.w3.org/1999/xlink"><defs><path id="a" d="M0 94.218h139.915V.688H0z"/><path id="c" d="M0 .22h3.84v7.53H0z"/><path id="e" d="M.305.324h14.42V7.66H.305z"/><path id="g" d="M.073.29h13.762V7H.073z"/><path id="i" d="M0 .22h3.84v7.53H0z"/><path id="k" d="M.305.324h14.42V7.66H.305z"/><path id="m" d="M.073.29h13.762V7H.073z"/><path id="o" d="M0 .178h14.84V19H0z"/><path id="q" d="M.258.17h9.409v14.72H.256z"/></defs><g fill="none" fill-rule="evenodd"><g transform="translate(357 75)"><path d="M55.406 89.408c1.1 0 1.622-.333 1.622-1.137 0-.957-.495-1.262-1.584-1.262h-.522v2.4h.484zm-2.938-4.315h2.898c1.326 0 2.348.015 3.164.613.698.513 1.074 1.289 1.074 2.234 0 1.416-.75 2.323-2.147 2.602l2.615 3.676h-2.95l-2.2-3.573v3.573h-2.454v-9.125zm14.448 0h5.323v2.005h-3.014v1.583h2.844v1.95h-2.844v1.545h3.014v2.042h-5.323zm14.341 7.083c1.938 0 2.86-.727 2.86-2.514 0-1.812-.95-2.528-2.86-2.528h-.428v5.042h.428zm-2.935-7.083h2.236c1.728 0 3.116.026 4.338.868 1.169.806 1.79 2.069 1.79 3.701 0 1.621-.621 2.885-1.79 3.7-1.156.805-2.443.856-3.99.856h-2.584v-9.125z" fill="#F05A22"/><mask id="b" fill="#fff"><use xlink:href="#a"/></mask><path d="M5.33 74.164h2.518v-3.37H5.33v3.37zm0-6.31h2.518v-3.01H5.33v3.01zM0 61.52h7.87c1.307 0 2.878 0 3.689 1.018.54.678.608 1.65.608 2.782 0 2.398-.316 3.529-2.43 3.913 2.181.61 2.43 1.584 2.43 3.483 0 2.24-.158 3.234-.765 3.913-.788.86-2.068.86-3.486.86H0v-3.326h1.058v-9.32H0V61.52zm26.545 12.644h2.446v-9.32h-2.446v9.32zm2.63-12.643c1.56 0 3.026.067 3.793 1.38.49.836.49 1.899.49 3.212v6.604c0 .905 0 1.877-.208 2.648-.583 2.104-2.492 2.124-3.912 2.124h-2.98c-1.025 0-2.374-.02-3.283-.745-1.023-.839-1.023-2.059-1.023-3.098v-7.804c0-.928 0-1.854.35-2.646.699-1.675 2.327-1.675 3.562-1.675h3.212zm28.616-.001v3.325H56.75v9.32h1.042v3.324h-5.104l-3.265-6.219c-.84-1.674-.952-1.991-1.294-3.053.068.633.068.881.092 1.492l.091 7.78h-4.968v-3.325h1.043v-9.32h-1.043v-3.323h5.127l3.583 7.012c.567 1.086.659 1.357.975 2.329-.135-1.356-.135-1.696-.135-2.941v-6.4h4.898zm10.646 0h11.406v5.067h-3.727v-1.742h-2.33v3.009H77v2.894h-3.216v3.416h.998v3.325h-6.346v-3.325h1.044v-9.32h-1.044zm20.531 0h6.844v3.325h-1.126v9.32h1.126v3.324h-6.844v-3.325h1.1v-9.32h-1.1zm22.038 6.492h2.398v-3.167h-2.398v3.167zm-5.309-6.491h8.175c.953.023 2.086.023 2.93.814.844.792.844 1.831.844 2.87 0 2.106-.02 3.51-2.244 4.255.556.136 1.114.272 1.578.838.534.679.577 1.423.602 2.147v1.72h1.042v3.324h-2.955c-1.621-.02-2.242-.158-2.265-1.65v-4.841h-2.398v6.491h-5.309v-3.325h1v-9.32h-1v-3.323zm22.813-.001h11.16v5.225h-3.61v-1.9h-2.284v3.032H137v2.94h-3.225v3.347h2.284v-2.058h3.855v5.383H128.51v-3.325h1.03v-9.32h-1.03zM55.44 23.43a.711.711 0 000-.62l-1.659-2.984c-.094-.17-.249-.17-.343 0l-1.66 2.984a.711.711 0 000 .62l1.66 2.984c.094.17.249.17.343 0l1.658-2.985zM79.769 5.198a.762.762 0 000-.656L77.74.823c-.099-.18-.26-.18-.358 0l-2.029 3.719a.767.767 0 000 .656l2.029 3.72c.098.18.26.18.358 0l2.028-3.72z" fill="#443F35" mask="url(#b)"/><path d="M83.435 26.501a.687.687 0 010-.63l2.101-3.58a.687.687 0 000-.632l-4.886-8.324c-.102-.174-.269-.174-.37 0l-2.102 3.58c-.102.173-.269.173-.37 0L70.142 3.859c-.102-.173-.269-.173-.37 0l-7.06 12.024c-.101.174-.268.174-.37 0l-3.336-5.682c-.102-.173-.268-.173-.37 0L55.3 15.883a.69.69 0 000 .631l3.336 5.683a.687.687 0 010 .63l-4.57 7.788a.69.69 0 000 .63l4.114 7.01c.102.174.342.372.534.44l6.35 2.271c.192.068.265-.017.163-.19l-5.594-9.53a.688.688 0 010-.631l10.14-17.272c.101-.173.268-.173.37 0l10.139 17.272a.686.686 0 010 .63l-5.595 9.53c-.102.174-.028.26.163.191l6.351-2.27c.192-.069.432-.267.534-.441l4.115-7.01a.688.688 0 000-.63L83.435 26.5z" fill="#443F35" mask="url(#b)"/><path d="M64.713 31.425a.695.695 0 010-.641l4.675-7.912c.105-.176.275-.176.38 0l4.674 7.912a.697.697 0 010 .64l-4.674 7.913c-.105.176-.275.176-.38 0l-4.675-7.912z" fill="#F05A22" mask="url(#b)"/><path d="M84.458 54.677l-.023-.007-31.184-11.21a.051.051 0 01-.022-.01l1.466-3.981.025.007 31.183 11.21.023.01-1.468 3.981zm-5.812-8.364l8.017-2.836a.115.115 0 00.024-.01l-1.499-3.998-.023.007-12.926 4.571 6.407 2.266zm-17.378 1.52l-8.017 2.835-.022.01 1.497 3.999.025-.007 12.925-4.57-6.408-2.267z" fill="#443F35" mask="url(#b)"/></g><path stroke="#61594B" opacity=".6" d="M350 76l-54 93.531"/><g opacity=".05"><g transform="translate(323 111)"><mask id="d" fill="#fff"><use xlink:href="#c"/></mask><path d="M3.769 4.325a.845.845 0 000-.68L2.094.36C2 .174 1.843.174 1.747.361L.072 3.644a.845.845 0 000 .681l1.675 3.283c.096.188.252.188.347 0L3.77 4.325z" fill="#443F35" mask="url(#d)"/></g><path d="M350.919 97.314a.646.646 0 000-.628l-2.223-3.557c-.108-.172-.285-.172-.392 0l-2.223 3.557a.65.65 0 000 .628l2.223 3.557c.107.172.284.172.392 0l2.223-3.557zm2.663 21.299a.696.696 0 010-.627l2.04-3.555a.699.699 0 000-.627l-4.743-8.265c-.1-.173-.262-.173-.36 0l-2.04 3.554c-.099.173-.26.173-.36 0L340.68 96.13c-.1-.172-.261-.172-.36 0l-6.852 11.94c-.099.172-.26.172-.36 0l-3.237-5.642c-.1-.173-.26-.173-.36 0l-3.238 5.642a.7.7 0 000 .626l3.238 5.643c.1.172.1.454 0 .627l-4.437 7.732a.7.7 0 000 .627l3.994 6.96c.1.173.332.37.518.438l6.164 2.255c.186.068.257-.018.159-.19l-5.431-9.463a.697.697 0 010-.627l9.842-17.15c.099-.172.26-.172.36 0l9.84 17.15c.1.172.1.455 0 .627l-5.43 9.463c-.098.172-.027.258.159.19l6.164-2.255a1.15 1.15 0 00.519-.438l3.994-6.96a.699.699 0 000-.627l-2.344-4.084z" fill="#443F35"/><path d="M336.08 123.826a.71.71 0 010-.652l4.729-8.04c.105-.179.278-.179.383 0l4.729 8.04a.711.711 0 010 .652l-4.729 8.04c-.105.179-.278.179-.383 0l-4.73-8.04z" fill="#F05A22"/><path d="M355.563 147l-.022-.007-30.52-11.057a.05.05 0 01-.021-.009l1.435-3.927.024.007 30.519 11.057.022.01-1.437 3.926z" fill="#443F35"/><g transform="translate(342 131)"><mask id="f" fill="#fff"><use xlink:href="#e"/></mask><path d="M6.7 7.66l8.002-3.04a.11.11 0 00.023-.01L13.23.324c-.008.004-.016.005-.023.008L.305 5.232 6.699 7.66z" fill="#443F35" mask="url(#f)"/></g><g transform="translate(325 140)"><mask id="h" fill="#fff"><use xlink:href="#g"/></mask><path d="M7.731.29L.095 3.07l-.022.008L1.5 7l.024-.007 12.312-4.48L7.731.29z" fill="#443F35" mask="url(#h)"/></g><g transform="translate(289 111)"><mask id="j" fill="#fff"><use xlink:href="#i"/></mask><path d="M3.769 4.325a.845.845 0 000-.68L2.094.36C2 .174 1.843.174 1.747.361L.072 3.644a.845.845 0 000 .681l1.675 3.283c.096.188.252.188.347 0L3.77 4.325z" fill="#443F35" mask="url(#j)"/></g><path d="M316.919 97.314a.646.646 0 000-.628l-2.223-3.557c-.108-.172-.285-.172-.392 0l-2.223 3.557a.65.65 0 000 .628l2.223 3.557c.107.172.284.172.392 0l2.223-3.557zm2.663 21.299a.696.696 0 010-.627l2.04-3.555a.699.699 0 000-.627l-4.743-8.265c-.1-.173-.262-.173-.36 0l-2.04 3.554c-.099.173-.26.173-.36 0L306.68 96.13c-.1-.172-.261-.172-.36 0l-6.852 11.94c-.099.172-.26.172-.36 0l-3.237-5.642c-.1-.173-.26-.173-.36 0l-3.238 5.642a.7.7 0 000 .626l3.238 5.643c.1.172.1.454 0 .627l-4.437 7.732a.7.7 0 000 .627l3.994 6.96c.1.173.332.37.518.438l6.164 2.255c.186.068.257-.018.159-.19l-5.431-9.463a.697.697 0 010-.627l9.842-17.15c.099-.172.26-.172.36 0l9.84 17.15c.1.172.1.455 0 .627l-5.43 9.463c-.098.172-.027.258.159.19l6.164-2.255a1.15 1.15 0 00.519-.438l3.994-6.96a.699.699 0 000-.627l-2.344-4.084z" fill="#443F35"/><path d="M302.08 123.826a.71.71 0 010-.652l4.729-8.04c.105-.179.278-.179.383 0l4.729 8.04a.711.711 0 010 .652l-4.729 8.04c-.105.179-.278.179-.383 0l-4.73-8.04z" fill="#F05A22"/><path d="M321.563 147l-.022-.007-30.52-11.057a.05.05 0 01-.021-.009l1.435-3.927.024.007 30.519 11.057.022.01-1.437 3.926z" fill="#443F35"/><g transform="translate(308 131)"><mask id="l" fill="#fff"><use xlink:href="#k"/></mask><path d="M6.7 7.66l8.002-3.04a.11.11 0 00.023-.01L13.23.324c-.008.004-.016.005-.023.008L.305 5.232 6.699 7.66z" fill="#443F35" mask="url(#l)"/></g><g transform="translate(291 140)"><mask id="n" fill="#fff"><use xlink:href="#m"/></mask><path d="M7.731.29L.095 3.07l-.022.008L1.5 7l.024-.007 12.312-4.48L7.731.29z" fill="#443F35" mask="url(#n)"/></g></g><path stroke="#61594B" stroke-width=".5" opacity=".6" stroke-dasharray="3" d="M290 240.5L289.5 0m67.75 240.5L356.75 0m-33.5 240.5L322.75 0"/><g transform="translate(99 143)"><mask id="p" fill="#fff"><use xlink:href="#o"/></mask><path d="M7.408 3.55c-2.158 0-3.74 1.737-3.74 4.354 0 2.616 1.582 4.352 3.74 4.352 2.182 0 3.74-1.736 3.74-4.352 0-2.617-1.558-4.353-3.74-4.353zm-.432 12.053C3.07 15.402 0 12.307 0 7.903 0 3.35 3.284.179 7.408.179c4.123 0 7.432 3.17 7.432 7.726 0 3.295-1.726 5.862-4.267 7.045L13.809 19H9.662l-2.686-3.396z" fill="#17334D" mask="url(#p)"/></g><path d="M121.295 153.407c1.084.807 2.39 1.491 4.04 1.491 1.108 0 2.069-.318 2.069-1.295 0-.879-.764-1.197-2.241-1.564-3.03-.757-4.163-2.125-4.163-4.543 0-2.859 2.192-4.496 5.074-4.496 1.749 0 2.956.415 4.04 1.051v3.567c-1.134-.929-2.39-1.515-3.892-1.515-1.109 0-1.65.489-1.65 1.172 0 .929.837 1.222 2.388 1.612 3.005.782 4.04 2.175 4.04 4.594 0 3.152-2.537 4.519-5.64 4.519-1.626 0-3.104-.44-4.065-1.026v-3.567zm26.38-3.384c.173.024.69.046 1.11.046 1.504 0 2.516-.579 2.516-1.993 0-1.46-1.184-1.994-2.516-1.994a8.99 8.99 0 00-1.11.07v3.871zm0 6.977H144v-13.652a35.997 35.997 0 014.785-.348c3.625 0 6.215 1.576 6.215 5.076 0 3.593-2.935 4.937-6.018 4.937-.444 0-1.01-.023-1.307-.046V157zm20.313-10.488l-1.922 4.973h3.794l-1.872-4.973zm-3.046 7.825L163.918 157H160l5.766-14h4.468L176 157h-4.069l-.998-2.663h-5.99zm21.653-4.568h.899c1.506 0 2.575-.488 2.575-1.9 0-1.392-1.117-1.879-2.477-1.879a12 12 0 00-.997.047v3.732zm0 7.231H183v-13.698c1.142-.186 3.06-.302 4.567-.302 3.692 0 6.17 1.484 6.17 4.776 0 1.97-1.166 3.36-2.6 4.078L195 157h-4.25l-3.11-4.404h-1.045V157zm22.167 0h-3.524v-10.912H201V143h12v3.088h-4.238zm21.726-5.421V143H234v14h-3.439l-6.049-8.414V157H221v-14h3.659zM253 153.912V157h-10v-14h9.825v3.088h-6.15v2.404h5.6v3.017h-5.6v2.403zm12.595-4.143h.899c1.506 0 2.575-.488 2.575-1.9 0-1.392-1.117-1.879-2.477-1.879a12 12 0 00-.997.047v3.732zm0 7.231H262v-13.698c1.142-.186 3.06-.302 4.567-.302 3.692 0 6.17 1.484 6.17 4.776 0 1.97-1.166 3.36-2.6 4.078L274 157h-4.25l-3.11-4.404h-1.045V157z" fill="#17334D"/><g transform="translate(280 143)"><mask id="r" fill="#fff"><use xlink:href="#q"/></mask><path d="M.536 10.383c1.02.791 2.248 1.463 3.8 1.463 1.043 0 1.947-.312 1.947-1.27 0-.863-.718-1.175-2.109-1.535C1.324 8.298.258 6.955.258 4.582.258 1.777 2.32.17 5.032.17c1.645 0 2.78.408 3.8 1.031v3.501c-1.066-.912-2.248-1.486-3.66-1.486-1.044 0-1.554.48-1.554 1.15 0 .91.788 1.199 2.248 1.582 2.827.767 3.8 2.134 3.8 4.507 0 3.094-2.386 4.435-5.306 4.435-1.53 0-2.92-.431-3.824-1.006v-3.501z" fill="#17334D" mask="url(#r)"/></g><path d="M203.297 107.03c.468.284.755.8.755 1.358l.005 1.63-1.717.965-17.868-10.55a1.588 1.588 0 01-.768-1.367l.012-1.47 1.792-1.066 17.789 10.5zm-8.394-15.14L210 100.8v-6.345L194 85l-16 9.455v8.589l19.034 11.231-2.341 1.405c-.461.258-1.138.208-1.599-.05L178 106.753v6.614l20.82 12.29a2.283 2.283 0 002.41 0l3.788-2.309-5.779-3.623L210 113.366v-8.814L191.082 93.38l2.657-1.61a1.514 1.514 0 011.164.12z" fill="#BEBDBE"/><path stroke="#61594B" stroke-width=".5" opacity=".6" stroke-dasharray="3" d="M625.5 75.75H.5m625 94H.5"/></g></svg>