<svg width="10" height="10" xmlns="http://www.w3.org/2000/svg"><path d="M9.64 1.01L9.001.364A1.25 1.25 0 008.105 0c-.387 0-.773.165-1.06.453l-.655.665-.247-.25C5.906.63 5.471.645 5.22.899l-.726.733c-.26.262-.273.676-.03.922l.23.23-4.1 4.136a.284.284 0 00-.076.139L.012 9.347a.557.557 0 00.109.469c.1.118.244.184.41.184.039 0 .08-.004.123-.012 1.462-.284 1.975-.386 2.172-.437a.288.288 0 00.184-.084l4.152-4.19.3.301a.606.606 0 00.434.179c.18 0 .359-.076.49-.208l.725-.733c.26-.262.274-.676.03-.922l-.253-.255.665-.668c.56-.565.6-1.445.087-1.962zM2.66 9.004c-.271.06-1.364.275-2.076.414l.478-2.157L2.67 5.638l2.782.548L2.66 9.005zm3.277-3.307L3.154 5.15l1.942-1.96.086.088 1.576 1.59-.821.83zm3.207-3.129l-.864.869a.285.285 0 000 .402l.452.456c.015.016.016.072-.03.118l-.726.733a.118.118 0 01-.08.038c-.008 0-.02-.002-.026-.008l-.503-.509-1.758-1.773-.737-.744c-.015-.016-.016-.072.03-.118l.726-.733a.117.117 0 01.08-.037c.008 0 .02 0 .026.008l.452.456a.288.288 0 00.41 0l.859-.872a.929.929 0 01.65-.283c.19 0 .363.069.487.194l.639.645c.293.295.253.815-.087 1.158z" fill="#E8E8E8"/></svg>