<svg width="184" height="124" xmlns="http://www.w3.org/2000/svg" xmlns:xlink="http://www.w3.org/1999/xlink"><defs><path id="a" d="M0 123.905h184v-123H0z"/></defs><g fill="none" fill-rule="evenodd"><path d="M72.863 117.58c1.447 0 2.133-.439 2.133-1.497 0-1.258-.65-1.659-2.082-1.659h-.687v3.155h.636zM69 111.904h3.811c1.743 0 3.087.018 4.16.806.919.674 1.414 1.694 1.414 2.938 0 1.86-.987 3.054-2.824 3.421L79 123.905h-3.88l-2.893-4.7v4.7H69v-12zm19 .001h7v2.636h-3.963v2.082h3.74v2.564h-3.74v2.032H95v2.686h-7zm18.86 9.315c2.548 0 3.76-.957 3.76-3.307 0-2.383-1.248-3.325-3.76-3.325h-.563v6.631h.563zm-3.86-9.315h2.94c2.273 0 4.098.033 5.706 1.141 1.536 1.06 2.354 2.72 2.354 4.867 0 2.132-.818 3.793-2.354 4.867-1.521 1.058-3.213 1.125-5.247 1.125H103v-12z" fill="#F05A22"/><mask id="b" fill="#fff"><use xlink:href="#a"/></mask><path d="M7.008 97.532h3.313V93.1H7.008v4.433zm0-8.299h3.313v-3.957H7.008v3.957zM0 80.905h10.35c1.718 0 3.785 0 4.85 1.34.71.89.8 2.17.8 3.658 0 3.153-.415 4.64-3.195 5.145C15.674 91.85 16 93.13 16 95.628c0 2.946-.208 4.254-1.005 5.147-1.037 1.13-2.72 1.13-4.585 1.13H0v-4.373h1.392V85.276H0v-4.371zm34.91 16.627h3.216V85.276H34.91v12.256zm3.458-16.627c2.052 0 3.98.089 4.988 1.815.644 1.1.644 2.497.644 4.223v8.686c0 1.19 0 2.469-.273 3.481-.768 2.767-3.278 2.795-5.145 2.795h-3.918c-1.349 0-3.123-.028-4.318-.98C29 99.821 29 98.216 29 96.85V86.587c0-1.22 0-2.438.46-3.48.92-2.202 3.06-2.202 4.685-2.202h4.223zm37.632 0v4.37h-1.37v12.257H76v4.373h-6.712l-4.295-8.179c-1.103-2.202-1.252-2.619-1.7-4.015.09.832.09 1.158.12 1.962l.12 10.232H57v-4.373h1.37V85.276H57v-4.371h6.741l4.713 9.222c.746 1.427.867 1.784 1.282 3.062-.177-1.783-.177-2.23-.177-3.868v-8.416H76zm14 0h15v6.662h-4.902v-2.291h-3.065v3.957h4.23v3.807h-4.23v4.492h1.313v4.373H90v-4.373h1.373V85.276H90zm27 0h9v4.37h-1.48v12.257H126v4.373h-9v-4.373h1.447V85.276H117zm28.982 8.536h3.153v-4.165h-3.153v4.165zM139 80.905h10.75c1.255.03 2.744.03 3.855 1.07 1.108 1.042 1.108 2.409 1.108 3.775 0 2.769-.026 4.616-2.95 5.596.731.178 1.464.357 2.075 1.102.702.892.76 1.871.792 2.824v2.26H156v4.373h-3.886c-2.132-.028-2.949-.208-2.98-2.17v-6.367h-3.152v8.537H139v-4.373h1.315V85.276H139v-4.371zm30 0h14.677v6.87h-4.748v-2.5h-3.003v3.988h4.242v3.868h-4.242v4.4h3.003v-2.705H184v7.079h-15v-4.373h1.354V85.276H169zM72.907 30.811a.935.935 0 000-.813l-2.18-3.926c-.124-.223-.328-.223-.452 0l-2.182 3.926a.935.935 0 000 .813l2.182 3.926c.124.224.328.224.452 0l2.18-3.926zm31.995-23.975c.13-.238.13-.626 0-.863l-2.667-4.89c-.13-.238-.341-.238-.47 0l-2.668 4.89c-.13.237-.13.625 0 .863l2.667 4.89c.13.238.342.238.471 0l2.667-4.89z" fill="#443F35" mask="url(#b)"/><path d="M109.724 34.851a.903.903 0 010-.83l2.763-4.707a.903.903 0 000-.83l-6.426-10.947c-.135-.229-.353-.229-.487 0l-2.764 4.707c-.134.229-.353.229-.487 0L92.243 5.075c-.133-.227-.353-.227-.487 0l-9.283 15.813c-.134.228-.353.228-.487 0l-4.387-7.473c-.134-.228-.353-.228-.487 0l-4.387 7.473a.907.907 0 000 .83l4.387 7.472a.903.903 0 010 .83L71.1 40.26a.907.907 0 000 .83l5.412 9.218c.134.23.45.49.702.58l8.35 2.986c.252.09.35-.023.215-.251L78.422 41.09a.905.905 0 010-.83l13.334-22.713c.134-.227.354-.227.488 0l13.333 22.714a.902.902 0 010 .83L98.22 53.622c-.134.228-.038.34.214.25l8.352-2.985c.252-.09.568-.35.702-.58l5.411-9.218a.905.905 0 000-.83l-3.175-5.409z" fill="#443F35" mask="url(#b)"/><path d="M85.103 41.326a.914.914 0 010-.843l6.148-10.404c.137-.232.362-.232.499 0l6.147 10.404a.917.917 0 010 .843L91.75 51.731c-.137.232-.362.232-.499 0l-6.148-10.405z" fill="#F05A22" mask="url(#b)"/><path d="M111.07 71.905l-.03-.01-41.01-14.742a.068.068 0 01-.03-.012l1.928-5.236.033.009 41.009 14.742c.009.003.018.009.03.013l-1.93 5.236zm-7.644-11l10.543-3.73a.15.15 0 00.031-.012l-1.97-5.258c-.012.004-.022.005-.031.01L95 57.924l8.426 2.98zm-22.853 2L70.03 66.633l-.03.012 1.969 5.26.033-.01L89 65.888l-8.427-2.982z" fill="#443F35" mask="url(#b)"/></g></svg>