<svg width="250" height="168" xmlns="http://www.w3.org/2000/svg" xmlns:xlink="http://www.w3.org/1999/xlink"><defs><path id="a" d="M.089.024h8.39v14.544H.088z"/><path id="c" d="M.339.327h10.124V16.86H.34z"/><path id="e" d="M0 167.417h249.797V.581H0z"/></defs><g fill="none" fill-rule="evenodd"><path d="M116.453 54.853c-.181.313-.181.828 0 1.141l8.113 14.072c.185.315.479.315.661 0l8.114-14.072c.183-.313.183-.828 0-1.141l-8.114-14.074c-.182-.313-.476-.313-.66 0l-8.114 14.074z" fill="#F05A22"/><path d="M109.808 85.142l-13.944 5.075a.108.108 0 00-.04.017l2.603 7.16.043-.012 22.481-8.18-11.143-4.06zm41.475 12.251c-.013-.003-.027-.008-.043-.011L95.864 77.224a.08.08 0 01-.04-.016l2.603-7.163c.015.011.028.011.043.015l55.38 20.157c.011.004.024.01.038.02l-2.605 7.156zM139.902 82.3l13.947-5.076a.124.124 0 00.04-.016l-2.607-7.163c-.012.01-.026.01-.043.015l-22.483 8.186 11.146 4.055zM99.858 40.779c.177-.313.177-.826 0-1.138l-3.176-5.506c-.183-.311-.477-.311-.659 0l-3.176 5.506c-.176.312-.176.825 0 1.138l3.176 5.503c.182.314.476.314.659 0l3.175-5.503z" fill="#FEFEFE"/><g transform="translate(134.884 .557)"><mask id="b" fill="#fff"><use xlink:href="#a"/></mask><path d="M8.342 7.864c.182-.31.182-.827-.001-1.14L4.61.258c-.177-.313-.476-.313-.658 0L.227 6.723c-.184.314-.184.83 0 1.141l3.726 6.47c.182.312.48.312.658 0l3.731-6.47z" fill="#FEFEFE" mask="url(#b)"/></g><path d="M103.989 68.664c.178.313.607.67.948.793l11.274 4.104c.34.124.47-.03.29-.342l-9.933-17.225c-.182-.313-.182-.828 0-1.141l17.999-31.216c.184-.314.478-.314.66 0l8.663 15.028.33.57s.147.26.327.573l8.677 15.045c.18.315.329.574.329.57v-.003c.001.003-.15.26-.329.574l-9.928 17.225c-.184.312-.052.466.287.342l11.273-4.104c.344-.123.769-.48.95-.793l7.308-12.67c.18-.313.18-.828 0-1.141l-4.29-7.432c-.18-.314-.18-.831 0-1.144l3.73-6.47c.185-.312.185-.826 0-1.139L143.88 23.62c-.179-.312-.476-.312-.656 0l-3.734 6.47c-.178.314-.475.314-.654 0L125.227 6.495c-.182-.312-.476-.312-.66 0l-12.529 21.733c-.182.31-.48.31-.661 0l-5.921-10.271c-.18-.314-.477-.314-.656 0l-5.926 10.27c-.18.312-.18.83 0 1.142L104.8 39.64c.18.313.18.825 0 1.139l-8.118 14.074c-.184.313-.184.828 0 1.141l7.307 12.67z" fill="#FEFEFE"/><path d="M99.374 158.702c1.896 0 2.795-.603 2.795-2.06 0-1.735-.853-2.286-2.729-2.286h-.9v4.346h.834zm-5.063-7.818h4.994c2.285 0 4.046.026 5.454 1.11 1.203.93 1.85 2.336 1.85 4.048 0 2.565-1.292 4.209-3.7 4.715l4.507 6.66h-5.084l-3.792-6.474v6.474h-4.229v-16.533z" fill="#F05A22"/><g transform="translate(118.605 150.557)"><mask id="d" fill="#fff"><use xlink:href="#c"/></mask><path fill="#F05A22" mask="url(#d)" d="M.339.327h10.124V3.96H4.731v2.868h5.41v3.532H4.73v2.8h5.732v3.7H.34z"/></g><path d="M145.817 163.717c3.449 0 5.09-1.317 5.09-4.555 0-3.283-1.69-4.58-5.09-4.58h-.763v9.135h.763zm-5.225-12.833h3.979c3.077 0 5.548.047 7.724 1.573 2.08 1.46 3.187 3.747 3.187 6.705 0 2.937-1.107 5.226-3.187 6.705-2.059 1.458-4.349 1.55-7.103 1.55h-4.6v-16.533z" fill="#F05A22"/><mask id="f" fill="#fff"><use xlink:href="#e"/></mask><path d="M9.64 132.275h4.558v-6.063H9.641v6.063zm0-11.348h4.558v-5.412H9.641v5.412zM0 109.537h14.238c2.363 0 5.206 0 6.672 1.833.975 1.218 1.099 2.968 1.099 5.003 0 4.311-.571 6.344-4.394 7.035 3.946 1.097 4.394 2.848 4.394 6.264 0 4.027-.285 5.816-1.383 7.037-1.425 1.545-3.742 1.545-6.307 1.545H0v-5.979h1.915v-16.76H0v-5.977zm47.481 22.738h4.275v-16.76H47.48v16.76zm4.597-22.737c2.725 0 5.287.121 6.627 2.482.856 1.504.856 3.415.856 5.775v11.877c0 1.628 0 3.376-.363 4.761-1.02 3.784-4.355 3.821-6.835 3.821h-5.208c-1.792 0-4.15-.037-5.738-1.34-1.787-1.508-1.787-3.702-1.787-5.571v-14.035c0-1.668 0-3.334.611-4.758 1.22-3.012 4.067-3.012 6.224-3.012h5.613zm51.594 0v5.977h-1.868v16.76h1.868v5.98h-9.15l-5.857-11.184c-1.504-3.012-1.707-3.582-2.319-5.49.123 1.137.123 1.583.166 2.681l.163 13.992h-8.908v-5.98h1.87v-16.759h-1.87v-5.977h9.191l6.427 12.611c1.016 1.952 1.18 2.439 1.747 4.187-.241-2.438-.241-3.05-.241-5.289v-11.509h8.781zm18.786 0h20.908v9.111h-6.832v-3.134h-4.272v5.412h5.894v5.205h-5.894v6.143h1.83v5.98h-11.634v-5.98h1.914v-16.76h-1.914zm37.002 0h11.637v5.977h-1.914v16.76h1.914v5.98H159.46v-5.98h1.872v-16.76h-1.872zm38.978 11.673h4.392v-5.696h-4.392v5.696zm-9.72-11.673h14.97c1.746.042 3.82.042 5.367 1.464 1.543 1.425 1.543 3.293 1.543 5.161 0 3.787-.036 6.312-4.108 7.652 1.018.244 2.04.488 2.89 1.507.977 1.221 1.057 2.56 1.102 3.862v3.091h1.908v5.98h-5.412c-2.968-.038-4.106-.285-4.148-2.967v-8.708h-4.392v11.674h-9.72v-5.979h1.83v-16.76h-1.83v-5.977zm40.373 0h20.26v9.395h-6.554v-3.418h-4.146v5.453h5.855v5.289h-5.855v6.018h4.146v-3.701h7v9.68H229.09v-5.98h1.87v-16.759h-1.87z" fill="#FEFEFE" mask="url(#f)"/></g></svg>