<svg width="227" height="123" xmlns="http://www.w3.org/2000/svg"><g fill="none" fill-rule="evenodd"><path d="M89.89 116.674c1.786 0 2.632-.438 2.632-1.496 0-1.258-.802-1.658-2.569-1.658h-.847v3.154h.784zM85.125 111h4.701c2.151 0 3.81.019 5.134.806 1.133.674 1.743 1.695 1.743 2.938 0 1.861-1.217 3.055-3.484 3.422L97.462 123h-4.786l-3.57-4.699V123h-3.981v-12zm23.44 0h8.636v2.637h-4.89v2.081h4.615v2.564h-4.614v2.032h4.89V123h-8.637zm23.268 9.314c3.143 0 4.639-.955 4.639-3.306 0-2.382-1.54-3.324-4.64-3.324h-.694v6.63h.695zM127.07 111h3.626c2.805 0 5.057.034 7.04 1.141 1.895 1.06 2.904 2.72 2.904 4.867 0 2.132-1.009 3.793-2.904 4.867-1.876 1.058-3.964 1.125-6.473 1.125h-4.193v-12z" fill="#F05A22"/><path d="M8.646 96.628h4.087v-4.434H8.646v4.434zm0-8.3h4.087v-3.957H8.646v3.958zM0 80h12.77c2.118 0 4.668 0 5.983 1.34.875.89.986 2.17.986 3.658 0 3.153-.512 4.64-3.941 5.145 3.539.803 3.941 2.083 3.941 4.581 0 2.945-.256 4.253-1.24 5.146C17.22 101 15.143 101 12.842 101H0v-4.372h1.717V84.372H0V80zm43.068 16.628h3.968V84.372h-3.968v12.256zM47.335 80c2.53 0 4.909.089 6.153 1.815.795 1.1.795 2.498.795 4.224v8.685c0 1.19 0 2.469-.338 3.482-.947 2.767-4.043 2.794-6.346 2.794h-4.834c-1.664 0-3.853-.027-5.327-.98-1.66-1.103-1.66-2.707-1.66-4.074V85.683c0-1.22 0-2.439.568-3.48C37.479 80 40.12 80 42.124 80h5.211zm46.425 0v4.371h-1.69v12.256h1.69V101h-8.28l-5.298-8.179c-1.362-2.202-1.545-2.619-2.099-4.014.111.831.111 1.158.15 1.96L78.381 101h-8.06v-4.373h1.691V84.371h-1.691V80h8.316l5.815 9.222c.92 1.428 1.068 1.784 1.581 3.062-.218-1.782-.218-2.23-.218-3.867V80h7.946zm17.273 0h18.505v6.663h-6.047V84.37h-3.781v3.958h5.217v3.806h-5.217v4.492h1.62V101h-10.297v-4.373h1.694V84.371h-1.694zm33.309 0h11.104v4.371h-1.827v12.256h1.827V101h-11.104v-4.373h1.786V84.371h-1.786zm35.755 8.537h3.89V84.37h-3.89v4.166zM171.484 80h13.263c1.547.031 3.385.031 4.755 1.071 1.367 1.042 1.367 2.408 1.367 3.774 0 2.77-.032 4.616-3.64 5.596.903.178 1.807.357 2.56 1.102.867.893.937 1.872.977 2.824v2.26h1.69V101h-4.794c-2.63-.027-3.638-.208-3.675-2.17v-6.367h-3.89V101h-8.613v-4.372h1.622V84.372h-1.622V80zm37.011 0H226.6v6.87h-5.857v-2.499h-3.705v3.988h5.233v3.867h-5.233v4.401h3.705v-2.706H227V101h-18.505v-4.373h1.67V84.371h-1.67zM89.974 29.907a.787.787 0 000-.814l-2.654-3.925c-.152-.224-.4-.224-.55 0l-2.657 3.925a.787.787 0 000 .814l2.656 3.925c.152.224.4.224.55 0l2.655-3.925zm38.951-23.976a.843.843 0 000-.863l-3.247-4.89c-.158-.237-.416-.237-.573 0l-3.248 4.89a.848.848 0 000 .863l3.248 4.891c.157.237.415.237.573 0l3.247-4.89z" fill="#443F35"/><path d="M134.794 33.947a.762.762 0 010-.83l3.364-4.708a.762.762 0 000-.83l-7.823-10.947c-.164-.228-.43-.228-.593 0l-3.365 4.707c-.162.23-.43.23-.593 0l-12.27-17.168c-.163-.228-.43-.228-.593 0L101.62 19.983c-.163.228-.43.228-.594 0l-5.34-7.472c-.163-.228-.43-.228-.594 0l-5.34 7.472a.765.765 0 000 .83l5.34 7.473a.762.762 0 010 .83l-7.318 10.24a.765.765 0 000 .83l6.588 9.218c.164.229.548.49.855.58l10.166 2.985c.307.09.424-.023.261-.251l-8.957-12.532a.763.763 0 010-.83l16.234-22.713c.163-.228.43-.228.593 0l16.232 22.713a.761.761 0 010 .83l-8.957 12.532c-.163.228-.046.341.26.251l10.169-2.986c.307-.09.69-.35.854-.58l6.588-9.217a.763.763 0 000-.83l-3.866-5.41z" fill="#443F35"/><path d="M104.821 40.422a.771.771 0 010-.843l7.485-10.405c.167-.232.44-.232.607 0l7.484 10.405a.773.773 0 010 .843l-7.484 10.404c-.167.232-.44.232-.607 0l-7.485-10.404z" fill="#F05A22"/><path d="M136.432 71l-.036-.009L86.47 56.248a.093.093 0 01-.035-.012L88.782 51c.014.004.026.005.04.01l49.924 14.741.037.014-2.35 5.235zm-9.305-11l12.836-3.73a.208.208 0 00.037-.012L137.6 51c-.012.005-.025.006-.036.01l-20.694 6.01L127.127 60zm-27.821 2L86.47 65.728c-.013.003-.026.009-.036.012L88.832 71l.04-.009 20.693-6.01L99.305 62z" fill="#443F35"/></g></svg>