<svg width="293" height="241" xmlns="http://www.w3.org/2000/svg"><g fill="none" fill-rule="evenodd"><path d="M127.863 175.674c1.447 0 2.133-.438 2.133-1.496 0-1.258-.65-1.658-2.082-1.658h-.687v3.154h.636zM124 170h3.811c1.743 0 3.087.019 4.16.806.919.674 1.414 1.695 1.414 2.938 0 1.861-.987 3.055-2.824 3.422L134 182h-3.88l-2.893-4.699V182H124v-12zm19 0h7v2.637h-3.963v2.081h3.74v2.564h-3.74v2.032H150V182h-7zm18.86 9.314c2.548 0 3.76-.955 3.76-3.306 0-2.382-1.248-3.324-3.76-3.324h-.563v6.63h.563zM158 170h2.94c2.273 0 4.098.034 5.706 1.141 1.536 1.06 2.354 2.72 2.354 4.867 0 2.132-.818 3.793-2.354 4.867-1.521 1.058-3.213 1.125-5.247 1.125H158v-12z" fill="#F05A22"/><path d="M62.008 155.628h3.313v-4.434h-3.313v4.434zm0-8.3h3.313v-3.957h-3.313v3.958zM55 139h10.35c1.718 0 3.785 0 4.85 1.34.71.89.8 2.17.8 3.658 0 3.153-.415 4.64-3.195 5.145 2.869.803 3.195 2.083 3.195 4.581 0 2.945-.208 4.253-1.005 5.146-1.037 1.13-2.72 1.13-4.585 1.13H55v-4.372h1.392v-12.256H55V139zm34.91 16.628h3.216v-12.256H89.91v12.256zM93.367 139c2.052 0 3.98.089 4.988 1.815.644 1.1.644 2.498.644 4.224v8.685c0 1.19 0 2.469-.273 3.482-.768 2.767-3.278 2.794-5.145 2.794h-3.918c-1.349 0-3.123-.027-4.318-.98C84 157.917 84 156.312 84 154.946v-10.263c0-1.22 0-2.439.46-3.48C85.38 139 87.52 139 89.146 139h4.223zM131 139v4.371h-1.37v12.256H131V160h-6.712l-4.295-8.179c-1.103-2.202-1.252-2.619-1.7-4.014.09.831.09 1.158.12 1.96l.12 10.233H112v-4.373h1.37v-12.256H112V139h6.741l4.713 9.222c.746 1.428.867 1.784 1.282 3.062-.177-1.782-.177-2.23-.177-3.867V139H131zm14 0h15v6.663h-4.902v-2.292h-3.065v3.958h4.23v3.806h-4.23v4.492h1.313V160H145v-4.373h1.373v-12.256H145zm27 0h9v4.371h-1.48v12.256H181V160h-9v-4.373h1.447v-12.256H172zm28.982 8.537h3.153v-4.166h-3.153v4.166zM194 139h10.75c1.255.031 2.744.031 3.855 1.071 1.108 1.042 1.108 2.408 1.108 3.774 0 2.77-.026 4.616-2.95 5.596.731.178 1.464.357 2.075 1.102.702.893.76 1.872.792 2.824v2.26H211V160h-3.886c-2.132-.027-2.949-.208-2.98-2.17v-6.367h-3.152V160H194v-4.372h1.315v-12.256H194V139zm30 0h14.677v6.87h-4.748v-2.499h-3.003v3.988h4.242v3.867h-4.242v4.401h3.003v-2.706H239V160h-15v-4.373h1.354v-12.256H224zm-96.093-50.093a.935.935 0 000-.814l-2.18-3.925c-.124-.224-.328-.224-.452 0l-2.182 3.925a.935.935 0 000 .814l2.182 3.925c.124.224.328.224.452 0l2.18-3.925zm31.995-23.976c.13-.237.13-.625 0-.863l-2.667-4.89c-.13-.237-.341-.237-.47 0l-2.668 4.89c-.13.238-.13.626 0 .863l2.667 4.891c.13.237.342.237.471 0l2.667-4.89z" fill="#443F35"/><path d="M164.724 92.947a.903.903 0 010-.83l2.763-4.708a.903.903 0 000-.83l-6.426-10.947c-.135-.228-.353-.228-.487 0l-2.764 4.707c-.134.23-.353.23-.487 0l-10.08-17.168c-.133-.228-.353-.228-.487 0l-9.283 15.812c-.134.228-.353.228-.487 0l-4.387-7.472c-.134-.228-.353-.228-.487 0l-4.387 7.472a.907.907 0 000 .83l4.387 7.473a.903.903 0 010 .83l-6.012 10.24a.907.907 0 000 .83l5.412 9.218c.134.229.45.49.702.58l8.35 2.985c.252.09.35-.023.215-.251l-7.357-12.532a.905.905 0 010-.83l13.334-22.713c.134-.228.354-.228.488 0l13.333 22.713a.902.902 0 010 .83l-7.357 12.532c-.134.228-.038.341.214.251l8.352-2.986c.252-.09.568-.35.702-.58l5.411-9.217a.905.905 0 000-.83l-3.175-5.41z" fill="#443F35"/><path d="M140.103 99.422a.914.914 0 010-.843l6.148-10.405c.137-.232.362-.232.499 0l6.147 10.405a.917.917 0 010 .843l-6.147 10.404c-.137.232-.362.232-.499 0l-6.148-10.404z" fill="#F05A22"/><path d="M166.07 130l-.03-.009-41.01-14.743a.068.068 0 01-.03-.012l1.928-5.236c.012.004.021.005.033.01l41.009 14.741c.009.003.018.009.03.014L166.07 130zm-7.644-11l10.543-3.73a.15.15 0 00.031-.012L167.03 110c-.012.005-.022.006-.031.01L150 116.02l8.426 2.979zm-22.853 2l-10.543 3.728-.03.012 1.969 5.26.033-.009 16.998-6.01-8.427-2.981z" fill="#443F35"/><g opacity=".07"><path d="M141.407 53.593a.935.935 0 00-.814 0l-3.925 2.18c-.224.124-.224.328 0 .452l3.925 2.182c.224.124.59.124.814 0l3.925-2.182c.224-.124.224-.328 0-.452l-3.925-2.18zm-23.976-31.995a1.003 1.003 0 00-.863 0l-4.89 2.667c-.237.13-.237.341 0 .47l4.89 2.668c.238.13.626.13.863 0l4.891-2.667c.237-.13.237-.342 0-.471l-4.89-2.667z" fill="#443F35"/><path d="M145.447 16.776a.903.903 0 01-.83 0l-4.708-2.763a.903.903 0 00-.83 0l-10.947 6.426c-.228.135-.228.353 0 .487l4.707 2.764c.23.134.23.353 0 .487l-17.168 10.08c-.228.133-.228.353 0 .487l15.812 9.283c.228.134.228.353 0 .487l-7.472 4.387c-.228.134-.228.353 0 .487l7.472 4.387a.907.907 0 00.83 0l7.473-4.387a.903.903 0 01.83 0l10.24 6.012a.907.907 0 00.83 0l9.218-5.412c.229-.134.49-.45.58-.702l2.985-8.35c.09-.252-.023-.35-.251-.215l-12.532 7.357a.905.905 0 01-.83 0l-22.713-13.334c-.228-.134-.228-.354 0-.488l22.713-13.333a.902.902 0 01.83 0l12.532 7.357c.228.134.341.038.251-.214l-2.986-8.352a1.55 1.55 0 00-.58-.702l-9.217-5.411a.905.905 0 00-.83 0l-5.41 3.175z" fill="#443F35"/><path d="M151.922 41.397a.914.914 0 01-.843 0l-10.405-6.148c-.232-.137-.232-.362 0-.499l10.405-6.147a.917.917 0 01.843 0l10.404 6.147c.232.137.232.362 0 .499l-10.404 6.148z" fill="#F05A22"/><path d="M182.5 15.43l-.009.03-14.743 41.01a.068.068 0 01-.012.03l-5.236-1.928c.004-.012.005-.021.01-.033l14.74-41.009c.003-.009.009-.018.014-.03l5.235 1.93zm-11 7.644l-3.73-10.543a.15.15 0 00-.012-.031l-5.258 1.97c.005.012.006.022.01.031l6.01 16.999 2.979-8.426zm2 22.853l3.728 10.543.012.03 5.26-1.969-.009-.033-6.01-16.998-2.981 8.427z" fill="#443F35"/></g><g opacity=".07"><path d="M141.407 223.593a.935.935 0 00-.814 0l-3.925 2.18c-.224.124-.224.328 0 .452l3.925 2.182c.224.124.59.124.814 0l3.925-2.182c.224-.124.224-.328 0-.452l-3.925-2.18zm-23.976-31.995a1.003 1.003 0 00-.863 0l-4.89 2.667c-.237.13-.237.341 0 .47l4.89 2.668c.238.13.626.13.863 0l4.891-2.667c.237-.13.237-.342 0-.471l-4.89-2.667z" fill="#443F35"/><path d="M145.447 186.776a.903.903 0 01-.83 0l-4.708-2.763a.903.903 0 00-.83 0l-10.947 6.426c-.228.135-.228.353 0 .487l4.707 2.764c.23.134.23.353 0 .487l-17.168 10.08c-.228.133-.228.353 0 .487l15.812 9.283c.228.134.228.353 0 .487l-7.472 4.387c-.228.134-.228.353 0 .487l7.472 4.387a.907.907 0 00.83 0l7.473-4.387a.903.903 0 01.83 0l10.24 6.012a.907.907 0 00.83 0l9.218-5.412c.229-.134.49-.45.58-.702l2.985-8.35c.09-.252-.023-.35-.251-.215l-12.532 7.357a.905.905 0 01-.83 0l-22.713-13.334c-.228-.134-.228-.354 0-.488l22.713-13.333a.902.902 0 01.83 0l12.532 7.357c.228.134.341.038.251-.214l-2.986-8.352a1.55 1.55 0 00-.58-.702l-9.217-5.411a.905.905 0 00-.83 0l-5.41 3.175z" fill="#443F35"/><path d="M151.922 211.397a.914.914 0 01-.843 0l-10.405-6.148c-.232-.137-.232-.362 0-.499l10.405-6.147a.917.917 0 01.843 0l10.404 6.147c.232.137.232.362 0 .499l-10.404 6.148z" fill="#F05A22"/><path d="M182.5 185.43l-.009.03-14.743 41.01a.068.068 0 01-.012.03l-5.236-1.928c.004-.012.005-.021.01-.033l14.741-41.009c.003-.009.009-.018.014-.03l5.235 1.93zm-11 7.644l-3.73-10.543a.15.15 0 00-.012-.031l-5.258 1.97c.005.012.006.022.01.031l6.011 16.999 2.979-8.426zm2 22.853l3.728 10.543.012.03 5.26-1.969-.009-.033-6.01-16.998-2.981 8.427z" fill="#443F35"/></g><g opacity=".07"><path d="M243.907 114.907a.935.935 0 000-.814l-2.18-3.925c-.124-.224-.328-.224-.452 0l-2.182 3.925a.935.935 0 000 .814l2.182 3.925c.124.224.328.224.452 0l2.18-3.925zm31.995-23.976c.13-.237.13-.625 0-.863l-2.667-4.89c-.13-.237-.341-.237-.47 0l-2.668 4.89c-.13.238-.13.626 0 .863l2.667 4.891c.13.237.342.237.471 0l2.667-4.89z" fill="#443F35"/><path d="M280.724 118.947a.903.903 0 010-.83l2.763-4.708a.903.903 0 000-.83l-6.426-10.947c-.135-.228-.353-.228-.487 0l-2.764 4.707c-.134.23-.353.23-.487 0l-10.08-17.168c-.133-.228-.353-.228-.487 0l-9.283 15.812c-.134.228-.353.228-.487 0l-4.387-7.472c-.134-.228-.353-.228-.487 0l-4.387 7.472a.907.907 0 000 .83l4.387 7.473a.903.903 0 010 .83l-6.012 10.24a.907.907 0 000 .83l5.412 9.218c.134.229.45.49.702.58l8.35 2.985c.252.09.35-.023.215-.251l-7.357-12.532a.905.905 0 010-.83l13.334-22.713c.134-.228.354-.228.488 0l13.333 22.713a.902.902 0 010 .83l-7.357 12.532c-.134.228-.038.341.214.251l8.352-2.986c.252-.09.568-.35.702-.58l5.411-9.217a.905.905 0 000-.83l-3.175-5.41z" fill="#443F35"/><path d="M256.103 125.422a.914.914 0 010-.843l6.148-10.405c.137-.232.362-.232.499 0l6.147 10.405a.917.917 0 010 .843l-6.147 10.404c-.137.232-.362.232-.499 0l-6.148-10.404z" fill="#F05A22"/><path d="M282.07 156l-.03-.009-41.01-14.743a.068.068 0 01-.03-.012l1.928-5.236c.012.004.021.005.033.01l41.009 14.741c.009.003.018.009.03.014L282.07 156zm-7.644-11l10.543-3.73a.15.15 0 00.031-.012L283.03 136c-.012.005-.022.006-.031.01L266 142.02l8.426 2.979zm-22.853 2l-10.543 3.728-.03.012 1.969 5.26.033-.009 16.998-6.01-8.427-2.981z" fill="#443F35"/></g><g opacity=".07"><path d="M13.907 114.907a.935.935 0 000-.814l-2.18-3.925c-.124-.224-.328-.224-.452 0l-2.182 3.925a.935.935 0 000 .814l2.182 3.925c.124.224.328.224.452 0l2.18-3.925zm31.995-23.976c.13-.237.13-.625 0-.863l-2.667-4.89c-.13-.237-.341-.237-.47 0l-2.668 4.89c-.13.238-.13.626 0 .863l2.667 4.891c.13.237.342.237.471 0l2.667-4.89z" fill="#443F35"/><path d="M50.724 118.947a.903.903 0 010-.83l2.763-4.708a.903.903 0 000-.83l-6.426-10.947c-.135-.228-.353-.228-.487 0l-2.764 4.707c-.134.23-.353.23-.487 0l-10.08-17.168c-.133-.228-.353-.228-.487 0l-9.283 15.812c-.134.228-.353.228-.487 0l-4.387-7.472c-.134-.228-.353-.228-.487 0l-4.387 7.472a.907.907 0 000 .83l4.387 7.473a.903.903 0 010 .83l-6.012 10.24a.907.907 0 000 .83l5.412 9.218c.134.229.45.49.702.58l8.35 2.985c.252.09.35-.023.215-.251l-7.357-12.532a.905.905 0 010-.83l13.334-22.713c.134-.228.354-.228.488 0l13.333 22.713a.902.902 0 010 .83l-7.357 12.532c-.134.228-.038.341.214.251l8.352-2.986c.252-.09.568-.35.702-.58l5.411-9.217a.905.905 0 000-.83l-3.175-5.41z" fill="#443F35"/><path d="M26.103 125.422a.914.914 0 010-.843l6.148-10.405c.137-.232.362-.232.499 0l6.147 10.405a.917.917 0 010 .843l-6.147 10.404c-.137.232-.362.232-.499 0l-6.148-10.404z" fill="#F05A22"/><path d="M52.07 156l-.03-.009-41.01-14.743a.068.068 0 01-.03-.012L12.928 136c.012.004.021.005.033.01l41.009 14.74c.009.003.018.009.03.014L52.07 156zm-7.644-11l10.543-3.73a.15.15 0 00.031-.012L53.03 136c-.012.005-.022.006-.031.01L36 142.02l8.426 2.98zm-22.853 2l-10.543 3.728-.03.012 1.969 5.26.033-.009L30 149.981 21.573 147z" fill="#443F35"/></g><path stroke="#61594B" stroke-width=".5" opacity=".6" stroke-dasharray="3" d="M1.498 12.5h293.004M.5 229.5h294m-293-47h293M.498 58.5h293.004M10 240.5L9.5 0M239 240.5L238.5 0M55 240.5L54.5 0M285 240.5L284.5 0"/></g></svg>