<svg width="240" height="381" xmlns="http://www.w3.org/2000/svg" xmlns:xlink="http://www.w3.org/1999/xlink"><defs><path id="a" d="M.435.369h98.683v48.248H.435z"/></defs><g fill="none" fill-rule="evenodd"><path d="M93.113 212.683c-.707 1.236-.707 3.266 0 4.502l31.708 55.499c.723 1.245 1.87 1.245 2.583 0l31.708-55.5c.719-1.235.719-3.265 0-4.5l-31.708-55.509c-.713-1.236-1.86-1.236-2.583 0l-31.708 55.508z" fill="#F05A22"/><path d="M67.161 331.937l-54.613 19.931a.424.424 0 00-.155.069l10.195 28.114c.057-.013.11-.03.168-.043l88.052-32.129-43.647-15.942zm162.475 48.114c-.05-.013-.105-.031-.169-.045l-216.92-78.987c-.06-.011-.118-.027-.154-.064l10.196-28.067c.057.041.11.041.169.06l216.933 78.984a.659.659 0 01.15.075l-10.205 28.044z" fill="#FEFEFE"/><g transform="translate(139.968 272.16)"><mask id="b" fill="#fff"><use xlink:href="#a"/></mask><path d="M44.2 48.617l54.766-19.986a.487.487 0 00.153-.064L88.887.369c-.05.04-.105.04-.169.059L.435 32.655 44.2 48.617z" fill="#FEFEFE" mask="url(#b)"/></g><path d="M27.91 157.756c.695-1.231.695-3.246 0-4.473L15.5 131.65c-.715-1.222-1.863-1.222-2.574 0L.515 153.283c-.687 1.227-.687 3.242 0 4.473l12.411 21.624c.711 1.234 1.859 1.234 2.574 0l12.41-21.624zM197.757 30.894c.71-1.216.71-3.235-.007-4.46L183.168 1.16c-.696-1.223-1.864-1.223-2.573 0l-14.573 25.274c-.719 1.225-.719 3.244 0 4.46l14.573 25.295c.709 1.22 1.877 1.22 2.573 0l14.589-25.295z" fill="#FEFEFE"/><path d="M44.499 266.651c.7 1.228 2.38 2.627 3.72 3.11l44.207 16.08c1.331.488 1.842-.116 1.135-1.34l-38.95-67.5c-.713-1.227-.713-3.244 0-4.472l70.577-122.326c.725-1.23 1.876-1.23 2.59 0l33.97 58.893c.712 1.228 1.293 2.235 1.293 2.235s.574 1.016 1.281 2.242l34.025 58.956a140.24 140.24 0 001.288 2.235v-.013c.007.013-.583 1.023-1.288 2.25l-38.93 67.5c-.719 1.224-.204 1.828 1.128 1.34l44.201-16.08c1.35-.483 3.014-1.882 3.728-3.11l28.652-49.65c.704-1.227.704-3.244 0-4.472l-16.818-29.124c-.707-1.228-.707-3.255 0-4.484l14.627-25.348c.723-1.226.723-3.24 0-4.466L200.92 90.135c-.702-1.221-1.87-1.221-2.574 0l-14.643 25.355c-.697 1.23-1.862 1.23-2.564 0l-53.362-92.463c-.714-1.22-1.865-1.22-2.59 0l-49.126 85.166c-.714 1.219-1.885 1.219-2.592 0l-23.217-40.25c-.705-1.227-1.87-1.227-2.574 0l-23.235 40.25c-.705 1.219-.705 3.247 0 4.472l23.235 40.252c.705 1.223.705 3.233 0 4.46L15.85 212.53c-.72 1.228-.72 3.245 0 4.473L44.5 266.65z" fill="#FEFEFE"/></g></svg>