<svg width="74" height="37" xmlns="http://www.w3.org/2000/svg" xmlns:xlink="http://www.w3.org/1999/xlink"><defs><path id="a" d="M0 .71h31.431v16.113H0z"/><path id="c" d="M0 .72h73.903V36H0z"/><path id="e" d="M.467.752h31.438V17.25H.467z"/></defs><g fill="none" fill-rule="evenodd"><g transform="translate(0 19.538)"><mask id="b" fill="#fff"><use xlink:href="#a"/></mask><path d="M17.491.71L.05 7.383a.132.132 0 00-.05.023l3.257 9.416.054-.015L31.43 6.048 17.491.71z" fill="#FEFEFE" mask="url(#b)"/></g><g transform="translate(0 .538)"><mask id="d" fill="#fff"><use xlink:href="#c"/></mask><path d="M70.587 36l-.055-.015L.05 9.982A.096.096 0 010 9.96L3.313.72c.018.013.035.013.055.02l70.486 26.002a.213.213 0 01.049.024L70.587 36z" fill="#FEFEFE" mask="url(#d)"/></g><g transform="translate(42 -.463)"><mask id="f" fill="#fff"><use xlink:href="#e"/></mask><path d="M14.41 17.25l17.446-6.834a.15.15 0 00.05-.022L28.645.752c-.017.014-.034.014-.054.02L.467 11.792l13.942 5.457z" fill="#FEFEFE" mask="url(#f)"/></g></g></svg>