<svg width="840" height="196" xmlns="http://www.w3.org/2000/svg" xmlns:xlink="http://www.w3.org/1999/xlink"><defs><path id="a" d="M.166.106h34.828V56H.166z"/></defs><g fill="none" fill-rule="evenodd"><path d="M333.612 166.48c6.22 0 9.172-2.043 9.172-6.98 0-5.873-2.799-7.742-8.955-7.742h-2.953v14.723h2.736zM317 140h16.387c7.497 0 13.275.087 17.893 3.761 3.949 3.145 6.074 7.909 6.074 13.71 0 8.687-4.24 14.256-12.142 15.97L360 196h-16.68l-12.444-21.928V196H317v-56z" fill="#F05A22"/><g transform="translate(398 139)"><mask id="b" fill="#fff"><use xlink:href="#a"/></mask><path fill="#F05A22" mask="url(#b)" d="M.166.106h34.828v12.28H15.276v9.696h18.608v11.943H15.276v9.465h19.718v12.511H.166z"/></g><path d="M489.546 183.468c11.579 0 17.092-4.46 17.092-15.43 0-11.118-5.673-15.513-17.092-15.513h-2.56v30.943h2.56zM472 140h13.361c10.333 0 18.63.158 25.937 5.327C518.283 150.272 522 158.02 522 168.038c0 9.95-3.717 17.702-10.702 22.712-6.913 4.937-14.603 5.25-23.85 5.25H472v-56z" fill="#F05A22"/><path d="M32.393 76.836h15.313V56.348H32.393v20.488zm0-38.35h15.313V20.2H32.393v18.288zM0 0h47.84c7.938 0 17.49 0 22.417 6.19 3.278 4.119 3.692 10.03 3.692 16.907 0 14.57-1.918 21.441-14.764 23.775 13.26 3.708 14.764 9.625 14.764 21.168 0 13.61-.957 19.653-4.645 23.779-4.79 5.222-12.573 5.222-21.192 5.222H0V76.836h6.433V20.201H0V0zm159.537 76.836H173.9V20.201h-14.363v56.635zM174.984 0c9.156 0 17.763.41 22.266 8.39 2.875 5.08 2.875 11.538 2.875 19.515V68.04c0 5.501 0 11.41-1.22 16.09-3.427 12.785-14.632 12.911-22.966 12.911h-17.497c-6.021 0-13.942-.126-19.28-4.53-6.006-5.095-6.006-12.51-6.006-18.824V26.258c0-5.638 0-11.267 2.055-16.079C139.31 0 148.873 0 156.123 0h18.86zm173.355 0v20.2h-6.277v56.635h6.277v20.207h-30.748l-19.675-37.793c-5.056-10.176-5.736-12.103-7.793-18.553.412 3.843.412 5.352.557 9.063l.549 47.283h-29.932V76.835h6.283V20.2h-6.283V0h30.883l21.592 42.617c3.415 6.596 3.97 8.242 5.872 14.15-.81-8.238-.81-10.309-.81-17.873V.001h29.505zm63.121 0h70.25v30.79h-22.957V20.2H444.4v18.287h19.806v17.59H444.4v20.758h6.148v20.207H411.46V76.835h6.431V20.2h-6.43zm124.322 0h39.105v20.2h-6.432v56.635h6.432v20.207h-39.105V76.835h6.289V20.2h-6.289zm130.971 39.448h14.755V20.199h-14.755v19.249zM634.09 0h50.298c5.868.143 12.838.143 18.035 4.95 5.186 4.813 5.186 11.127 5.186 17.44 0 12.796-.123 21.329-13.805 25.858 3.422.825 6.853 1.65 9.71 5.092 3.284 4.126 3.552 8.649 3.704 13.05v10.446h6.412v20.205h-18.185c-9.973-.126-13.796-.96-13.938-10.024V57.592h-14.755v39.45H634.09V76.835h6.15V20.201h-6.15V0zm135.657 0h68.071v31.748h-22.02V20.2h-13.93v18.427h19.674v17.87h-19.674v20.338h13.93V64.329h23.518v32.713h-69.57V76.835h6.281V20.2h-6.28z" fill="#FEFEFE"/></g></svg>