<svg width="185" height="22" xmlns="http://www.w3.org/2000/svg"><path d="M7.009 17.42h3.313v-4.434H7.009v4.433zm0-8.3h3.313V5.163H7.009V9.12zM0 .792h10.351c1.717 0 3.784 0 4.85 1.34.71.89.799 2.17.799 3.658 0 3.153-.415 4.64-3.195 5.145 2.87.802 3.195 2.083 3.195 4.58 0 2.946-.207 4.254-1.005 5.147-1.036 1.13-2.72 1.13-4.585 1.13H0v-4.373h1.392V5.163H0V.792zM34.91 17.42h3.216V5.162h-3.217V17.42zM38.368.791c2.05 0 3.978.089 4.987 1.815C44 3.707 44 5.104 44 6.83v8.686c0 1.19 0 2.469-.273 3.481-.768 2.767-3.278 2.795-5.144 2.795h-3.92c-1.348 0-3.122-.028-4.318-.98C29 19.708 29 18.103 29 16.737V6.474c0-1.22 0-2.438.46-3.48C30.38.792 32.52.792 34.144.792h4.225zM77 .792v4.37h-1.37V17.42H77v4.373h-6.712l-4.295-8.179c-1.103-2.202-1.252-2.619-1.7-4.015.09.832.09 1.158.12 1.962l.12 10.232H58V17.42h1.371V5.163H58V.792h6.741l4.713 9.222c.746 1.427.867 1.784 1.282 3.062-.177-1.783-.177-2.23-.177-3.868V.792H77zm14 0h15v6.663h-4.902V5.163h-3.065V9.12h4.23v3.807h-4.23v4.492h1.313v4.373H91v-4.373h1.373V5.163H91zm27 0h9v4.37h-1.48V17.42H127v4.373h-9V17.42h1.447V5.163H118zm28.392 8.536h3.339V5.163h-3.34v4.165zM139 .792h11.383c1.328.03 2.905.03 4.08 1.07 1.175 1.042 1.175 2.409 1.175 3.775 0 2.769-.028 4.616-3.125 5.596.775.178 1.551.357 2.198 1.102.743.892.804 1.871.838 2.824v2.26H157v4.373h-4.115c-2.257-.028-3.122-.208-3.154-2.17v-6.367h-3.34v8.537H139v-4.373h1.392V5.163H139V.792zm31 0h14.677v6.87h-4.748v-2.5h-3.003v3.989h4.242v3.867h-4.242v4.4h3.003v-2.705H185v7.079h-15v-4.373h1.354V5.163H170z" fill="#FEFEFE" fill-rule="evenodd"/></svg>